<mxfile host="app.diagrams.net" modified="2023-07-04T04:12:11.815Z" agent="Mozilla/5.0 (Windows NT 10.0; Win64; x64) AppleWebKit/537.36 (KHTML, like Gecko) Chrome/114.0.0.0 Safari/537.36" etag="La9e2GnhXPwTqXvkcwj2" version="21.3.5" type="github">
  <diagram name="第 1 页" id="lpdmA8X_1mPsTtXrlwdf">
    <mxGraphModel dx="1434" dy="756" grid="1" gridSize="10" guides="1" tooltips="1" connect="1" arrows="1" fold="1" page="1" pageScale="1" pageWidth="827" pageHeight="1169" math="1" shadow="0">
      <root>
        <mxCell id="0" />
        <mxCell id="1" parent="0" />
        <mxCell id="Dmx9H3TW1Ro3idiB31cK-1" value="" style="rounded=1;whiteSpace=wrap;html=1;fillColor=none;dashed=1;" vertex="1" parent="1">
          <mxGeometry x="507" y="839.38" width="320" height="198" as="geometry" />
        </mxCell>
        <mxCell id="Dmx9H3TW1Ro3idiB31cK-2" value="" style="group" vertex="1" connectable="0" parent="1">
          <mxGeometry x="226" y="938.13" width="147" height="58" as="geometry" />
        </mxCell>
        <mxCell id="Dmx9H3TW1Ro3idiB31cK-3" value="" style="whiteSpace=wrap;html=1;aspect=fixed;fillColor=#fff2cc;strokeColor=#d6b656;container=0;" vertex="1" parent="Dmx9H3TW1Ro3idiB31cK-2">
          <mxGeometry x="89" width="18" height="18" as="geometry" />
        </mxCell>
        <mxCell id="Dmx9H3TW1Ro3idiB31cK-4" value="" style="whiteSpace=wrap;html=1;aspect=fixed;fillColor=#fff2cc;strokeColor=#d6b656;container=0;" vertex="1" parent="Dmx9H3TW1Ro3idiB31cK-2">
          <mxGeometry x="71" width="18" height="18" as="geometry" />
        </mxCell>
        <mxCell id="Dmx9H3TW1Ro3idiB31cK-5" value="" style="whiteSpace=wrap;html=1;aspect=fixed;fillColor=#fff2cc;strokeColor=#d6b656;container=0;" vertex="1" parent="Dmx9H3TW1Ro3idiB31cK-2">
          <mxGeometry x="53" width="18" height="18" as="geometry" />
        </mxCell>
        <mxCell id="Dmx9H3TW1Ro3idiB31cK-6" value="" style="whiteSpace=wrap;html=1;aspect=fixed;fillColor=#fff2cc;strokeColor=#d6b656;container=0;" vertex="1" parent="Dmx9H3TW1Ro3idiB31cK-2">
          <mxGeometry x="36" width="18" height="18" as="geometry" />
        </mxCell>
        <mxCell id="Dmx9H3TW1Ro3idiB31cK-7" value="" style="whiteSpace=wrap;html=1;aspect=fixed;fillColor=#fff2cc;strokeColor=#d6b656;container=0;" vertex="1" parent="Dmx9H3TW1Ro3idiB31cK-2">
          <mxGeometry width="18" height="18" as="geometry" />
        </mxCell>
        <mxCell id="Dmx9H3TW1Ro3idiB31cK-8" value="" style="whiteSpace=wrap;html=1;aspect=fixed;fillColor=#fff2cc;strokeColor=#d6b656;container=0;" vertex="1" parent="Dmx9H3TW1Ro3idiB31cK-2">
          <mxGeometry x="18" width="18" height="18" as="geometry" />
        </mxCell>
        <mxCell id="Dmx9H3TW1Ro3idiB31cK-9" value="" style="whiteSpace=wrap;html=1;aspect=fixed;fillColor=#fff2cc;strokeColor=#d6b656;container=0;" vertex="1" parent="Dmx9H3TW1Ro3idiB31cK-2">
          <mxGeometry x="99" y="10" width="18" height="18" as="geometry" />
        </mxCell>
        <mxCell id="Dmx9H3TW1Ro3idiB31cK-10" value="" style="whiteSpace=wrap;html=1;aspect=fixed;fillColor=#fff2cc;strokeColor=#d6b656;container=0;" vertex="1" parent="Dmx9H3TW1Ro3idiB31cK-2">
          <mxGeometry x="81" y="10" width="18" height="18" as="geometry" />
        </mxCell>
        <mxCell id="Dmx9H3TW1Ro3idiB31cK-11" value="" style="whiteSpace=wrap;html=1;aspect=fixed;fillColor=#fff2cc;strokeColor=#d6b656;container=0;" vertex="1" parent="Dmx9H3TW1Ro3idiB31cK-2">
          <mxGeometry x="63" y="10" width="18" height="18" as="geometry" />
        </mxCell>
        <mxCell id="Dmx9H3TW1Ro3idiB31cK-12" value="" style="whiteSpace=wrap;html=1;aspect=fixed;fillColor=#fff2cc;strokeColor=#d6b656;container=0;" vertex="1" parent="Dmx9H3TW1Ro3idiB31cK-2">
          <mxGeometry x="46" y="10" width="18" height="18" as="geometry" />
        </mxCell>
        <mxCell id="Dmx9H3TW1Ro3idiB31cK-13" value="" style="whiteSpace=wrap;html=1;aspect=fixed;fillColor=#fff2cc;strokeColor=#d6b656;container=0;" vertex="1" parent="Dmx9H3TW1Ro3idiB31cK-2">
          <mxGeometry x="10" y="10" width="18" height="18" as="geometry" />
        </mxCell>
        <mxCell id="Dmx9H3TW1Ro3idiB31cK-14" value="" style="whiteSpace=wrap;html=1;aspect=fixed;fillColor=#fff2cc;strokeColor=#d6b656;container=0;" vertex="1" parent="Dmx9H3TW1Ro3idiB31cK-2">
          <mxGeometry x="28" y="10" width="18" height="18" as="geometry" />
        </mxCell>
        <mxCell id="Dmx9H3TW1Ro3idiB31cK-15" value="" style="whiteSpace=wrap;html=1;aspect=fixed;fillColor=#fff2cc;strokeColor=#d6b656;container=0;" vertex="1" parent="Dmx9H3TW1Ro3idiB31cK-2">
          <mxGeometry x="109" y="20" width="18" height="18" as="geometry" />
        </mxCell>
        <mxCell id="Dmx9H3TW1Ro3idiB31cK-16" value="" style="whiteSpace=wrap;html=1;aspect=fixed;fillColor=#fff2cc;strokeColor=#d6b656;container=0;" vertex="1" parent="Dmx9H3TW1Ro3idiB31cK-2">
          <mxGeometry x="91" y="20" width="18" height="18" as="geometry" />
        </mxCell>
        <mxCell id="Dmx9H3TW1Ro3idiB31cK-17" value="" style="whiteSpace=wrap;html=1;aspect=fixed;fillColor=#fff2cc;strokeColor=#d6b656;container=0;" vertex="1" parent="Dmx9H3TW1Ro3idiB31cK-2">
          <mxGeometry x="73" y="20" width="18" height="18" as="geometry" />
        </mxCell>
        <mxCell id="Dmx9H3TW1Ro3idiB31cK-18" value="" style="whiteSpace=wrap;html=1;aspect=fixed;fillColor=#fff2cc;strokeColor=#d6b656;container=0;" vertex="1" parent="Dmx9H3TW1Ro3idiB31cK-2">
          <mxGeometry x="56" y="20" width="18" height="18" as="geometry" />
        </mxCell>
        <mxCell id="Dmx9H3TW1Ro3idiB31cK-19" value="" style="whiteSpace=wrap;html=1;aspect=fixed;fillColor=#fff2cc;strokeColor=#d6b656;container=0;" vertex="1" parent="Dmx9H3TW1Ro3idiB31cK-2">
          <mxGeometry x="20" y="20" width="18" height="18" as="geometry" />
        </mxCell>
        <mxCell id="Dmx9H3TW1Ro3idiB31cK-20" value="" style="whiteSpace=wrap;html=1;aspect=fixed;fillColor=#fff2cc;strokeColor=#d6b656;container=0;" vertex="1" parent="Dmx9H3TW1Ro3idiB31cK-2">
          <mxGeometry x="38" y="20" width="18" height="18" as="geometry" />
        </mxCell>
        <mxCell id="Dmx9H3TW1Ro3idiB31cK-21" value="" style="whiteSpace=wrap;html=1;aspect=fixed;fillColor=#fff2cc;strokeColor=#d6b656;container=0;" vertex="1" parent="Dmx9H3TW1Ro3idiB31cK-2">
          <mxGeometry x="119" y="30" width="18" height="18" as="geometry" />
        </mxCell>
        <mxCell id="Dmx9H3TW1Ro3idiB31cK-22" value="" style="whiteSpace=wrap;html=1;aspect=fixed;fillColor=#fff2cc;strokeColor=#d6b656;container=0;" vertex="1" parent="Dmx9H3TW1Ro3idiB31cK-2">
          <mxGeometry x="101" y="30" width="18" height="18" as="geometry" />
        </mxCell>
        <mxCell id="Dmx9H3TW1Ro3idiB31cK-23" value="" style="whiteSpace=wrap;html=1;aspect=fixed;fillColor=#fff2cc;strokeColor=#d6b656;container=0;" vertex="1" parent="Dmx9H3TW1Ro3idiB31cK-2">
          <mxGeometry x="83" y="30" width="18" height="18" as="geometry" />
        </mxCell>
        <mxCell id="Dmx9H3TW1Ro3idiB31cK-24" value="" style="whiteSpace=wrap;html=1;aspect=fixed;fillColor=#fff2cc;strokeColor=#d6b656;container=0;" vertex="1" parent="Dmx9H3TW1Ro3idiB31cK-2">
          <mxGeometry x="66" y="30" width="18" height="18" as="geometry" />
        </mxCell>
        <mxCell id="Dmx9H3TW1Ro3idiB31cK-25" value="" style="whiteSpace=wrap;html=1;aspect=fixed;fillColor=#fff2cc;strokeColor=#d6b656;container=0;" vertex="1" parent="Dmx9H3TW1Ro3idiB31cK-2">
          <mxGeometry x="30" y="30" width="18" height="18" as="geometry" />
        </mxCell>
        <mxCell id="Dmx9H3TW1Ro3idiB31cK-26" value="" style="whiteSpace=wrap;html=1;aspect=fixed;fillColor=#fff2cc;strokeColor=#d6b656;container=0;" vertex="1" parent="Dmx9H3TW1Ro3idiB31cK-2">
          <mxGeometry x="48" y="30" width="18" height="18" as="geometry" />
        </mxCell>
        <mxCell id="Dmx9H3TW1Ro3idiB31cK-27" value="" style="whiteSpace=wrap;html=1;aspect=fixed;fillColor=#fff2cc;strokeColor=#d6b656;container=0;" vertex="1" parent="Dmx9H3TW1Ro3idiB31cK-2">
          <mxGeometry x="99" y="10" width="18" height="18" as="geometry" />
        </mxCell>
        <mxCell id="Dmx9H3TW1Ro3idiB31cK-28" value="" style="whiteSpace=wrap;html=1;aspect=fixed;fillColor=#fff2cc;strokeColor=#d6b656;container=0;" vertex="1" parent="Dmx9H3TW1Ro3idiB31cK-2">
          <mxGeometry x="81" y="10" width="18" height="18" as="geometry" />
        </mxCell>
        <mxCell id="Dmx9H3TW1Ro3idiB31cK-29" value="" style="whiteSpace=wrap;html=1;aspect=fixed;fillColor=#fff2cc;strokeColor=#d6b656;container=0;" vertex="1" parent="Dmx9H3TW1Ro3idiB31cK-2">
          <mxGeometry x="63" y="10" width="18" height="18" as="geometry" />
        </mxCell>
        <mxCell id="Dmx9H3TW1Ro3idiB31cK-30" value="" style="whiteSpace=wrap;html=1;aspect=fixed;fillColor=#fff2cc;strokeColor=#d6b656;container=0;" vertex="1" parent="Dmx9H3TW1Ro3idiB31cK-2">
          <mxGeometry x="46" y="10" width="18" height="18" as="geometry" />
        </mxCell>
        <mxCell id="Dmx9H3TW1Ro3idiB31cK-31" value="" style="whiteSpace=wrap;html=1;aspect=fixed;fillColor=#fff2cc;strokeColor=#d6b656;container=0;" vertex="1" parent="Dmx9H3TW1Ro3idiB31cK-2">
          <mxGeometry x="10" y="10" width="18" height="18" as="geometry" />
        </mxCell>
        <mxCell id="Dmx9H3TW1Ro3idiB31cK-32" value="" style="whiteSpace=wrap;html=1;aspect=fixed;fillColor=#fff2cc;strokeColor=#d6b656;container=0;" vertex="1" parent="Dmx9H3TW1Ro3idiB31cK-2">
          <mxGeometry x="28" y="10" width="18" height="18" as="geometry" />
        </mxCell>
        <mxCell id="Dmx9H3TW1Ro3idiB31cK-33" value="" style="whiteSpace=wrap;html=1;aspect=fixed;fillColor=#fff2cc;strokeColor=#d6b656;container=0;" vertex="1" parent="Dmx9H3TW1Ro3idiB31cK-2">
          <mxGeometry x="109" y="20" width="18" height="18" as="geometry" />
        </mxCell>
        <mxCell id="Dmx9H3TW1Ro3idiB31cK-34" value="" style="whiteSpace=wrap;html=1;aspect=fixed;fillColor=#fff2cc;strokeColor=#d6b656;container=0;" vertex="1" parent="Dmx9H3TW1Ro3idiB31cK-2">
          <mxGeometry x="91" y="20" width="18" height="18" as="geometry" />
        </mxCell>
        <mxCell id="Dmx9H3TW1Ro3idiB31cK-35" value="" style="whiteSpace=wrap;html=1;aspect=fixed;fillColor=#fff2cc;strokeColor=#d6b656;container=0;" vertex="1" parent="Dmx9H3TW1Ro3idiB31cK-2">
          <mxGeometry x="73" y="20" width="18" height="18" as="geometry" />
        </mxCell>
        <mxCell id="Dmx9H3TW1Ro3idiB31cK-36" value="" style="whiteSpace=wrap;html=1;aspect=fixed;fillColor=#fff2cc;strokeColor=#d6b656;container=0;" vertex="1" parent="Dmx9H3TW1Ro3idiB31cK-2">
          <mxGeometry x="56" y="20" width="18" height="18" as="geometry" />
        </mxCell>
        <mxCell id="Dmx9H3TW1Ro3idiB31cK-37" value="" style="whiteSpace=wrap;html=1;aspect=fixed;fillColor=#fff2cc;strokeColor=#d6b656;container=0;" vertex="1" parent="Dmx9H3TW1Ro3idiB31cK-2">
          <mxGeometry x="20" y="20" width="18" height="18" as="geometry" />
        </mxCell>
        <mxCell id="Dmx9H3TW1Ro3idiB31cK-38" value="" style="whiteSpace=wrap;html=1;aspect=fixed;fillColor=#fff2cc;strokeColor=#d6b656;container=0;" vertex="1" parent="Dmx9H3TW1Ro3idiB31cK-2">
          <mxGeometry x="38" y="20" width="18" height="18" as="geometry" />
        </mxCell>
        <mxCell id="Dmx9H3TW1Ro3idiB31cK-39" value="" style="whiteSpace=wrap;html=1;aspect=fixed;fillColor=#fff2cc;strokeColor=#d6b656;container=0;" vertex="1" parent="Dmx9H3TW1Ro3idiB31cK-2">
          <mxGeometry x="119" y="30" width="18" height="18" as="geometry" />
        </mxCell>
        <mxCell id="Dmx9H3TW1Ro3idiB31cK-40" value="" style="whiteSpace=wrap;html=1;aspect=fixed;fillColor=#fff2cc;strokeColor=#d6b656;container=0;" vertex="1" parent="Dmx9H3TW1Ro3idiB31cK-2">
          <mxGeometry x="101" y="30" width="18" height="18" as="geometry" />
        </mxCell>
        <mxCell id="Dmx9H3TW1Ro3idiB31cK-41" value="" style="whiteSpace=wrap;html=1;aspect=fixed;fillColor=#fff2cc;strokeColor=#d6b656;container=0;" vertex="1" parent="Dmx9H3TW1Ro3idiB31cK-2">
          <mxGeometry x="83" y="30" width="18" height="18" as="geometry" />
        </mxCell>
        <mxCell id="Dmx9H3TW1Ro3idiB31cK-42" value="" style="whiteSpace=wrap;html=1;aspect=fixed;fillColor=#fff2cc;strokeColor=#d6b656;container=0;" vertex="1" parent="Dmx9H3TW1Ro3idiB31cK-2">
          <mxGeometry x="66" y="30" width="18" height="18" as="geometry" />
        </mxCell>
        <mxCell id="Dmx9H3TW1Ro3idiB31cK-43" value="" style="whiteSpace=wrap;html=1;aspect=fixed;fillColor=#fff2cc;strokeColor=#d6b656;container=0;" vertex="1" parent="Dmx9H3TW1Ro3idiB31cK-2">
          <mxGeometry x="30" y="30" width="18" height="18" as="geometry" />
        </mxCell>
        <mxCell id="Dmx9H3TW1Ro3idiB31cK-44" value="" style="whiteSpace=wrap;html=1;aspect=fixed;fillColor=#fff2cc;strokeColor=#d6b656;container=0;" vertex="1" parent="Dmx9H3TW1Ro3idiB31cK-2">
          <mxGeometry x="48" y="30" width="18" height="18" as="geometry" />
        </mxCell>
        <mxCell id="Dmx9H3TW1Ro3idiB31cK-45" value="" style="whiteSpace=wrap;html=1;aspect=fixed;fillColor=#fff2cc;strokeColor=#d6b656;container=0;" vertex="1" parent="Dmx9H3TW1Ro3idiB31cK-2">
          <mxGeometry x="129" y="40" width="18" height="18" as="geometry" />
        </mxCell>
        <mxCell id="Dmx9H3TW1Ro3idiB31cK-46" value="" style="whiteSpace=wrap;html=1;aspect=fixed;fillColor=#fff2cc;strokeColor=#d6b656;container=0;" vertex="1" parent="Dmx9H3TW1Ro3idiB31cK-2">
          <mxGeometry x="111" y="40" width="18" height="18" as="geometry" />
        </mxCell>
        <mxCell id="Dmx9H3TW1Ro3idiB31cK-47" value="" style="whiteSpace=wrap;html=1;aspect=fixed;fillColor=#fff2cc;strokeColor=#d6b656;container=0;" vertex="1" parent="Dmx9H3TW1Ro3idiB31cK-2">
          <mxGeometry x="93" y="40" width="18" height="18" as="geometry" />
        </mxCell>
        <mxCell id="Dmx9H3TW1Ro3idiB31cK-48" value="" style="whiteSpace=wrap;html=1;aspect=fixed;fillColor=#fff2cc;strokeColor=#d6b656;container=0;" vertex="1" parent="Dmx9H3TW1Ro3idiB31cK-2">
          <mxGeometry x="76" y="40" width="18" height="18" as="geometry" />
        </mxCell>
        <mxCell id="Dmx9H3TW1Ro3idiB31cK-49" value="" style="whiteSpace=wrap;html=1;aspect=fixed;fillColor=#fff2cc;strokeColor=#d6b656;container=0;" vertex="1" parent="Dmx9H3TW1Ro3idiB31cK-2">
          <mxGeometry x="40" y="40" width="18" height="18" as="geometry" />
        </mxCell>
        <mxCell id="Dmx9H3TW1Ro3idiB31cK-50" value="" style="whiteSpace=wrap;html=1;aspect=fixed;fillColor=#fff2cc;strokeColor=#d6b656;container=0;" vertex="1" parent="Dmx9H3TW1Ro3idiB31cK-2">
          <mxGeometry x="58" y="40" width="18" height="18" as="geometry" />
        </mxCell>
        <mxCell id="Dmx9H3TW1Ro3idiB31cK-51" value="" style="group" vertex="1" connectable="0" parent="1">
          <mxGeometry x="227" y="913.13" width="147" height="58" as="geometry" />
        </mxCell>
        <mxCell id="Dmx9H3TW1Ro3idiB31cK-52" value="" style="whiteSpace=wrap;html=1;aspect=fixed;fillColor=#e1d5e7;strokeColor=#9673a6;container=0;" vertex="1" parent="Dmx9H3TW1Ro3idiB31cK-51">
          <mxGeometry x="89" width="18" height="18" as="geometry" />
        </mxCell>
        <mxCell id="Dmx9H3TW1Ro3idiB31cK-53" value="" style="whiteSpace=wrap;html=1;aspect=fixed;fillColor=#e1d5e7;strokeColor=#9673a6;container=0;" vertex="1" parent="Dmx9H3TW1Ro3idiB31cK-51">
          <mxGeometry x="71" width="18" height="18" as="geometry" />
        </mxCell>
        <mxCell id="Dmx9H3TW1Ro3idiB31cK-54" value="" style="whiteSpace=wrap;html=1;aspect=fixed;fillColor=#e1d5e7;strokeColor=#9673a6;container=0;" vertex="1" parent="Dmx9H3TW1Ro3idiB31cK-51">
          <mxGeometry x="53" width="18" height="18" as="geometry" />
        </mxCell>
        <mxCell id="Dmx9H3TW1Ro3idiB31cK-55" value="" style="whiteSpace=wrap;html=1;aspect=fixed;fillColor=#e1d5e7;strokeColor=#9673a6;container=0;" vertex="1" parent="Dmx9H3TW1Ro3idiB31cK-51">
          <mxGeometry x="36" width="18" height="18" as="geometry" />
        </mxCell>
        <mxCell id="Dmx9H3TW1Ro3idiB31cK-56" value="" style="whiteSpace=wrap;html=1;aspect=fixed;fillColor=#e1d5e7;strokeColor=#9673a6;container=0;" vertex="1" parent="Dmx9H3TW1Ro3idiB31cK-51">
          <mxGeometry width="18" height="18" as="geometry" />
        </mxCell>
        <mxCell id="Dmx9H3TW1Ro3idiB31cK-57" value="" style="whiteSpace=wrap;html=1;aspect=fixed;fillColor=#e1d5e7;strokeColor=#9673a6;container=0;" vertex="1" parent="Dmx9H3TW1Ro3idiB31cK-51">
          <mxGeometry x="18" width="18" height="18" as="geometry" />
        </mxCell>
        <mxCell id="Dmx9H3TW1Ro3idiB31cK-58" value="" style="whiteSpace=wrap;html=1;aspect=fixed;fillColor=#e1d5e7;strokeColor=#9673a6;container=0;" vertex="1" parent="Dmx9H3TW1Ro3idiB31cK-51">
          <mxGeometry x="99" y="10" width="18" height="18" as="geometry" />
        </mxCell>
        <mxCell id="Dmx9H3TW1Ro3idiB31cK-59" value="" style="whiteSpace=wrap;html=1;aspect=fixed;fillColor=#e1d5e7;strokeColor=#9673a6;container=0;" vertex="1" parent="Dmx9H3TW1Ro3idiB31cK-51">
          <mxGeometry x="81" y="10" width="18" height="18" as="geometry" />
        </mxCell>
        <mxCell id="Dmx9H3TW1Ro3idiB31cK-60" value="" style="whiteSpace=wrap;html=1;aspect=fixed;fillColor=#e1d5e7;strokeColor=#9673a6;container=0;" vertex="1" parent="Dmx9H3TW1Ro3idiB31cK-51">
          <mxGeometry x="63" y="10" width="18" height="18" as="geometry" />
        </mxCell>
        <mxCell id="Dmx9H3TW1Ro3idiB31cK-61" value="" style="whiteSpace=wrap;html=1;aspect=fixed;fillColor=#e1d5e7;strokeColor=#9673a6;container=0;" vertex="1" parent="Dmx9H3TW1Ro3idiB31cK-51">
          <mxGeometry x="46" y="10" width="18" height="18" as="geometry" />
        </mxCell>
        <mxCell id="Dmx9H3TW1Ro3idiB31cK-62" value="" style="whiteSpace=wrap;html=1;aspect=fixed;fillColor=#e1d5e7;strokeColor=#9673a6;container=0;" vertex="1" parent="Dmx9H3TW1Ro3idiB31cK-51">
          <mxGeometry x="10" y="10" width="18" height="18" as="geometry" />
        </mxCell>
        <mxCell id="Dmx9H3TW1Ro3idiB31cK-63" value="" style="whiteSpace=wrap;html=1;aspect=fixed;fillColor=#e1d5e7;strokeColor=#9673a6;container=0;" vertex="1" parent="Dmx9H3TW1Ro3idiB31cK-51">
          <mxGeometry x="28" y="10" width="18" height="18" as="geometry" />
        </mxCell>
        <mxCell id="Dmx9H3TW1Ro3idiB31cK-64" value="" style="whiteSpace=wrap;html=1;aspect=fixed;fillColor=#e1d5e7;strokeColor=#9673a6;container=0;" vertex="1" parent="Dmx9H3TW1Ro3idiB31cK-51">
          <mxGeometry x="109" y="20" width="18" height="18" as="geometry" />
        </mxCell>
        <mxCell id="Dmx9H3TW1Ro3idiB31cK-65" value="" style="whiteSpace=wrap;html=1;aspect=fixed;fillColor=#e1d5e7;strokeColor=#9673a6;container=0;" vertex="1" parent="Dmx9H3TW1Ro3idiB31cK-51">
          <mxGeometry x="91" y="20" width="18" height="18" as="geometry" />
        </mxCell>
        <mxCell id="Dmx9H3TW1Ro3idiB31cK-66" value="" style="whiteSpace=wrap;html=1;aspect=fixed;fillColor=#e1d5e7;strokeColor=#9673a6;container=0;" vertex="1" parent="Dmx9H3TW1Ro3idiB31cK-51">
          <mxGeometry x="73" y="20" width="18" height="18" as="geometry" />
        </mxCell>
        <mxCell id="Dmx9H3TW1Ro3idiB31cK-67" value="" style="whiteSpace=wrap;html=1;aspect=fixed;fillColor=#e1d5e7;strokeColor=#9673a6;container=0;" vertex="1" parent="Dmx9H3TW1Ro3idiB31cK-51">
          <mxGeometry x="56" y="20" width="18" height="18" as="geometry" />
        </mxCell>
        <mxCell id="Dmx9H3TW1Ro3idiB31cK-68" value="" style="whiteSpace=wrap;html=1;aspect=fixed;fillColor=#e1d5e7;strokeColor=#9673a6;container=0;" vertex="1" parent="Dmx9H3TW1Ro3idiB31cK-51">
          <mxGeometry x="20" y="20" width="18" height="18" as="geometry" />
        </mxCell>
        <mxCell id="Dmx9H3TW1Ro3idiB31cK-69" value="" style="whiteSpace=wrap;html=1;aspect=fixed;fillColor=#e1d5e7;strokeColor=#9673a6;container=0;" vertex="1" parent="Dmx9H3TW1Ro3idiB31cK-51">
          <mxGeometry x="38" y="20" width="18" height="18" as="geometry" />
        </mxCell>
        <mxCell id="Dmx9H3TW1Ro3idiB31cK-70" value="" style="whiteSpace=wrap;html=1;aspect=fixed;fillColor=#e1d5e7;strokeColor=#9673a6;container=0;" vertex="1" parent="Dmx9H3TW1Ro3idiB31cK-51">
          <mxGeometry x="119" y="30" width="18" height="18" as="geometry" />
        </mxCell>
        <mxCell id="Dmx9H3TW1Ro3idiB31cK-71" value="" style="whiteSpace=wrap;html=1;aspect=fixed;fillColor=#e1d5e7;strokeColor=#9673a6;container=0;" vertex="1" parent="Dmx9H3TW1Ro3idiB31cK-51">
          <mxGeometry x="101" y="30" width="18" height="18" as="geometry" />
        </mxCell>
        <mxCell id="Dmx9H3TW1Ro3idiB31cK-72" value="" style="whiteSpace=wrap;html=1;aspect=fixed;fillColor=#e1d5e7;strokeColor=#9673a6;container=0;" vertex="1" parent="Dmx9H3TW1Ro3idiB31cK-51">
          <mxGeometry x="83" y="30" width="18" height="18" as="geometry" />
        </mxCell>
        <mxCell id="Dmx9H3TW1Ro3idiB31cK-73" value="" style="whiteSpace=wrap;html=1;aspect=fixed;fillColor=#e1d5e7;strokeColor=#9673a6;container=0;" vertex="1" parent="Dmx9H3TW1Ro3idiB31cK-51">
          <mxGeometry x="66" y="30" width="18" height="18" as="geometry" />
        </mxCell>
        <mxCell id="Dmx9H3TW1Ro3idiB31cK-74" value="" style="whiteSpace=wrap;html=1;aspect=fixed;fillColor=#e1d5e7;strokeColor=#9673a6;container=0;" vertex="1" parent="Dmx9H3TW1Ro3idiB31cK-51">
          <mxGeometry x="30" y="30" width="18" height="18" as="geometry" />
        </mxCell>
        <mxCell id="Dmx9H3TW1Ro3idiB31cK-75" value="" style="whiteSpace=wrap;html=1;aspect=fixed;fillColor=#e1d5e7;strokeColor=#9673a6;container=0;" vertex="1" parent="Dmx9H3TW1Ro3idiB31cK-51">
          <mxGeometry x="48" y="30" width="18" height="18" as="geometry" />
        </mxCell>
        <mxCell id="Dmx9H3TW1Ro3idiB31cK-76" value="" style="whiteSpace=wrap;html=1;aspect=fixed;fillColor=#e1d5e7;strokeColor=#9673a6;container=0;" vertex="1" parent="Dmx9H3TW1Ro3idiB31cK-51">
          <mxGeometry x="99" y="10" width="18" height="18" as="geometry" />
        </mxCell>
        <mxCell id="Dmx9H3TW1Ro3idiB31cK-77" value="" style="whiteSpace=wrap;html=1;aspect=fixed;fillColor=#e1d5e7;strokeColor=#9673a6;container=0;" vertex="1" parent="Dmx9H3TW1Ro3idiB31cK-51">
          <mxGeometry x="81" y="10" width="18" height="18" as="geometry" />
        </mxCell>
        <mxCell id="Dmx9H3TW1Ro3idiB31cK-78" value="" style="whiteSpace=wrap;html=1;aspect=fixed;fillColor=#e1d5e7;strokeColor=#9673a6;container=0;" vertex="1" parent="Dmx9H3TW1Ro3idiB31cK-51">
          <mxGeometry x="63" y="10" width="18" height="18" as="geometry" />
        </mxCell>
        <mxCell id="Dmx9H3TW1Ro3idiB31cK-79" value="" style="whiteSpace=wrap;html=1;aspect=fixed;fillColor=#e1d5e7;strokeColor=#9673a6;container=0;" vertex="1" parent="Dmx9H3TW1Ro3idiB31cK-51">
          <mxGeometry x="46" y="10" width="18" height="18" as="geometry" />
        </mxCell>
        <mxCell id="Dmx9H3TW1Ro3idiB31cK-80" value="" style="whiteSpace=wrap;html=1;aspect=fixed;fillColor=#e1d5e7;strokeColor=#9673a6;container=0;" vertex="1" parent="Dmx9H3TW1Ro3idiB31cK-51">
          <mxGeometry x="10" y="10" width="18" height="18" as="geometry" />
        </mxCell>
        <mxCell id="Dmx9H3TW1Ro3idiB31cK-81" value="" style="whiteSpace=wrap;html=1;aspect=fixed;fillColor=#e1d5e7;strokeColor=#9673a6;container=0;" vertex="1" parent="Dmx9H3TW1Ro3idiB31cK-51">
          <mxGeometry x="28" y="10" width="18" height="18" as="geometry" />
        </mxCell>
        <mxCell id="Dmx9H3TW1Ro3idiB31cK-82" value="" style="whiteSpace=wrap;html=1;aspect=fixed;fillColor=#e1d5e7;strokeColor=#9673a6;container=0;" vertex="1" parent="Dmx9H3TW1Ro3idiB31cK-51">
          <mxGeometry x="109" y="20" width="18" height="18" as="geometry" />
        </mxCell>
        <mxCell id="Dmx9H3TW1Ro3idiB31cK-83" value="" style="whiteSpace=wrap;html=1;aspect=fixed;fillColor=#e1d5e7;strokeColor=#9673a6;container=0;" vertex="1" parent="Dmx9H3TW1Ro3idiB31cK-51">
          <mxGeometry x="91" y="20" width="18" height="18" as="geometry" />
        </mxCell>
        <mxCell id="Dmx9H3TW1Ro3idiB31cK-84" value="" style="whiteSpace=wrap;html=1;aspect=fixed;fillColor=#e1d5e7;strokeColor=#9673a6;container=0;" vertex="1" parent="Dmx9H3TW1Ro3idiB31cK-51">
          <mxGeometry x="73" y="20" width="18" height="18" as="geometry" />
        </mxCell>
        <mxCell id="Dmx9H3TW1Ro3idiB31cK-85" value="" style="whiteSpace=wrap;html=1;aspect=fixed;fillColor=#e1d5e7;strokeColor=#9673a6;container=0;" vertex="1" parent="Dmx9H3TW1Ro3idiB31cK-51">
          <mxGeometry x="56" y="20" width="18" height="18" as="geometry" />
        </mxCell>
        <mxCell id="Dmx9H3TW1Ro3idiB31cK-86" value="" style="whiteSpace=wrap;html=1;aspect=fixed;fillColor=#e1d5e7;strokeColor=#9673a6;container=0;" vertex="1" parent="Dmx9H3TW1Ro3idiB31cK-51">
          <mxGeometry x="20" y="20" width="18" height="18" as="geometry" />
        </mxCell>
        <mxCell id="Dmx9H3TW1Ro3idiB31cK-87" value="" style="whiteSpace=wrap;html=1;aspect=fixed;fillColor=#e1d5e7;strokeColor=#9673a6;container=0;" vertex="1" parent="Dmx9H3TW1Ro3idiB31cK-51">
          <mxGeometry x="38" y="20" width="18" height="18" as="geometry" />
        </mxCell>
        <mxCell id="Dmx9H3TW1Ro3idiB31cK-88" value="" style="whiteSpace=wrap;html=1;aspect=fixed;fillColor=#e1d5e7;strokeColor=#9673a6;container=0;" vertex="1" parent="Dmx9H3TW1Ro3idiB31cK-51">
          <mxGeometry x="119" y="30" width="18" height="18" as="geometry" />
        </mxCell>
        <mxCell id="Dmx9H3TW1Ro3idiB31cK-89" value="" style="whiteSpace=wrap;html=1;aspect=fixed;fillColor=#e1d5e7;strokeColor=#9673a6;container=0;" vertex="1" parent="Dmx9H3TW1Ro3idiB31cK-51">
          <mxGeometry x="101" y="30" width="18" height="18" as="geometry" />
        </mxCell>
        <mxCell id="Dmx9H3TW1Ro3idiB31cK-90" value="" style="whiteSpace=wrap;html=1;aspect=fixed;fillColor=#e1d5e7;strokeColor=#9673a6;container=0;" vertex="1" parent="Dmx9H3TW1Ro3idiB31cK-51">
          <mxGeometry x="83" y="30" width="18" height="18" as="geometry" />
        </mxCell>
        <mxCell id="Dmx9H3TW1Ro3idiB31cK-91" value="" style="whiteSpace=wrap;html=1;aspect=fixed;fillColor=#e1d5e7;strokeColor=#9673a6;container=0;" vertex="1" parent="Dmx9H3TW1Ro3idiB31cK-51">
          <mxGeometry x="66" y="30" width="18" height="18" as="geometry" />
        </mxCell>
        <mxCell id="Dmx9H3TW1Ro3idiB31cK-92" value="" style="whiteSpace=wrap;html=1;aspect=fixed;fillColor=#e1d5e7;strokeColor=#9673a6;container=0;" vertex="1" parent="Dmx9H3TW1Ro3idiB31cK-51">
          <mxGeometry x="30" y="30" width="18" height="18" as="geometry" />
        </mxCell>
        <mxCell id="Dmx9H3TW1Ro3idiB31cK-93" value="" style="whiteSpace=wrap;html=1;aspect=fixed;fillColor=#e1d5e7;strokeColor=#9673a6;container=0;" vertex="1" parent="Dmx9H3TW1Ro3idiB31cK-51">
          <mxGeometry x="48" y="30" width="18" height="18" as="geometry" />
        </mxCell>
        <mxCell id="Dmx9H3TW1Ro3idiB31cK-94" value="" style="whiteSpace=wrap;html=1;aspect=fixed;fillColor=#e1d5e7;strokeColor=#9673a6;container=0;" vertex="1" parent="Dmx9H3TW1Ro3idiB31cK-51">
          <mxGeometry x="129" y="40" width="18" height="18" as="geometry" />
        </mxCell>
        <mxCell id="Dmx9H3TW1Ro3idiB31cK-95" value="" style="whiteSpace=wrap;html=1;aspect=fixed;fillColor=#e1d5e7;strokeColor=#9673a6;container=0;" vertex="1" parent="Dmx9H3TW1Ro3idiB31cK-51">
          <mxGeometry x="111" y="40" width="18" height="18" as="geometry" />
        </mxCell>
        <mxCell id="Dmx9H3TW1Ro3idiB31cK-96" value="" style="whiteSpace=wrap;html=1;aspect=fixed;fillColor=#e1d5e7;strokeColor=#9673a6;container=0;" vertex="1" parent="Dmx9H3TW1Ro3idiB31cK-51">
          <mxGeometry x="93" y="40" width="18" height="18" as="geometry" />
        </mxCell>
        <mxCell id="Dmx9H3TW1Ro3idiB31cK-97" value="" style="whiteSpace=wrap;html=1;aspect=fixed;fillColor=#e1d5e7;strokeColor=#9673a6;container=0;" vertex="1" parent="Dmx9H3TW1Ro3idiB31cK-51">
          <mxGeometry x="76" y="40" width="18" height="18" as="geometry" />
        </mxCell>
        <mxCell id="Dmx9H3TW1Ro3idiB31cK-98" value="" style="whiteSpace=wrap;html=1;aspect=fixed;fillColor=#e1d5e7;strokeColor=#9673a6;container=0;" vertex="1" parent="Dmx9H3TW1Ro3idiB31cK-51">
          <mxGeometry x="40" y="40" width="18" height="18" as="geometry" />
        </mxCell>
        <mxCell id="Dmx9H3TW1Ro3idiB31cK-99" value="" style="whiteSpace=wrap;html=1;aspect=fixed;fillColor=#e1d5e7;strokeColor=#9673a6;container=0;" vertex="1" parent="Dmx9H3TW1Ro3idiB31cK-51">
          <mxGeometry x="58" y="40" width="18" height="18" as="geometry" />
        </mxCell>
        <mxCell id="Dmx9H3TW1Ro3idiB31cK-100" value="" style="endArrow=classic;html=1;rounded=0;exitX=1;exitY=0.5;exitDx=0;exitDy=0;" edge="1" parent="1" source="Dmx9H3TW1Ro3idiB31cK-136">
          <mxGeometry width="50" height="50" relative="1" as="geometry">
            <mxPoint x="532.5" y="691.79" as="sourcePoint" />
            <mxPoint x="670" y="700" as="targetPoint" />
          </mxGeometry>
        </mxCell>
        <mxCell id="Dmx9H3TW1Ro3idiB31cK-101" value="&lt;font style=&quot;font-size: 18px;&quot;&gt;Unsqueeze&lt;/font&gt;" style="edgeLabel;html=1;align=center;verticalAlign=middle;resizable=0;points=[];fontFamily=Times New Roman;fontSize=18;" vertex="1" connectable="0" parent="Dmx9H3TW1Ro3idiB31cK-100">
          <mxGeometry x="-0.2133" y="1" relative="1" as="geometry">
            <mxPoint x="7" y="2" as="offset" />
          </mxGeometry>
        </mxCell>
        <mxCell id="Dmx9H3TW1Ro3idiB31cK-102" value="" style="endArrow=classic;html=1;rounded=0;exitX=0.5;exitY=1;exitDx=0;exitDy=0;entryX=0.713;entryY=-0.022;entryDx=0;entryDy=0;entryPerimeter=0;" edge="1" parent="1" source="Dmx9H3TW1Ro3idiB31cK-371" target="Dmx9H3TW1Ro3idiB31cK-1">
          <mxGeometry width="50" height="50" relative="1" as="geometry">
            <mxPoint x="680" y="750" as="sourcePoint" />
            <mxPoint x="750" y="840" as="targetPoint" />
            <Array as="points" />
          </mxGeometry>
        </mxCell>
        <mxCell id="Dmx9H3TW1Ro3idiB31cK-103" value="&lt;font style=&quot;font-size: 18px;&quot;&gt;Premute&lt;/font&gt;" style="edgeLabel;html=1;align=center;verticalAlign=middle;resizable=0;points=[];fontFamily=Times New Roman;" vertex="1" connectable="0" parent="Dmx9H3TW1Ro3idiB31cK-102">
          <mxGeometry x="0.1" y="1" relative="1" as="geometry">
            <mxPoint x="-1" y="-7" as="offset" />
          </mxGeometry>
        </mxCell>
        <mxCell id="Dmx9H3TW1Ro3idiB31cK-104" value="" style="shape=sumEllipse;perimeter=ellipsePerimeter;whiteSpace=wrap;html=1;backgroundOutline=1;aspect=fixed;" vertex="1" parent="1">
          <mxGeometry x="180" y="682.5" width="15" height="15" as="geometry" />
        </mxCell>
        <mxCell id="Dmx9H3TW1Ro3idiB31cK-105" value="" style="endArrow=classic;html=1;rounded=0;exitX=1;exitY=0.5;exitDx=0;exitDy=0;" edge="1" parent="1" source="Dmx9H3TW1Ro3idiB31cK-104">
          <mxGeometry width="50" height="50" relative="1" as="geometry">
            <mxPoint x="800" y="800" as="sourcePoint" />
            <mxPoint x="220" y="690" as="targetPoint" />
          </mxGeometry>
        </mxCell>
        <mxCell id="Dmx9H3TW1Ro3idiB31cK-106" value="" style="edgeStyle=segmentEdgeStyle;endArrow=classic;html=1;curved=0;rounded=0;endSize=6;startSize=6;entryX=0.5;entryY=0;entryDx=0;entryDy=0;exitX=1;exitY=0.25;exitDx=0;exitDy=0;" edge="1" parent="1" source="Dmx9H3TW1Ro3idiB31cK-410" target="Dmx9H3TW1Ro3idiB31cK-104">
          <mxGeometry width="50" height="50" relative="1" as="geometry">
            <mxPoint x="150" y="610" as="sourcePoint" />
            <mxPoint x="850" y="750" as="targetPoint" />
          </mxGeometry>
        </mxCell>
        <mxCell id="Dmx9H3TW1Ro3idiB31cK-107" value="" style="edgeStyle=segmentEdgeStyle;endArrow=classic;html=1;curved=0;rounded=0;endSize=6;startSize=6;entryX=0.5;entryY=1;entryDx=0;entryDy=0;exitX=1;exitY=0.25;exitDx=0;exitDy=0;" edge="1" parent="1" source="Dmx9H3TW1Ro3idiB31cK-459" target="Dmx9H3TW1Ro3idiB31cK-104">
          <mxGeometry width="50" height="50" relative="1" as="geometry">
            <mxPoint x="170" y="800" as="sourcePoint" />
            <mxPoint x="850" y="750" as="targetPoint" />
          </mxGeometry>
        </mxCell>
        <mxCell id="Dmx9H3TW1Ro3idiB31cK-108" value="&lt;font face=&quot;Times New Roman&quot; style=&quot;font-size: 20px;&quot;&gt;source&lt;/font&gt;" style="text;strokeColor=none;align=center;fillColor=none;html=1;verticalAlign=middle;whiteSpace=wrap;rounded=0;" vertex="1" parent="1">
          <mxGeometry x="35.00999999999999" y="550" width="60" height="30" as="geometry" />
        </mxCell>
        <mxCell id="Dmx9H3TW1Ro3idiB31cK-109" value="&lt;font style=&quot;font-size: 20px;&quot; face=&quot;Times New Roman&quot;&gt;target&lt;/font&gt;" style="text;strokeColor=none;align=center;fillColor=none;html=1;verticalAlign=middle;whiteSpace=wrap;rounded=0;" vertex="1" parent="1">
          <mxGeometry x="35.00999999999999" y="710.13" width="60" height="30" as="geometry" />
        </mxCell>
        <mxCell id="Dmx9H3TW1Ro3idiB31cK-110" value="" style="endArrow=classic;html=1;rounded=0;entryX=1;entryY=0.5;entryDx=0;entryDy=0;exitX=0;exitY=0.5;exitDx=0;exitDy=0;" edge="1" parent="1" source="Dmx9H3TW1Ro3idiB31cK-1" target="Dmx9H3TW1Ro3idiB31cK-218">
          <mxGeometry width="50" height="50" relative="1" as="geometry">
            <mxPoint x="460" y="1030" as="sourcePoint" />
            <mxPoint x="380" y="960" as="targetPoint" />
          </mxGeometry>
        </mxCell>
        <mxCell id="Dmx9H3TW1Ro3idiB31cK-111" value="Premute" style="edgeLabel;html=1;align=center;verticalAlign=middle;resizable=0;points=[];fontFamily=Times New Roman;fontSize=18;" vertex="1" connectable="0" parent="Dmx9H3TW1Ro3idiB31cK-110">
          <mxGeometry x="0.2" y="1" relative="1" as="geometry">
            <mxPoint x="12" y="-1" as="offset" />
          </mxGeometry>
        </mxCell>
        <mxCell id="Dmx9H3TW1Ro3idiB31cK-112" value="&lt;font style=&quot;font-size: 18px;&quot; face=&quot;Times New Roman&quot;&gt;$$C\times N \times M$$&lt;/font&gt;" style="text;strokeColor=none;align=center;fillColor=none;html=1;verticalAlign=middle;whiteSpace=wrap;rounded=0;container=0;" vertex="1" parent="1">
          <mxGeometry x="269.5" y="996.13" width="60" height="30" as="geometry" />
        </mxCell>
        <mxCell id="Dmx9H3TW1Ro3idiB31cK-113" value="&lt;font style=&quot;font-size: 18px;&quot; face=&quot;Times New Roman&quot;&gt;$$1 \times N \times M$$&lt;/font&gt;" style="text;strokeColor=none;align=center;fillColor=none;html=1;verticalAlign=middle;whiteSpace=wrap;rounded=0;container=0;" vertex="1" parent="1">
          <mxGeometry x="40" y="881.88" width="60" height="30" as="geometry" />
        </mxCell>
        <mxCell id="Dmx9H3TW1Ro3idiB31cK-164" value="&lt;font style=&quot;font-size: 18px;&quot; face=&quot;Times New Roman&quot;&gt;kernel&lt;br&gt;size&lt;/font&gt;" style="text;strokeColor=none;align=center;fillColor=none;html=1;verticalAlign=middle;whiteSpace=wrap;rounded=0;" vertex="1" parent="1">
          <mxGeometry x="510" y="930" width="60" height="30" as="geometry" />
        </mxCell>
        <mxCell id="Dmx9H3TW1Ro3idiB31cK-165" value="" style="endArrow=classic;html=1;rounded=0;entryX=1;entryY=0;entryDx=0;entryDy=0;" edge="1" parent="1" target="Dmx9H3TW1Ro3idiB31cK-255">
          <mxGeometry width="50" height="50" relative="1" as="geometry">
            <mxPoint x="220" y="933.13" as="sourcePoint" />
            <mxPoint x="160" y="937.13" as="targetPoint" />
          </mxGeometry>
        </mxCell>
        <mxCell id="Dmx9H3TW1Ro3idiB31cK-166" value="&lt;font style=&quot;font-size: 20px;&quot;&gt;Mean&lt;/font&gt;" style="edgeLabel;html=1;align=center;verticalAlign=middle;resizable=0;points=[];fontFamily=Times New Roman;fontSize=18;" vertex="1" connectable="0" parent="Dmx9H3TW1Ro3idiB31cK-165">
          <mxGeometry x="0.3274" relative="1" as="geometry">
            <mxPoint x="18" y="2" as="offset" />
          </mxGeometry>
        </mxCell>
        <mxCell id="Dmx9H3TW1Ro3idiB31cK-167" value="" style="endArrow=classic;html=1;rounded=0;exitX=0.5;exitY=1;exitDx=0;exitDy=0;entryX=0.75;entryY=0;entryDx=0;entryDy=0;" edge="1" parent="1" source="Dmx9H3TW1Ro3idiB31cK-272" target="Dmx9H3TW1Ro3idiB31cK-276">
          <mxGeometry width="50" height="50" relative="1" as="geometry">
            <mxPoint x="77" y="960.63" as="sourcePoint" />
            <mxPoint x="100" y="1028.13" as="targetPoint" />
          </mxGeometry>
        </mxCell>
        <mxCell id="Dmx9H3TW1Ro3idiB31cK-168" value="&lt;font face=&quot;Times New Roman&quot; style=&quot;font-size: 20px;&quot;&gt;Squeeze&lt;/font&gt;" style="edgeLabel;html=1;align=center;verticalAlign=middle;resizable=0;points=[];" vertex="1" connectable="0" parent="Dmx9H3TW1Ro3idiB31cK-167">
          <mxGeometry x="0.3274" relative="1" as="geometry">
            <mxPoint y="-17" as="offset" />
          </mxGeometry>
        </mxCell>
        <mxCell id="Dmx9H3TW1Ro3idiB31cK-169" value="&lt;font style=&quot;font-size: 18px;&quot; face=&quot;Times New Roman&quot;&gt;$$ N \times M$$&lt;/font&gt;" style="text;strokeColor=none;align=center;fillColor=none;html=1;verticalAlign=middle;whiteSpace=wrap;rounded=0;container=0;" vertex="1" parent="1">
          <mxGeometry x="50" y="1098.13" width="60" height="30" as="geometry" />
        </mxCell>
        <mxCell id="Dmx9H3TW1Ro3idiB31cK-170" value="&lt;font face=&quot;Times New Roman&quot; style=&quot;font-size: 18px;&quot;&gt;$$*$$&lt;/font&gt;" style="text;strokeColor=none;align=center;fillColor=none;html=1;verticalAlign=middle;whiteSpace=wrap;rounded=0;" vertex="1" parent="1">
          <mxGeometry x="695.87" y="930" width="60" height="30" as="geometry" />
        </mxCell>
        <mxCell id="Dmx9H3TW1Ro3idiB31cK-171" value="" style="shape=curlyBracket;whiteSpace=wrap;html=1;rounded=1;flipH=1;labelPosition=right;verticalLabelPosition=middle;align=left;verticalAlign=middle;direction=south;" vertex="1" parent="1">
          <mxGeometry x="587.5" y="890" width="120" height="20" as="geometry" />
        </mxCell>
        <mxCell id="Dmx9H3TW1Ro3idiB31cK-172" value="&lt;font style=&quot;font-size: 18px;&quot; face=&quot;Times New Roman&quot;&gt;C&lt;/font&gt;" style="text;strokeColor=none;align=center;fillColor=none;html=1;verticalAlign=middle;whiteSpace=wrap;rounded=0;" vertex="1" parent="1">
          <mxGeometry x="617.5" y="860" width="60" height="30" as="geometry" />
        </mxCell>
        <mxCell id="Dmx9H3TW1Ro3idiB31cK-173" value="" style="shape=curlyBracket;whiteSpace=wrap;html=1;rounded=1;flipH=1;labelPosition=right;verticalLabelPosition=middle;align=left;verticalAlign=middle;direction=west;" vertex="1" parent="1">
          <mxGeometry x="562.5" y="918.75" width="20" height="52.5" as="geometry" />
        </mxCell>
        <mxCell id="Dmx9H3TW1Ro3idiB31cK-174" value="&lt;font style=&quot;font-size: 20px;&quot; face=&quot;Times New Roman&quot;&gt;Conv1d&lt;/font&gt;" style="text;strokeColor=none;align=center;fillColor=none;html=1;verticalAlign=middle;whiteSpace=wrap;rounded=0;" vertex="1" parent="1">
          <mxGeometry x="542.5" y="1007.38" width="60" height="30" as="geometry" />
        </mxCell>
        <mxCell id="Dmx9H3TW1Ro3idiB31cK-175" value="" style="group" vertex="1" connectable="0" parent="1">
          <mxGeometry x="227" y="888.13" width="147" height="58" as="geometry" />
        </mxCell>
        <mxCell id="Dmx9H3TW1Ro3idiB31cK-176" value="" style="whiteSpace=wrap;html=1;aspect=fixed;fillColor=#A9C4EB;strokeColor=#7EA6E0;container=0;" vertex="1" parent="Dmx9H3TW1Ro3idiB31cK-175">
          <mxGeometry x="89" width="18" height="18" as="geometry" />
        </mxCell>
        <mxCell id="Dmx9H3TW1Ro3idiB31cK-177" value="" style="whiteSpace=wrap;html=1;aspect=fixed;fillColor=#A9C4EB;strokeColor=#7EA6E0;container=0;" vertex="1" parent="Dmx9H3TW1Ro3idiB31cK-175">
          <mxGeometry x="71" width="18" height="18" as="geometry" />
        </mxCell>
        <mxCell id="Dmx9H3TW1Ro3idiB31cK-178" value="" style="whiteSpace=wrap;html=1;aspect=fixed;fillColor=#A9C4EB;strokeColor=#7EA6E0;container=0;" vertex="1" parent="Dmx9H3TW1Ro3idiB31cK-175">
          <mxGeometry x="53" width="18" height="18" as="geometry" />
        </mxCell>
        <mxCell id="Dmx9H3TW1Ro3idiB31cK-179" value="" style="whiteSpace=wrap;html=1;aspect=fixed;fillColor=#A9C4EB;strokeColor=#7EA6E0;container=0;" vertex="1" parent="Dmx9H3TW1Ro3idiB31cK-175">
          <mxGeometry x="36" width="18" height="18" as="geometry" />
        </mxCell>
        <mxCell id="Dmx9H3TW1Ro3idiB31cK-180" value="" style="whiteSpace=wrap;html=1;aspect=fixed;fillColor=#A9C4EB;strokeColor=#7EA6E0;container=0;" vertex="1" parent="Dmx9H3TW1Ro3idiB31cK-175">
          <mxGeometry width="18" height="18" as="geometry" />
        </mxCell>
        <mxCell id="Dmx9H3TW1Ro3idiB31cK-181" value="" style="whiteSpace=wrap;html=1;aspect=fixed;fillColor=#A9C4EB;strokeColor=#7EA6E0;container=0;" vertex="1" parent="Dmx9H3TW1Ro3idiB31cK-175">
          <mxGeometry x="18" width="18" height="18" as="geometry" />
        </mxCell>
        <mxCell id="Dmx9H3TW1Ro3idiB31cK-182" value="" style="whiteSpace=wrap;html=1;aspect=fixed;fillColor=#A9C4EB;strokeColor=#7EA6E0;container=0;" vertex="1" parent="Dmx9H3TW1Ro3idiB31cK-175">
          <mxGeometry x="99" y="10" width="18" height="18" as="geometry" />
        </mxCell>
        <mxCell id="Dmx9H3TW1Ro3idiB31cK-183" value="" style="whiteSpace=wrap;html=1;aspect=fixed;fillColor=#A9C4EB;strokeColor=#7EA6E0;container=0;" vertex="1" parent="Dmx9H3TW1Ro3idiB31cK-175">
          <mxGeometry x="81" y="10" width="18" height="18" as="geometry" />
        </mxCell>
        <mxCell id="Dmx9H3TW1Ro3idiB31cK-184" value="" style="whiteSpace=wrap;html=1;aspect=fixed;fillColor=#A9C4EB;strokeColor=#7EA6E0;container=0;" vertex="1" parent="Dmx9H3TW1Ro3idiB31cK-175">
          <mxGeometry x="63" y="10" width="18" height="18" as="geometry" />
        </mxCell>
        <mxCell id="Dmx9H3TW1Ro3idiB31cK-185" value="" style="whiteSpace=wrap;html=1;aspect=fixed;fillColor=#A9C4EB;strokeColor=#7EA6E0;container=0;" vertex="1" parent="Dmx9H3TW1Ro3idiB31cK-175">
          <mxGeometry x="46" y="10" width="18" height="18" as="geometry" />
        </mxCell>
        <mxCell id="Dmx9H3TW1Ro3idiB31cK-186" value="" style="whiteSpace=wrap;html=1;aspect=fixed;fillColor=#A9C4EB;strokeColor=#7EA6E0;container=0;" vertex="1" parent="Dmx9H3TW1Ro3idiB31cK-175">
          <mxGeometry x="10" y="10" width="18" height="18" as="geometry" />
        </mxCell>
        <mxCell id="Dmx9H3TW1Ro3idiB31cK-187" value="" style="whiteSpace=wrap;html=1;aspect=fixed;fillColor=#A9C4EB;strokeColor=#7EA6E0;container=0;" vertex="1" parent="Dmx9H3TW1Ro3idiB31cK-175">
          <mxGeometry x="28" y="10" width="18" height="18" as="geometry" />
        </mxCell>
        <mxCell id="Dmx9H3TW1Ro3idiB31cK-188" value="" style="whiteSpace=wrap;html=1;aspect=fixed;fillColor=#A9C4EB;strokeColor=#7EA6E0;container=0;" vertex="1" parent="Dmx9H3TW1Ro3idiB31cK-175">
          <mxGeometry x="109" y="20" width="18" height="18" as="geometry" />
        </mxCell>
        <mxCell id="Dmx9H3TW1Ro3idiB31cK-189" value="" style="whiteSpace=wrap;html=1;aspect=fixed;fillColor=#A9C4EB;strokeColor=#7EA6E0;container=0;" vertex="1" parent="Dmx9H3TW1Ro3idiB31cK-175">
          <mxGeometry x="91" y="20" width="18" height="18" as="geometry" />
        </mxCell>
        <mxCell id="Dmx9H3TW1Ro3idiB31cK-190" value="" style="whiteSpace=wrap;html=1;aspect=fixed;fillColor=#A9C4EB;strokeColor=#7EA6E0;container=0;" vertex="1" parent="Dmx9H3TW1Ro3idiB31cK-175">
          <mxGeometry x="73" y="20" width="18" height="18" as="geometry" />
        </mxCell>
        <mxCell id="Dmx9H3TW1Ro3idiB31cK-191" value="" style="whiteSpace=wrap;html=1;aspect=fixed;fillColor=#A9C4EB;strokeColor=#7EA6E0;container=0;" vertex="1" parent="Dmx9H3TW1Ro3idiB31cK-175">
          <mxGeometry x="56" y="20" width="18" height="18" as="geometry" />
        </mxCell>
        <mxCell id="Dmx9H3TW1Ro3idiB31cK-192" value="" style="whiteSpace=wrap;html=1;aspect=fixed;fillColor=#A9C4EB;strokeColor=#7EA6E0;container=0;" vertex="1" parent="Dmx9H3TW1Ro3idiB31cK-175">
          <mxGeometry x="20" y="20" width="18" height="18" as="geometry" />
        </mxCell>
        <mxCell id="Dmx9H3TW1Ro3idiB31cK-193" value="" style="whiteSpace=wrap;html=1;aspect=fixed;fillColor=#A9C4EB;strokeColor=#7EA6E0;container=0;" vertex="1" parent="Dmx9H3TW1Ro3idiB31cK-175">
          <mxGeometry x="38" y="20" width="18" height="18" as="geometry" />
        </mxCell>
        <mxCell id="Dmx9H3TW1Ro3idiB31cK-194" value="" style="whiteSpace=wrap;html=1;aspect=fixed;fillColor=#A9C4EB;strokeColor=#7EA6E0;container=0;" vertex="1" parent="Dmx9H3TW1Ro3idiB31cK-175">
          <mxGeometry x="119" y="30" width="18" height="18" as="geometry" />
        </mxCell>
        <mxCell id="Dmx9H3TW1Ro3idiB31cK-195" value="" style="whiteSpace=wrap;html=1;aspect=fixed;fillColor=#A9C4EB;strokeColor=#7EA6E0;container=0;" vertex="1" parent="Dmx9H3TW1Ro3idiB31cK-175">
          <mxGeometry x="101" y="30" width="18" height="18" as="geometry" />
        </mxCell>
        <mxCell id="Dmx9H3TW1Ro3idiB31cK-196" value="" style="whiteSpace=wrap;html=1;aspect=fixed;fillColor=#A9C4EB;strokeColor=#7EA6E0;container=0;" vertex="1" parent="Dmx9H3TW1Ro3idiB31cK-175">
          <mxGeometry x="83" y="30" width="18" height="18" as="geometry" />
        </mxCell>
        <mxCell id="Dmx9H3TW1Ro3idiB31cK-197" value="" style="whiteSpace=wrap;html=1;aspect=fixed;fillColor=#A9C4EB;strokeColor=#7EA6E0;container=0;" vertex="1" parent="Dmx9H3TW1Ro3idiB31cK-175">
          <mxGeometry x="66" y="30" width="18" height="18" as="geometry" />
        </mxCell>
        <mxCell id="Dmx9H3TW1Ro3idiB31cK-198" value="" style="whiteSpace=wrap;html=1;aspect=fixed;fillColor=#A9C4EB;strokeColor=#7EA6E0;container=0;" vertex="1" parent="Dmx9H3TW1Ro3idiB31cK-175">
          <mxGeometry x="30" y="30" width="18" height="18" as="geometry" />
        </mxCell>
        <mxCell id="Dmx9H3TW1Ro3idiB31cK-199" value="" style="whiteSpace=wrap;html=1;aspect=fixed;fillColor=#A9C4EB;strokeColor=#7EA6E0;container=0;" vertex="1" parent="Dmx9H3TW1Ro3idiB31cK-175">
          <mxGeometry x="48" y="30" width="18" height="18" as="geometry" />
        </mxCell>
        <mxCell id="Dmx9H3TW1Ro3idiB31cK-200" value="" style="whiteSpace=wrap;html=1;aspect=fixed;fillColor=#A9C4EB;strokeColor=#7EA6E0;container=0;" vertex="1" parent="Dmx9H3TW1Ro3idiB31cK-175">
          <mxGeometry x="99" y="10" width="18" height="18" as="geometry" />
        </mxCell>
        <mxCell id="Dmx9H3TW1Ro3idiB31cK-201" value="" style="whiteSpace=wrap;html=1;aspect=fixed;fillColor=#A9C4EB;strokeColor=#7EA6E0;container=0;" vertex="1" parent="Dmx9H3TW1Ro3idiB31cK-175">
          <mxGeometry x="81" y="10" width="18" height="18" as="geometry" />
        </mxCell>
        <mxCell id="Dmx9H3TW1Ro3idiB31cK-202" value="" style="whiteSpace=wrap;html=1;aspect=fixed;fillColor=#A9C4EB;strokeColor=#7EA6E0;container=0;" vertex="1" parent="Dmx9H3TW1Ro3idiB31cK-175">
          <mxGeometry x="63" y="10" width="18" height="18" as="geometry" />
        </mxCell>
        <mxCell id="Dmx9H3TW1Ro3idiB31cK-203" value="" style="whiteSpace=wrap;html=1;aspect=fixed;fillColor=#A9C4EB;strokeColor=#7EA6E0;container=0;" vertex="1" parent="Dmx9H3TW1Ro3idiB31cK-175">
          <mxGeometry x="46" y="10" width="18" height="18" as="geometry" />
        </mxCell>
        <mxCell id="Dmx9H3TW1Ro3idiB31cK-204" value="" style="whiteSpace=wrap;html=1;aspect=fixed;fillColor=#A9C4EB;strokeColor=#7EA6E0;container=0;" vertex="1" parent="Dmx9H3TW1Ro3idiB31cK-175">
          <mxGeometry x="10" y="10" width="18" height="18" as="geometry" />
        </mxCell>
        <mxCell id="Dmx9H3TW1Ro3idiB31cK-205" value="" style="whiteSpace=wrap;html=1;aspect=fixed;fillColor=#A9C4EB;strokeColor=#7EA6E0;container=0;" vertex="1" parent="Dmx9H3TW1Ro3idiB31cK-175">
          <mxGeometry x="28" y="10" width="18" height="18" as="geometry" />
        </mxCell>
        <mxCell id="Dmx9H3TW1Ro3idiB31cK-206" value="" style="whiteSpace=wrap;html=1;aspect=fixed;fillColor=#A9C4EB;strokeColor=#7EA6E0;container=0;" vertex="1" parent="Dmx9H3TW1Ro3idiB31cK-175">
          <mxGeometry x="109" y="20" width="18" height="18" as="geometry" />
        </mxCell>
        <mxCell id="Dmx9H3TW1Ro3idiB31cK-207" value="" style="whiteSpace=wrap;html=1;aspect=fixed;fillColor=#A9C4EB;strokeColor=#7EA6E0;container=0;" vertex="1" parent="Dmx9H3TW1Ro3idiB31cK-175">
          <mxGeometry x="91" y="20" width="18" height="18" as="geometry" />
        </mxCell>
        <mxCell id="Dmx9H3TW1Ro3idiB31cK-208" value="" style="whiteSpace=wrap;html=1;aspect=fixed;fillColor=#A9C4EB;strokeColor=#7EA6E0;container=0;" vertex="1" parent="Dmx9H3TW1Ro3idiB31cK-175">
          <mxGeometry x="73" y="20" width="18" height="18" as="geometry" />
        </mxCell>
        <mxCell id="Dmx9H3TW1Ro3idiB31cK-209" value="" style="whiteSpace=wrap;html=1;aspect=fixed;fillColor=#A9C4EB;strokeColor=#7EA6E0;container=0;" vertex="1" parent="Dmx9H3TW1Ro3idiB31cK-175">
          <mxGeometry x="56" y="20" width="18" height="18" as="geometry" />
        </mxCell>
        <mxCell id="Dmx9H3TW1Ro3idiB31cK-210" value="" style="whiteSpace=wrap;html=1;aspect=fixed;fillColor=#A9C4EB;strokeColor=#7EA6E0;container=0;" vertex="1" parent="Dmx9H3TW1Ro3idiB31cK-175">
          <mxGeometry x="20" y="20" width="18" height="18" as="geometry" />
        </mxCell>
        <mxCell id="Dmx9H3TW1Ro3idiB31cK-211" value="" style="whiteSpace=wrap;html=1;aspect=fixed;fillColor=#A9C4EB;strokeColor=#7EA6E0;container=0;" vertex="1" parent="Dmx9H3TW1Ro3idiB31cK-175">
          <mxGeometry x="38" y="20" width="18" height="18" as="geometry" />
        </mxCell>
        <mxCell id="Dmx9H3TW1Ro3idiB31cK-212" value="" style="whiteSpace=wrap;html=1;aspect=fixed;fillColor=#A9C4EB;strokeColor=#7EA6E0;container=0;" vertex="1" parent="Dmx9H3TW1Ro3idiB31cK-175">
          <mxGeometry x="119" y="30" width="18" height="18" as="geometry" />
        </mxCell>
        <mxCell id="Dmx9H3TW1Ro3idiB31cK-213" value="" style="whiteSpace=wrap;html=1;aspect=fixed;fillColor=#A9C4EB;strokeColor=#7EA6E0;container=0;" vertex="1" parent="Dmx9H3TW1Ro3idiB31cK-175">
          <mxGeometry x="101" y="30" width="18" height="18" as="geometry" />
        </mxCell>
        <mxCell id="Dmx9H3TW1Ro3idiB31cK-214" value="" style="whiteSpace=wrap;html=1;aspect=fixed;fillColor=#A9C4EB;strokeColor=#7EA6E0;container=0;" vertex="1" parent="Dmx9H3TW1Ro3idiB31cK-175">
          <mxGeometry x="83" y="30" width="18" height="18" as="geometry" />
        </mxCell>
        <mxCell id="Dmx9H3TW1Ro3idiB31cK-215" value="" style="whiteSpace=wrap;html=1;aspect=fixed;fillColor=#A9C4EB;strokeColor=#7EA6E0;container=0;" vertex="1" parent="Dmx9H3TW1Ro3idiB31cK-175">
          <mxGeometry x="66" y="30" width="18" height="18" as="geometry" />
        </mxCell>
        <mxCell id="Dmx9H3TW1Ro3idiB31cK-216" value="" style="whiteSpace=wrap;html=1;aspect=fixed;fillColor=#A9C4EB;strokeColor=#7EA6E0;container=0;" vertex="1" parent="Dmx9H3TW1Ro3idiB31cK-175">
          <mxGeometry x="30" y="30" width="18" height="18" as="geometry" />
        </mxCell>
        <mxCell id="Dmx9H3TW1Ro3idiB31cK-217" value="" style="whiteSpace=wrap;html=1;aspect=fixed;fillColor=#A9C4EB;strokeColor=#7EA6E0;container=0;" vertex="1" parent="Dmx9H3TW1Ro3idiB31cK-175">
          <mxGeometry x="48" y="30" width="18" height="18" as="geometry" />
        </mxCell>
        <mxCell id="Dmx9H3TW1Ro3idiB31cK-218" value="" style="whiteSpace=wrap;html=1;aspect=fixed;fillColor=#A9C4EB;strokeColor=#7EA6E0;container=0;" vertex="1" parent="Dmx9H3TW1Ro3idiB31cK-175">
          <mxGeometry x="129" y="40" width="18" height="18" as="geometry" />
        </mxCell>
        <mxCell id="Dmx9H3TW1Ro3idiB31cK-219" value="" style="whiteSpace=wrap;html=1;aspect=fixed;fillColor=#A9C4EB;strokeColor=#7EA6E0;container=0;" vertex="1" parent="Dmx9H3TW1Ro3idiB31cK-175">
          <mxGeometry x="111" y="40" width="18" height="18" as="geometry" />
        </mxCell>
        <mxCell id="Dmx9H3TW1Ro3idiB31cK-220" value="" style="whiteSpace=wrap;html=1;aspect=fixed;fillColor=#A9C4EB;strokeColor=#7EA6E0;container=0;" vertex="1" parent="Dmx9H3TW1Ro3idiB31cK-175">
          <mxGeometry x="93" y="40" width="18" height="18" as="geometry" />
        </mxCell>
        <mxCell id="Dmx9H3TW1Ro3idiB31cK-221" value="" style="whiteSpace=wrap;html=1;aspect=fixed;fillColor=#A9C4EB;strokeColor=#7EA6E0;container=0;" vertex="1" parent="Dmx9H3TW1Ro3idiB31cK-175">
          <mxGeometry x="76" y="40" width="18" height="18" as="geometry" />
        </mxCell>
        <mxCell id="Dmx9H3TW1Ro3idiB31cK-222" value="" style="whiteSpace=wrap;html=1;aspect=fixed;fillColor=#A9C4EB;strokeColor=#7EA6E0;container=0;" vertex="1" parent="Dmx9H3TW1Ro3idiB31cK-175">
          <mxGeometry x="40" y="40" width="18" height="18" as="geometry" />
        </mxCell>
        <mxCell id="Dmx9H3TW1Ro3idiB31cK-223" value="" style="whiteSpace=wrap;html=1;aspect=fixed;fillColor=#A9C4EB;strokeColor=#7EA6E0;container=0;" vertex="1" parent="Dmx9H3TW1Ro3idiB31cK-175">
          <mxGeometry x="58" y="40" width="18" height="18" as="geometry" />
        </mxCell>
        <mxCell id="Dmx9H3TW1Ro3idiB31cK-224" value="" style="group" vertex="1" connectable="0" parent="1">
          <mxGeometry x="6.5" y="913.13" width="147" height="58" as="geometry" />
        </mxCell>
        <mxCell id="Dmx9H3TW1Ro3idiB31cK-225" value="" style="whiteSpace=wrap;html=1;aspect=fixed;fillColor=#f8cecc;strokeColor=#b85450;container=0;" vertex="1" parent="Dmx9H3TW1Ro3idiB31cK-224">
          <mxGeometry x="89" width="18" height="18" as="geometry" />
        </mxCell>
        <mxCell id="Dmx9H3TW1Ro3idiB31cK-226" value="" style="whiteSpace=wrap;html=1;aspect=fixed;fillColor=#f8cecc;strokeColor=#b85450;container=0;" vertex="1" parent="Dmx9H3TW1Ro3idiB31cK-224">
          <mxGeometry x="71" width="18" height="18" as="geometry" />
        </mxCell>
        <mxCell id="Dmx9H3TW1Ro3idiB31cK-227" value="" style="whiteSpace=wrap;html=1;aspect=fixed;fillColor=#f8cecc;strokeColor=#b85450;container=0;" vertex="1" parent="Dmx9H3TW1Ro3idiB31cK-224">
          <mxGeometry x="53" width="18" height="18" as="geometry" />
        </mxCell>
        <mxCell id="Dmx9H3TW1Ro3idiB31cK-228" value="" style="whiteSpace=wrap;html=1;aspect=fixed;fillColor=#f8cecc;strokeColor=#b85450;container=0;" vertex="1" parent="Dmx9H3TW1Ro3idiB31cK-224">
          <mxGeometry x="36" width="18" height="18" as="geometry" />
        </mxCell>
        <mxCell id="Dmx9H3TW1Ro3idiB31cK-229" value="" style="whiteSpace=wrap;html=1;aspect=fixed;fillColor=#f8cecc;strokeColor=#b85450;container=0;" vertex="1" parent="Dmx9H3TW1Ro3idiB31cK-224">
          <mxGeometry width="18" height="18" as="geometry" />
        </mxCell>
        <mxCell id="Dmx9H3TW1Ro3idiB31cK-230" value="" style="whiteSpace=wrap;html=1;aspect=fixed;fillColor=#f8cecc;strokeColor=#b85450;container=0;" vertex="1" parent="Dmx9H3TW1Ro3idiB31cK-224">
          <mxGeometry x="18" width="18" height="18" as="geometry" />
        </mxCell>
        <mxCell id="Dmx9H3TW1Ro3idiB31cK-231" value="" style="whiteSpace=wrap;html=1;aspect=fixed;fillColor=#f8cecc;strokeColor=#b85450;container=0;" vertex="1" parent="Dmx9H3TW1Ro3idiB31cK-224">
          <mxGeometry x="99" y="10" width="18" height="18" as="geometry" />
        </mxCell>
        <mxCell id="Dmx9H3TW1Ro3idiB31cK-232" value="" style="whiteSpace=wrap;html=1;aspect=fixed;fillColor=#f8cecc;strokeColor=#b85450;container=0;" vertex="1" parent="Dmx9H3TW1Ro3idiB31cK-224">
          <mxGeometry x="81" y="10" width="18" height="18" as="geometry" />
        </mxCell>
        <mxCell id="Dmx9H3TW1Ro3idiB31cK-233" value="" style="whiteSpace=wrap;html=1;aspect=fixed;fillColor=#f8cecc;strokeColor=#b85450;container=0;" vertex="1" parent="Dmx9H3TW1Ro3idiB31cK-224">
          <mxGeometry x="63" y="10" width="18" height="18" as="geometry" />
        </mxCell>
        <mxCell id="Dmx9H3TW1Ro3idiB31cK-234" value="" style="whiteSpace=wrap;html=1;aspect=fixed;fillColor=#f8cecc;strokeColor=#b85450;container=0;" vertex="1" parent="Dmx9H3TW1Ro3idiB31cK-224">
          <mxGeometry x="46" y="10" width="18" height="18" as="geometry" />
        </mxCell>
        <mxCell id="Dmx9H3TW1Ro3idiB31cK-235" value="" style="whiteSpace=wrap;html=1;aspect=fixed;fillColor=#f8cecc;strokeColor=#b85450;container=0;" vertex="1" parent="Dmx9H3TW1Ro3idiB31cK-224">
          <mxGeometry x="10" y="10" width="18" height="18" as="geometry" />
        </mxCell>
        <mxCell id="Dmx9H3TW1Ro3idiB31cK-236" value="" style="whiteSpace=wrap;html=1;aspect=fixed;fillColor=#f8cecc;strokeColor=#b85450;container=0;" vertex="1" parent="Dmx9H3TW1Ro3idiB31cK-224">
          <mxGeometry x="28" y="10" width="18" height="18" as="geometry" />
        </mxCell>
        <mxCell id="Dmx9H3TW1Ro3idiB31cK-237" value="" style="whiteSpace=wrap;html=1;aspect=fixed;fillColor=#f8cecc;strokeColor=#b85450;container=0;" vertex="1" parent="Dmx9H3TW1Ro3idiB31cK-224">
          <mxGeometry x="109" y="20" width="18" height="18" as="geometry" />
        </mxCell>
        <mxCell id="Dmx9H3TW1Ro3idiB31cK-238" value="" style="whiteSpace=wrap;html=1;aspect=fixed;fillColor=#f8cecc;strokeColor=#b85450;container=0;" vertex="1" parent="Dmx9H3TW1Ro3idiB31cK-224">
          <mxGeometry x="91" y="20" width="18" height="18" as="geometry" />
        </mxCell>
        <mxCell id="Dmx9H3TW1Ro3idiB31cK-239" value="" style="whiteSpace=wrap;html=1;aspect=fixed;fillColor=#f8cecc;strokeColor=#b85450;container=0;" vertex="1" parent="Dmx9H3TW1Ro3idiB31cK-224">
          <mxGeometry x="73" y="20" width="18" height="18" as="geometry" />
        </mxCell>
        <mxCell id="Dmx9H3TW1Ro3idiB31cK-240" value="" style="whiteSpace=wrap;html=1;aspect=fixed;fillColor=#f8cecc;strokeColor=#b85450;container=0;" vertex="1" parent="Dmx9H3TW1Ro3idiB31cK-224">
          <mxGeometry x="56" y="20" width="18" height="18" as="geometry" />
        </mxCell>
        <mxCell id="Dmx9H3TW1Ro3idiB31cK-241" value="" style="whiteSpace=wrap;html=1;aspect=fixed;fillColor=#f8cecc;strokeColor=#b85450;container=0;" vertex="1" parent="Dmx9H3TW1Ro3idiB31cK-224">
          <mxGeometry x="20" y="20" width="18" height="18" as="geometry" />
        </mxCell>
        <mxCell id="Dmx9H3TW1Ro3idiB31cK-242" value="" style="whiteSpace=wrap;html=1;aspect=fixed;fillColor=#f8cecc;strokeColor=#b85450;container=0;" vertex="1" parent="Dmx9H3TW1Ro3idiB31cK-224">
          <mxGeometry x="38" y="20" width="18" height="18" as="geometry" />
        </mxCell>
        <mxCell id="Dmx9H3TW1Ro3idiB31cK-243" value="" style="whiteSpace=wrap;html=1;aspect=fixed;fillColor=#f8cecc;strokeColor=#b85450;container=0;" vertex="1" parent="Dmx9H3TW1Ro3idiB31cK-224">
          <mxGeometry x="119" y="30" width="18" height="18" as="geometry" />
        </mxCell>
        <mxCell id="Dmx9H3TW1Ro3idiB31cK-244" value="" style="whiteSpace=wrap;html=1;aspect=fixed;fillColor=#f8cecc;strokeColor=#b85450;container=0;" vertex="1" parent="Dmx9H3TW1Ro3idiB31cK-224">
          <mxGeometry x="101" y="30" width="18" height="18" as="geometry" />
        </mxCell>
        <mxCell id="Dmx9H3TW1Ro3idiB31cK-245" value="" style="whiteSpace=wrap;html=1;aspect=fixed;fillColor=#f8cecc;strokeColor=#b85450;container=0;" vertex="1" parent="Dmx9H3TW1Ro3idiB31cK-224">
          <mxGeometry x="83" y="30" width="18" height="18" as="geometry" />
        </mxCell>
        <mxCell id="Dmx9H3TW1Ro3idiB31cK-246" value="" style="whiteSpace=wrap;html=1;aspect=fixed;fillColor=#f8cecc;strokeColor=#b85450;container=0;" vertex="1" parent="Dmx9H3TW1Ro3idiB31cK-224">
          <mxGeometry x="66" y="30" width="18" height="18" as="geometry" />
        </mxCell>
        <mxCell id="Dmx9H3TW1Ro3idiB31cK-247" value="" style="whiteSpace=wrap;html=1;aspect=fixed;fillColor=#f8cecc;strokeColor=#b85450;container=0;" vertex="1" parent="Dmx9H3TW1Ro3idiB31cK-224">
          <mxGeometry x="30" y="30" width="18" height="18" as="geometry" />
        </mxCell>
        <mxCell id="Dmx9H3TW1Ro3idiB31cK-248" value="" style="whiteSpace=wrap;html=1;aspect=fixed;fillColor=#f8cecc;strokeColor=#b85450;container=0;" vertex="1" parent="Dmx9H3TW1Ro3idiB31cK-224">
          <mxGeometry x="48" y="30" width="18" height="18" as="geometry" />
        </mxCell>
        <mxCell id="Dmx9H3TW1Ro3idiB31cK-249" value="" style="whiteSpace=wrap;html=1;aspect=fixed;fillColor=#f8cecc;strokeColor=#b85450;container=0;" vertex="1" parent="Dmx9H3TW1Ro3idiB31cK-224">
          <mxGeometry x="99" y="10" width="18" height="18" as="geometry" />
        </mxCell>
        <mxCell id="Dmx9H3TW1Ro3idiB31cK-250" value="" style="whiteSpace=wrap;html=1;aspect=fixed;fillColor=#f8cecc;strokeColor=#b85450;container=0;" vertex="1" parent="Dmx9H3TW1Ro3idiB31cK-224">
          <mxGeometry x="81" y="10" width="18" height="18" as="geometry" />
        </mxCell>
        <mxCell id="Dmx9H3TW1Ro3idiB31cK-251" value="" style="whiteSpace=wrap;html=1;aspect=fixed;fillColor=#f8cecc;strokeColor=#b85450;container=0;" vertex="1" parent="Dmx9H3TW1Ro3idiB31cK-224">
          <mxGeometry x="63" y="10" width="18" height="18" as="geometry" />
        </mxCell>
        <mxCell id="Dmx9H3TW1Ro3idiB31cK-252" value="" style="whiteSpace=wrap;html=1;aspect=fixed;fillColor=#f8cecc;strokeColor=#b85450;container=0;" vertex="1" parent="Dmx9H3TW1Ro3idiB31cK-224">
          <mxGeometry x="46" y="10" width="18" height="18" as="geometry" />
        </mxCell>
        <mxCell id="Dmx9H3TW1Ro3idiB31cK-253" value="" style="whiteSpace=wrap;html=1;aspect=fixed;fillColor=#f8cecc;strokeColor=#b85450;container=0;" vertex="1" parent="Dmx9H3TW1Ro3idiB31cK-224">
          <mxGeometry x="10" y="10" width="18" height="18" as="geometry" />
        </mxCell>
        <mxCell id="Dmx9H3TW1Ro3idiB31cK-254" value="" style="whiteSpace=wrap;html=1;aspect=fixed;fillColor=#f8cecc;strokeColor=#b85450;container=0;" vertex="1" parent="Dmx9H3TW1Ro3idiB31cK-224">
          <mxGeometry x="28" y="10" width="18" height="18" as="geometry" />
        </mxCell>
        <mxCell id="Dmx9H3TW1Ro3idiB31cK-255" value="" style="whiteSpace=wrap;html=1;aspect=fixed;fillColor=#f8cecc;strokeColor=#b85450;container=0;" vertex="1" parent="Dmx9H3TW1Ro3idiB31cK-224">
          <mxGeometry x="109" y="20" width="18" height="18" as="geometry" />
        </mxCell>
        <mxCell id="Dmx9H3TW1Ro3idiB31cK-256" value="" style="whiteSpace=wrap;html=1;aspect=fixed;fillColor=#f8cecc;strokeColor=#b85450;container=0;" vertex="1" parent="Dmx9H3TW1Ro3idiB31cK-224">
          <mxGeometry x="91" y="20" width="18" height="18" as="geometry" />
        </mxCell>
        <mxCell id="Dmx9H3TW1Ro3idiB31cK-257" value="" style="whiteSpace=wrap;html=1;aspect=fixed;fillColor=#f8cecc;strokeColor=#b85450;container=0;" vertex="1" parent="Dmx9H3TW1Ro3idiB31cK-224">
          <mxGeometry x="73" y="20" width="18" height="18" as="geometry" />
        </mxCell>
        <mxCell id="Dmx9H3TW1Ro3idiB31cK-258" value="" style="whiteSpace=wrap;html=1;aspect=fixed;fillColor=#f8cecc;strokeColor=#b85450;container=0;" vertex="1" parent="Dmx9H3TW1Ro3idiB31cK-224">
          <mxGeometry x="56" y="20" width="18" height="18" as="geometry" />
        </mxCell>
        <mxCell id="Dmx9H3TW1Ro3idiB31cK-259" value="" style="whiteSpace=wrap;html=1;aspect=fixed;fillColor=#f8cecc;strokeColor=#b85450;container=0;" vertex="1" parent="Dmx9H3TW1Ro3idiB31cK-224">
          <mxGeometry x="20" y="20" width="18" height="18" as="geometry" />
        </mxCell>
        <mxCell id="Dmx9H3TW1Ro3idiB31cK-260" value="" style="whiteSpace=wrap;html=1;aspect=fixed;fillColor=#f8cecc;strokeColor=#b85450;container=0;" vertex="1" parent="Dmx9H3TW1Ro3idiB31cK-224">
          <mxGeometry x="38" y="20" width="18" height="18" as="geometry" />
        </mxCell>
        <mxCell id="Dmx9H3TW1Ro3idiB31cK-261" value="" style="whiteSpace=wrap;html=1;aspect=fixed;fillColor=#f8cecc;strokeColor=#b85450;container=0;" vertex="1" parent="Dmx9H3TW1Ro3idiB31cK-224">
          <mxGeometry x="119" y="30" width="18" height="18" as="geometry" />
        </mxCell>
        <mxCell id="Dmx9H3TW1Ro3idiB31cK-262" value="" style="whiteSpace=wrap;html=1;aspect=fixed;fillColor=#f8cecc;strokeColor=#b85450;container=0;" vertex="1" parent="Dmx9H3TW1Ro3idiB31cK-224">
          <mxGeometry x="101" y="30" width="18" height="18" as="geometry" />
        </mxCell>
        <mxCell id="Dmx9H3TW1Ro3idiB31cK-263" value="" style="whiteSpace=wrap;html=1;aspect=fixed;fillColor=#f8cecc;strokeColor=#b85450;container=0;" vertex="1" parent="Dmx9H3TW1Ro3idiB31cK-224">
          <mxGeometry x="83" y="30" width="18" height="18" as="geometry" />
        </mxCell>
        <mxCell id="Dmx9H3TW1Ro3idiB31cK-264" value="" style="whiteSpace=wrap;html=1;aspect=fixed;fillColor=#f8cecc;strokeColor=#b85450;container=0;" vertex="1" parent="Dmx9H3TW1Ro3idiB31cK-224">
          <mxGeometry x="66" y="30" width="18" height="18" as="geometry" />
        </mxCell>
        <mxCell id="Dmx9H3TW1Ro3idiB31cK-265" value="" style="whiteSpace=wrap;html=1;aspect=fixed;fillColor=#f8cecc;strokeColor=#b85450;container=0;" vertex="1" parent="Dmx9H3TW1Ro3idiB31cK-224">
          <mxGeometry x="30" y="30" width="18" height="18" as="geometry" />
        </mxCell>
        <mxCell id="Dmx9H3TW1Ro3idiB31cK-266" value="" style="whiteSpace=wrap;html=1;aspect=fixed;fillColor=#f8cecc;strokeColor=#b85450;container=0;" vertex="1" parent="Dmx9H3TW1Ro3idiB31cK-224">
          <mxGeometry x="48" y="30" width="18" height="18" as="geometry" />
        </mxCell>
        <mxCell id="Dmx9H3TW1Ro3idiB31cK-267" value="" style="whiteSpace=wrap;html=1;aspect=fixed;fillColor=#f8cecc;strokeColor=#b85450;container=0;" vertex="1" parent="Dmx9H3TW1Ro3idiB31cK-224">
          <mxGeometry x="129" y="40" width="18" height="18" as="geometry" />
        </mxCell>
        <mxCell id="Dmx9H3TW1Ro3idiB31cK-268" value="" style="whiteSpace=wrap;html=1;aspect=fixed;fillColor=#f8cecc;strokeColor=#b85450;container=0;" vertex="1" parent="Dmx9H3TW1Ro3idiB31cK-224">
          <mxGeometry x="111" y="40" width="18" height="18" as="geometry" />
        </mxCell>
        <mxCell id="Dmx9H3TW1Ro3idiB31cK-269" value="" style="whiteSpace=wrap;html=1;aspect=fixed;fillColor=#f8cecc;strokeColor=#b85450;container=0;" vertex="1" parent="Dmx9H3TW1Ro3idiB31cK-224">
          <mxGeometry x="93" y="40" width="18" height="18" as="geometry" />
        </mxCell>
        <mxCell id="Dmx9H3TW1Ro3idiB31cK-270" value="" style="whiteSpace=wrap;html=1;aspect=fixed;fillColor=#f8cecc;strokeColor=#b85450;container=0;" vertex="1" parent="Dmx9H3TW1Ro3idiB31cK-224">
          <mxGeometry x="76" y="40" width="18" height="18" as="geometry" />
        </mxCell>
        <mxCell id="Dmx9H3TW1Ro3idiB31cK-271" value="" style="whiteSpace=wrap;html=1;aspect=fixed;fillColor=#f8cecc;strokeColor=#b85450;container=0;" vertex="1" parent="Dmx9H3TW1Ro3idiB31cK-224">
          <mxGeometry x="40" y="40" width="18" height="18" as="geometry" />
        </mxCell>
        <mxCell id="Dmx9H3TW1Ro3idiB31cK-272" value="" style="whiteSpace=wrap;html=1;aspect=fixed;fillColor=#f8cecc;strokeColor=#b85450;container=0;" vertex="1" parent="Dmx9H3TW1Ro3idiB31cK-224">
          <mxGeometry x="58" y="40" width="18" height="18" as="geometry" />
        </mxCell>
        <mxCell id="Dmx9H3TW1Ro3idiB31cK-273" value="" style="group" vertex="1" connectable="0" parent="1">
          <mxGeometry x="6.5" y="1040.13" width="147" height="58" as="geometry" />
        </mxCell>
        <mxCell id="Dmx9H3TW1Ro3idiB31cK-274" value="" style="whiteSpace=wrap;html=1;aspect=fixed;fillColor=#9AC7BF;strokeColor=#67ab9f;container=0;" vertex="1" parent="Dmx9H3TW1Ro3idiB31cK-273">
          <mxGeometry x="89" width="18" height="18" as="geometry" />
        </mxCell>
        <mxCell id="Dmx9H3TW1Ro3idiB31cK-275" value="" style="whiteSpace=wrap;html=1;aspect=fixed;fillColor=#9AC7BF;strokeColor=#67ab9f;container=0;" vertex="1" parent="Dmx9H3TW1Ro3idiB31cK-273">
          <mxGeometry x="71" width="18" height="18" as="geometry" />
        </mxCell>
        <mxCell id="Dmx9H3TW1Ro3idiB31cK-276" value="" style="whiteSpace=wrap;html=1;aspect=fixed;fillColor=#9AC7BF;strokeColor=#67ab9f;container=0;" vertex="1" parent="Dmx9H3TW1Ro3idiB31cK-273">
          <mxGeometry x="53" width="18" height="18" as="geometry" />
        </mxCell>
        <mxCell id="Dmx9H3TW1Ro3idiB31cK-277" value="" style="whiteSpace=wrap;html=1;aspect=fixed;fillColor=#9AC7BF;strokeColor=#67ab9f;container=0;" vertex="1" parent="Dmx9H3TW1Ro3idiB31cK-273">
          <mxGeometry x="36" width="18" height="18" as="geometry" />
        </mxCell>
        <mxCell id="Dmx9H3TW1Ro3idiB31cK-278" value="" style="whiteSpace=wrap;html=1;aspect=fixed;fillColor=#9AC7BF;strokeColor=#67ab9f;container=0;" vertex="1" parent="Dmx9H3TW1Ro3idiB31cK-273">
          <mxGeometry width="18" height="18" as="geometry" />
        </mxCell>
        <mxCell id="Dmx9H3TW1Ro3idiB31cK-279" value="" style="whiteSpace=wrap;html=1;aspect=fixed;fillColor=#9AC7BF;strokeColor=#67ab9f;container=0;" vertex="1" parent="Dmx9H3TW1Ro3idiB31cK-273">
          <mxGeometry x="18" width="18" height="18" as="geometry" />
        </mxCell>
        <mxCell id="Dmx9H3TW1Ro3idiB31cK-280" value="" style="whiteSpace=wrap;html=1;aspect=fixed;fillColor=#9AC7BF;strokeColor=#67ab9f;container=0;" vertex="1" parent="Dmx9H3TW1Ro3idiB31cK-273">
          <mxGeometry x="99" y="10" width="18" height="18" as="geometry" />
        </mxCell>
        <mxCell id="Dmx9H3TW1Ro3idiB31cK-281" value="" style="whiteSpace=wrap;html=1;aspect=fixed;fillColor=#9AC7BF;strokeColor=#67ab9f;container=0;" vertex="1" parent="Dmx9H3TW1Ro3idiB31cK-273">
          <mxGeometry x="81" y="10" width="18" height="18" as="geometry" />
        </mxCell>
        <mxCell id="Dmx9H3TW1Ro3idiB31cK-282" value="" style="whiteSpace=wrap;html=1;aspect=fixed;fillColor=#9AC7BF;strokeColor=#67ab9f;container=0;" vertex="1" parent="Dmx9H3TW1Ro3idiB31cK-273">
          <mxGeometry x="63" y="10" width="18" height="18" as="geometry" />
        </mxCell>
        <mxCell id="Dmx9H3TW1Ro3idiB31cK-283" value="" style="whiteSpace=wrap;html=1;aspect=fixed;fillColor=#9AC7BF;strokeColor=#67ab9f;container=0;" vertex="1" parent="Dmx9H3TW1Ro3idiB31cK-273">
          <mxGeometry x="46" y="10" width="18" height="18" as="geometry" />
        </mxCell>
        <mxCell id="Dmx9H3TW1Ro3idiB31cK-284" value="" style="whiteSpace=wrap;html=1;aspect=fixed;fillColor=#9AC7BF;strokeColor=#67ab9f;container=0;" vertex="1" parent="Dmx9H3TW1Ro3idiB31cK-273">
          <mxGeometry x="10" y="10" width="18" height="18" as="geometry" />
        </mxCell>
        <mxCell id="Dmx9H3TW1Ro3idiB31cK-285" value="" style="whiteSpace=wrap;html=1;aspect=fixed;fillColor=#9AC7BF;strokeColor=#67ab9f;container=0;" vertex="1" parent="Dmx9H3TW1Ro3idiB31cK-273">
          <mxGeometry x="28" y="10" width="18" height="18" as="geometry" />
        </mxCell>
        <mxCell id="Dmx9H3TW1Ro3idiB31cK-286" value="" style="whiteSpace=wrap;html=1;aspect=fixed;fillColor=#9AC7BF;strokeColor=#67ab9f;container=0;" vertex="1" parent="Dmx9H3TW1Ro3idiB31cK-273">
          <mxGeometry x="109" y="20" width="18" height="18" as="geometry" />
        </mxCell>
        <mxCell id="Dmx9H3TW1Ro3idiB31cK-287" value="" style="whiteSpace=wrap;html=1;aspect=fixed;fillColor=#9AC7BF;strokeColor=#67ab9f;container=0;" vertex="1" parent="Dmx9H3TW1Ro3idiB31cK-273">
          <mxGeometry x="91" y="20" width="18" height="18" as="geometry" />
        </mxCell>
        <mxCell id="Dmx9H3TW1Ro3idiB31cK-288" value="" style="whiteSpace=wrap;html=1;aspect=fixed;fillColor=#9AC7BF;strokeColor=#67ab9f;container=0;" vertex="1" parent="Dmx9H3TW1Ro3idiB31cK-273">
          <mxGeometry x="73" y="20" width="18" height="18" as="geometry" />
        </mxCell>
        <mxCell id="Dmx9H3TW1Ro3idiB31cK-289" value="" style="whiteSpace=wrap;html=1;aspect=fixed;fillColor=#9AC7BF;strokeColor=#67ab9f;container=0;" vertex="1" parent="Dmx9H3TW1Ro3idiB31cK-273">
          <mxGeometry x="56" y="20" width="18" height="18" as="geometry" />
        </mxCell>
        <mxCell id="Dmx9H3TW1Ro3idiB31cK-290" value="" style="whiteSpace=wrap;html=1;aspect=fixed;fillColor=#9AC7BF;strokeColor=#67ab9f;container=0;" vertex="1" parent="Dmx9H3TW1Ro3idiB31cK-273">
          <mxGeometry x="20" y="20" width="18" height="18" as="geometry" />
        </mxCell>
        <mxCell id="Dmx9H3TW1Ro3idiB31cK-291" value="" style="whiteSpace=wrap;html=1;aspect=fixed;fillColor=#9AC7BF;strokeColor=#67ab9f;container=0;" vertex="1" parent="Dmx9H3TW1Ro3idiB31cK-273">
          <mxGeometry x="38" y="20" width="18" height="18" as="geometry" />
        </mxCell>
        <mxCell id="Dmx9H3TW1Ro3idiB31cK-292" value="" style="whiteSpace=wrap;html=1;aspect=fixed;fillColor=#9AC7BF;strokeColor=#67ab9f;container=0;" vertex="1" parent="Dmx9H3TW1Ro3idiB31cK-273">
          <mxGeometry x="119" y="30" width="18" height="18" as="geometry" />
        </mxCell>
        <mxCell id="Dmx9H3TW1Ro3idiB31cK-293" value="" style="whiteSpace=wrap;html=1;aspect=fixed;fillColor=#9AC7BF;strokeColor=#67ab9f;container=0;" vertex="1" parent="Dmx9H3TW1Ro3idiB31cK-273">
          <mxGeometry x="101" y="30" width="18" height="18" as="geometry" />
        </mxCell>
        <mxCell id="Dmx9H3TW1Ro3idiB31cK-294" value="" style="whiteSpace=wrap;html=1;aspect=fixed;fillColor=#9AC7BF;strokeColor=#67ab9f;container=0;" vertex="1" parent="Dmx9H3TW1Ro3idiB31cK-273">
          <mxGeometry x="83" y="30" width="18" height="18" as="geometry" />
        </mxCell>
        <mxCell id="Dmx9H3TW1Ro3idiB31cK-295" value="" style="whiteSpace=wrap;html=1;aspect=fixed;fillColor=#9AC7BF;strokeColor=#67ab9f;container=0;" vertex="1" parent="Dmx9H3TW1Ro3idiB31cK-273">
          <mxGeometry x="66" y="30" width="18" height="18" as="geometry" />
        </mxCell>
        <mxCell id="Dmx9H3TW1Ro3idiB31cK-296" value="" style="whiteSpace=wrap;html=1;aspect=fixed;fillColor=#9AC7BF;strokeColor=#67ab9f;container=0;" vertex="1" parent="Dmx9H3TW1Ro3idiB31cK-273">
          <mxGeometry x="30" y="30" width="18" height="18" as="geometry" />
        </mxCell>
        <mxCell id="Dmx9H3TW1Ro3idiB31cK-297" value="" style="whiteSpace=wrap;html=1;aspect=fixed;fillColor=#9AC7BF;strokeColor=#67ab9f;container=0;" vertex="1" parent="Dmx9H3TW1Ro3idiB31cK-273">
          <mxGeometry x="48" y="30" width="18" height="18" as="geometry" />
        </mxCell>
        <mxCell id="Dmx9H3TW1Ro3idiB31cK-298" value="" style="whiteSpace=wrap;html=1;aspect=fixed;fillColor=#9AC7BF;strokeColor=#67ab9f;container=0;" vertex="1" parent="Dmx9H3TW1Ro3idiB31cK-273">
          <mxGeometry x="99" y="10" width="18" height="18" as="geometry" />
        </mxCell>
        <mxCell id="Dmx9H3TW1Ro3idiB31cK-299" value="" style="whiteSpace=wrap;html=1;aspect=fixed;fillColor=#9AC7BF;strokeColor=#67ab9f;container=0;" vertex="1" parent="Dmx9H3TW1Ro3idiB31cK-273">
          <mxGeometry x="81" y="10" width="18" height="18" as="geometry" />
        </mxCell>
        <mxCell id="Dmx9H3TW1Ro3idiB31cK-300" value="" style="whiteSpace=wrap;html=1;aspect=fixed;fillColor=#9AC7BF;strokeColor=#67ab9f;container=0;" vertex="1" parent="Dmx9H3TW1Ro3idiB31cK-273">
          <mxGeometry x="63" y="10" width="18" height="18" as="geometry" />
        </mxCell>
        <mxCell id="Dmx9H3TW1Ro3idiB31cK-301" value="" style="whiteSpace=wrap;html=1;aspect=fixed;fillColor=#9AC7BF;strokeColor=#67ab9f;container=0;" vertex="1" parent="Dmx9H3TW1Ro3idiB31cK-273">
          <mxGeometry x="46" y="10" width="18" height="18" as="geometry" />
        </mxCell>
        <mxCell id="Dmx9H3TW1Ro3idiB31cK-302" value="" style="whiteSpace=wrap;html=1;aspect=fixed;fillColor=#9AC7BF;strokeColor=#67ab9f;container=0;" vertex="1" parent="Dmx9H3TW1Ro3idiB31cK-273">
          <mxGeometry x="10" y="10" width="18" height="18" as="geometry" />
        </mxCell>
        <mxCell id="Dmx9H3TW1Ro3idiB31cK-303" value="" style="whiteSpace=wrap;html=1;aspect=fixed;fillColor=#9AC7BF;strokeColor=#67ab9f;container=0;" vertex="1" parent="Dmx9H3TW1Ro3idiB31cK-273">
          <mxGeometry x="28" y="10" width="18" height="18" as="geometry" />
        </mxCell>
        <mxCell id="Dmx9H3TW1Ro3idiB31cK-304" value="" style="whiteSpace=wrap;html=1;aspect=fixed;fillColor=#9AC7BF;strokeColor=#67ab9f;container=0;" vertex="1" parent="Dmx9H3TW1Ro3idiB31cK-273">
          <mxGeometry x="109" y="20" width="18" height="18" as="geometry" />
        </mxCell>
        <mxCell id="Dmx9H3TW1Ro3idiB31cK-305" value="" style="whiteSpace=wrap;html=1;aspect=fixed;fillColor=#9AC7BF;strokeColor=#67ab9f;container=0;" vertex="1" parent="Dmx9H3TW1Ro3idiB31cK-273">
          <mxGeometry x="91" y="20" width="18" height="18" as="geometry" />
        </mxCell>
        <mxCell id="Dmx9H3TW1Ro3idiB31cK-306" value="" style="whiteSpace=wrap;html=1;aspect=fixed;fillColor=#9AC7BF;strokeColor=#67ab9f;container=0;" vertex="1" parent="Dmx9H3TW1Ro3idiB31cK-273">
          <mxGeometry x="73" y="20" width="18" height="18" as="geometry" />
        </mxCell>
        <mxCell id="Dmx9H3TW1Ro3idiB31cK-307" value="" style="whiteSpace=wrap;html=1;aspect=fixed;fillColor=#9AC7BF;strokeColor=#67ab9f;container=0;" vertex="1" parent="Dmx9H3TW1Ro3idiB31cK-273">
          <mxGeometry x="56" y="20" width="18" height="18" as="geometry" />
        </mxCell>
        <mxCell id="Dmx9H3TW1Ro3idiB31cK-308" value="" style="whiteSpace=wrap;html=1;aspect=fixed;fillColor=#9AC7BF;strokeColor=#67ab9f;container=0;" vertex="1" parent="Dmx9H3TW1Ro3idiB31cK-273">
          <mxGeometry x="20" y="20" width="18" height="18" as="geometry" />
        </mxCell>
        <mxCell id="Dmx9H3TW1Ro3idiB31cK-309" value="" style="whiteSpace=wrap;html=1;aspect=fixed;fillColor=#9AC7BF;strokeColor=#67ab9f;container=0;" vertex="1" parent="Dmx9H3TW1Ro3idiB31cK-273">
          <mxGeometry x="38" y="20" width="18" height="18" as="geometry" />
        </mxCell>
        <mxCell id="Dmx9H3TW1Ro3idiB31cK-310" value="" style="whiteSpace=wrap;html=1;aspect=fixed;fillColor=#9AC7BF;strokeColor=#67ab9f;container=0;" vertex="1" parent="Dmx9H3TW1Ro3idiB31cK-273">
          <mxGeometry x="119" y="30" width="18" height="18" as="geometry" />
        </mxCell>
        <mxCell id="Dmx9H3TW1Ro3idiB31cK-311" value="" style="whiteSpace=wrap;html=1;aspect=fixed;fillColor=#9AC7BF;strokeColor=#67ab9f;container=0;" vertex="1" parent="Dmx9H3TW1Ro3idiB31cK-273">
          <mxGeometry x="101" y="30" width="18" height="18" as="geometry" />
        </mxCell>
        <mxCell id="Dmx9H3TW1Ro3idiB31cK-312" value="" style="whiteSpace=wrap;html=1;aspect=fixed;fillColor=#9AC7BF;strokeColor=#67ab9f;container=0;" vertex="1" parent="Dmx9H3TW1Ro3idiB31cK-273">
          <mxGeometry x="83" y="30" width="18" height="18" as="geometry" />
        </mxCell>
        <mxCell id="Dmx9H3TW1Ro3idiB31cK-313" value="" style="whiteSpace=wrap;html=1;aspect=fixed;fillColor=#9AC7BF;strokeColor=#67ab9f;container=0;" vertex="1" parent="Dmx9H3TW1Ro3idiB31cK-273">
          <mxGeometry x="66" y="30" width="18" height="18" as="geometry" />
        </mxCell>
        <mxCell id="Dmx9H3TW1Ro3idiB31cK-314" value="" style="whiteSpace=wrap;html=1;aspect=fixed;fillColor=#9AC7BF;strokeColor=#67ab9f;container=0;" vertex="1" parent="Dmx9H3TW1Ro3idiB31cK-273">
          <mxGeometry x="30" y="30" width="18" height="18" as="geometry" />
        </mxCell>
        <mxCell id="Dmx9H3TW1Ro3idiB31cK-315" value="" style="whiteSpace=wrap;html=1;aspect=fixed;fillColor=#9AC7BF;strokeColor=#67ab9f;container=0;" vertex="1" parent="Dmx9H3TW1Ro3idiB31cK-273">
          <mxGeometry x="48" y="30" width="18" height="18" as="geometry" />
        </mxCell>
        <mxCell id="Dmx9H3TW1Ro3idiB31cK-316" value="" style="whiteSpace=wrap;html=1;aspect=fixed;fillColor=#9AC7BF;strokeColor=#67ab9f;container=0;" vertex="1" parent="Dmx9H3TW1Ro3idiB31cK-273">
          <mxGeometry x="129" y="40" width="18" height="18" as="geometry" />
        </mxCell>
        <mxCell id="Dmx9H3TW1Ro3idiB31cK-317" value="" style="whiteSpace=wrap;html=1;aspect=fixed;fillColor=#9AC7BF;strokeColor=#67ab9f;container=0;" vertex="1" parent="Dmx9H3TW1Ro3idiB31cK-273">
          <mxGeometry x="111" y="40" width="18" height="18" as="geometry" />
        </mxCell>
        <mxCell id="Dmx9H3TW1Ro3idiB31cK-318" value="" style="whiteSpace=wrap;html=1;aspect=fixed;fillColor=#9AC7BF;strokeColor=#67ab9f;container=0;" vertex="1" parent="Dmx9H3TW1Ro3idiB31cK-273">
          <mxGeometry x="93" y="40" width="18" height="18" as="geometry" />
        </mxCell>
        <mxCell id="Dmx9H3TW1Ro3idiB31cK-319" value="" style="whiteSpace=wrap;html=1;aspect=fixed;fillColor=#9AC7BF;strokeColor=#67ab9f;container=0;" vertex="1" parent="Dmx9H3TW1Ro3idiB31cK-273">
          <mxGeometry x="76" y="40" width="18" height="18" as="geometry" />
        </mxCell>
        <mxCell id="Dmx9H3TW1Ro3idiB31cK-320" value="" style="whiteSpace=wrap;html=1;aspect=fixed;fillColor=#9AC7BF;strokeColor=#67ab9f;container=0;" vertex="1" parent="Dmx9H3TW1Ro3idiB31cK-273">
          <mxGeometry x="40" y="40" width="18" height="18" as="geometry" />
        </mxCell>
        <mxCell id="Dmx9H3TW1Ro3idiB31cK-321" value="" style="whiteSpace=wrap;html=1;aspect=fixed;fillColor=#9AC7BF;strokeColor=#67ab9f;container=0;" vertex="1" parent="Dmx9H3TW1Ro3idiB31cK-273">
          <mxGeometry x="58" y="40" width="18" height="18" as="geometry" />
        </mxCell>
        <mxCell id="Dmx9H3TW1Ro3idiB31cK-322" value="" style="group" vertex="1" connectable="0" parent="1">
          <mxGeometry x="662.37" y="666.5400000000001" width="147" height="58" as="geometry" />
        </mxCell>
        <mxCell id="Dmx9H3TW1Ro3idiB31cK-323" value="" style="whiteSpace=wrap;html=1;aspect=fixed;fillColor=#d5e8d4;strokeColor=#82b366;container=0;" vertex="1" parent="Dmx9H3TW1Ro3idiB31cK-322">
          <mxGeometry x="89" width="18" height="18" as="geometry" />
        </mxCell>
        <mxCell id="Dmx9H3TW1Ro3idiB31cK-324" value="" style="whiteSpace=wrap;html=1;aspect=fixed;fillColor=#d5e8d4;strokeColor=#82b366;container=0;" vertex="1" parent="Dmx9H3TW1Ro3idiB31cK-322">
          <mxGeometry x="71" width="18" height="18" as="geometry" />
        </mxCell>
        <mxCell id="Dmx9H3TW1Ro3idiB31cK-325" value="" style="whiteSpace=wrap;html=1;aspect=fixed;fillColor=#d5e8d4;strokeColor=#82b366;container=0;" vertex="1" parent="Dmx9H3TW1Ro3idiB31cK-322">
          <mxGeometry x="53" width="18" height="18" as="geometry" />
        </mxCell>
        <mxCell id="Dmx9H3TW1Ro3idiB31cK-326" value="" style="whiteSpace=wrap;html=1;aspect=fixed;fillColor=#d5e8d4;strokeColor=#82b366;container=0;" vertex="1" parent="Dmx9H3TW1Ro3idiB31cK-322">
          <mxGeometry x="36" width="18" height="18" as="geometry" />
        </mxCell>
        <mxCell id="Dmx9H3TW1Ro3idiB31cK-327" value="" style="whiteSpace=wrap;html=1;aspect=fixed;fillColor=#d5e8d4;strokeColor=#82b366;container=0;" vertex="1" parent="Dmx9H3TW1Ro3idiB31cK-322">
          <mxGeometry width="18" height="18" as="geometry" />
        </mxCell>
        <mxCell id="Dmx9H3TW1Ro3idiB31cK-328" value="" style="whiteSpace=wrap;html=1;aspect=fixed;fillColor=#d5e8d4;strokeColor=#82b366;container=0;" vertex="1" parent="Dmx9H3TW1Ro3idiB31cK-322">
          <mxGeometry x="18" width="18" height="18" as="geometry" />
        </mxCell>
        <mxCell id="Dmx9H3TW1Ro3idiB31cK-329" value="" style="whiteSpace=wrap;html=1;aspect=fixed;fillColor=#d5e8d4;strokeColor=#82b366;container=0;" vertex="1" parent="Dmx9H3TW1Ro3idiB31cK-322">
          <mxGeometry x="99" y="10" width="18" height="18" as="geometry" />
        </mxCell>
        <mxCell id="Dmx9H3TW1Ro3idiB31cK-330" value="" style="whiteSpace=wrap;html=1;aspect=fixed;fillColor=#d5e8d4;strokeColor=#82b366;container=0;" vertex="1" parent="Dmx9H3TW1Ro3idiB31cK-322">
          <mxGeometry x="81" y="10" width="18" height="18" as="geometry" />
        </mxCell>
        <mxCell id="Dmx9H3TW1Ro3idiB31cK-331" value="" style="whiteSpace=wrap;html=1;aspect=fixed;fillColor=#d5e8d4;strokeColor=#82b366;container=0;" vertex="1" parent="Dmx9H3TW1Ro3idiB31cK-322">
          <mxGeometry x="63" y="10" width="18" height="18" as="geometry" />
        </mxCell>
        <mxCell id="Dmx9H3TW1Ro3idiB31cK-332" value="" style="whiteSpace=wrap;html=1;aspect=fixed;fillColor=#d5e8d4;strokeColor=#82b366;container=0;" vertex="1" parent="Dmx9H3TW1Ro3idiB31cK-322">
          <mxGeometry x="46" y="10" width="18" height="18" as="geometry" />
        </mxCell>
        <mxCell id="Dmx9H3TW1Ro3idiB31cK-333" value="" style="whiteSpace=wrap;html=1;aspect=fixed;fillColor=#d5e8d4;strokeColor=#82b366;container=0;" vertex="1" parent="Dmx9H3TW1Ro3idiB31cK-322">
          <mxGeometry x="10" y="10" width="18" height="18" as="geometry" />
        </mxCell>
        <mxCell id="Dmx9H3TW1Ro3idiB31cK-334" value="" style="whiteSpace=wrap;html=1;aspect=fixed;fillColor=#d5e8d4;strokeColor=#82b366;container=0;" vertex="1" parent="Dmx9H3TW1Ro3idiB31cK-322">
          <mxGeometry x="28" y="10" width="18" height="18" as="geometry" />
        </mxCell>
        <mxCell id="Dmx9H3TW1Ro3idiB31cK-335" value="" style="whiteSpace=wrap;html=1;aspect=fixed;fillColor=#d5e8d4;strokeColor=#82b366;container=0;" vertex="1" parent="Dmx9H3TW1Ro3idiB31cK-322">
          <mxGeometry x="109" y="20" width="18" height="18" as="geometry" />
        </mxCell>
        <mxCell id="Dmx9H3TW1Ro3idiB31cK-336" value="" style="whiteSpace=wrap;html=1;aspect=fixed;fillColor=#d5e8d4;strokeColor=#82b366;container=0;" vertex="1" parent="Dmx9H3TW1Ro3idiB31cK-322">
          <mxGeometry x="91" y="20" width="18" height="18" as="geometry" />
        </mxCell>
        <mxCell id="Dmx9H3TW1Ro3idiB31cK-337" value="" style="whiteSpace=wrap;html=1;aspect=fixed;fillColor=#d5e8d4;strokeColor=#82b366;container=0;" vertex="1" parent="Dmx9H3TW1Ro3idiB31cK-322">
          <mxGeometry x="73" y="20" width="18" height="18" as="geometry" />
        </mxCell>
        <mxCell id="Dmx9H3TW1Ro3idiB31cK-338" value="" style="whiteSpace=wrap;html=1;aspect=fixed;fillColor=#d5e8d4;strokeColor=#82b366;container=0;" vertex="1" parent="Dmx9H3TW1Ro3idiB31cK-322">
          <mxGeometry x="56" y="20" width="18" height="18" as="geometry" />
        </mxCell>
        <mxCell id="Dmx9H3TW1Ro3idiB31cK-339" value="" style="whiteSpace=wrap;html=1;aspect=fixed;fillColor=#d5e8d4;strokeColor=#82b366;container=0;" vertex="1" parent="Dmx9H3TW1Ro3idiB31cK-322">
          <mxGeometry x="20" y="20" width="18" height="18" as="geometry" />
        </mxCell>
        <mxCell id="Dmx9H3TW1Ro3idiB31cK-340" value="" style="whiteSpace=wrap;html=1;aspect=fixed;fillColor=#d5e8d4;strokeColor=#82b366;container=0;" vertex="1" parent="Dmx9H3TW1Ro3idiB31cK-322">
          <mxGeometry x="38" y="20" width="18" height="18" as="geometry" />
        </mxCell>
        <mxCell id="Dmx9H3TW1Ro3idiB31cK-341" value="" style="whiteSpace=wrap;html=1;aspect=fixed;fillColor=#d5e8d4;strokeColor=#82b366;container=0;" vertex="1" parent="Dmx9H3TW1Ro3idiB31cK-322">
          <mxGeometry x="119" y="30" width="18" height="18" as="geometry" />
        </mxCell>
        <mxCell id="Dmx9H3TW1Ro3idiB31cK-342" value="" style="whiteSpace=wrap;html=1;aspect=fixed;fillColor=#d5e8d4;strokeColor=#82b366;container=0;" vertex="1" parent="Dmx9H3TW1Ro3idiB31cK-322">
          <mxGeometry x="101" y="30" width="18" height="18" as="geometry" />
        </mxCell>
        <mxCell id="Dmx9H3TW1Ro3idiB31cK-343" value="" style="whiteSpace=wrap;html=1;aspect=fixed;fillColor=#d5e8d4;strokeColor=#82b366;container=0;" vertex="1" parent="Dmx9H3TW1Ro3idiB31cK-322">
          <mxGeometry x="83" y="30" width="18" height="18" as="geometry" />
        </mxCell>
        <mxCell id="Dmx9H3TW1Ro3idiB31cK-344" value="" style="whiteSpace=wrap;html=1;aspect=fixed;fillColor=#d5e8d4;strokeColor=#82b366;container=0;" vertex="1" parent="Dmx9H3TW1Ro3idiB31cK-322">
          <mxGeometry x="66" y="30" width="18" height="18" as="geometry" />
        </mxCell>
        <mxCell id="Dmx9H3TW1Ro3idiB31cK-345" value="" style="whiteSpace=wrap;html=1;aspect=fixed;fillColor=#d5e8d4;strokeColor=#82b366;container=0;" vertex="1" parent="Dmx9H3TW1Ro3idiB31cK-322">
          <mxGeometry x="30" y="30" width="18" height="18" as="geometry" />
        </mxCell>
        <mxCell id="Dmx9H3TW1Ro3idiB31cK-346" value="" style="whiteSpace=wrap;html=1;aspect=fixed;fillColor=#d5e8d4;strokeColor=#82b366;container=0;" vertex="1" parent="Dmx9H3TW1Ro3idiB31cK-322">
          <mxGeometry x="48" y="30" width="18" height="18" as="geometry" />
        </mxCell>
        <mxCell id="Dmx9H3TW1Ro3idiB31cK-347" value="" style="whiteSpace=wrap;html=1;aspect=fixed;fillColor=#d5e8d4;strokeColor=#82b366;container=0;" vertex="1" parent="Dmx9H3TW1Ro3idiB31cK-322">
          <mxGeometry x="99" y="10" width="18" height="18" as="geometry" />
        </mxCell>
        <mxCell id="Dmx9H3TW1Ro3idiB31cK-348" value="" style="whiteSpace=wrap;html=1;aspect=fixed;fillColor=#d5e8d4;strokeColor=#82b366;container=0;" vertex="1" parent="Dmx9H3TW1Ro3idiB31cK-322">
          <mxGeometry x="81" y="10" width="18" height="18" as="geometry" />
        </mxCell>
        <mxCell id="Dmx9H3TW1Ro3idiB31cK-349" value="" style="whiteSpace=wrap;html=1;aspect=fixed;fillColor=#d5e8d4;strokeColor=#82b366;container=0;" vertex="1" parent="Dmx9H3TW1Ro3idiB31cK-322">
          <mxGeometry x="63" y="10" width="18" height="18" as="geometry" />
        </mxCell>
        <mxCell id="Dmx9H3TW1Ro3idiB31cK-350" value="" style="whiteSpace=wrap;html=1;aspect=fixed;fillColor=#d5e8d4;strokeColor=#82b366;container=0;" vertex="1" parent="Dmx9H3TW1Ro3idiB31cK-322">
          <mxGeometry x="46" y="10" width="18" height="18" as="geometry" />
        </mxCell>
        <mxCell id="Dmx9H3TW1Ro3idiB31cK-351" value="" style="whiteSpace=wrap;html=1;aspect=fixed;fillColor=#d5e8d4;strokeColor=#82b366;container=0;" vertex="1" parent="Dmx9H3TW1Ro3idiB31cK-322">
          <mxGeometry x="10" y="10" width="18" height="18" as="geometry" />
        </mxCell>
        <mxCell id="Dmx9H3TW1Ro3idiB31cK-352" value="" style="whiteSpace=wrap;html=1;aspect=fixed;fillColor=#d5e8d4;strokeColor=#82b366;container=0;" vertex="1" parent="Dmx9H3TW1Ro3idiB31cK-322">
          <mxGeometry x="28" y="10" width="18" height="18" as="geometry" />
        </mxCell>
        <mxCell id="Dmx9H3TW1Ro3idiB31cK-353" value="" style="whiteSpace=wrap;html=1;aspect=fixed;fillColor=#d5e8d4;strokeColor=#82b366;container=0;" vertex="1" parent="Dmx9H3TW1Ro3idiB31cK-322">
          <mxGeometry x="109" y="20" width="18" height="18" as="geometry" />
        </mxCell>
        <mxCell id="Dmx9H3TW1Ro3idiB31cK-354" value="" style="whiteSpace=wrap;html=1;aspect=fixed;fillColor=#d5e8d4;strokeColor=#82b366;container=0;" vertex="1" parent="Dmx9H3TW1Ro3idiB31cK-322">
          <mxGeometry x="91" y="20" width="18" height="18" as="geometry" />
        </mxCell>
        <mxCell id="Dmx9H3TW1Ro3idiB31cK-355" value="" style="whiteSpace=wrap;html=1;aspect=fixed;fillColor=#d5e8d4;strokeColor=#82b366;container=0;" vertex="1" parent="Dmx9H3TW1Ro3idiB31cK-322">
          <mxGeometry x="73" y="20" width="18" height="18" as="geometry" />
        </mxCell>
        <mxCell id="Dmx9H3TW1Ro3idiB31cK-356" value="" style="whiteSpace=wrap;html=1;aspect=fixed;fillColor=#d5e8d4;strokeColor=#82b366;container=0;" vertex="1" parent="Dmx9H3TW1Ro3idiB31cK-322">
          <mxGeometry x="56" y="20" width="18" height="18" as="geometry" />
        </mxCell>
        <mxCell id="Dmx9H3TW1Ro3idiB31cK-357" value="" style="whiteSpace=wrap;html=1;aspect=fixed;fillColor=#d5e8d4;strokeColor=#82b366;container=0;" vertex="1" parent="Dmx9H3TW1Ro3idiB31cK-322">
          <mxGeometry x="20" y="20" width="18" height="18" as="geometry" />
        </mxCell>
        <mxCell id="Dmx9H3TW1Ro3idiB31cK-358" value="" style="whiteSpace=wrap;html=1;aspect=fixed;fillColor=#d5e8d4;strokeColor=#82b366;container=0;" vertex="1" parent="Dmx9H3TW1Ro3idiB31cK-322">
          <mxGeometry x="38" y="20" width="18" height="18" as="geometry" />
        </mxCell>
        <mxCell id="Dmx9H3TW1Ro3idiB31cK-359" value="" style="whiteSpace=wrap;html=1;aspect=fixed;fillColor=#d5e8d4;strokeColor=#82b366;container=0;" vertex="1" parent="Dmx9H3TW1Ro3idiB31cK-322">
          <mxGeometry x="119" y="30" width="18" height="18" as="geometry" />
        </mxCell>
        <mxCell id="Dmx9H3TW1Ro3idiB31cK-360" value="" style="whiteSpace=wrap;html=1;aspect=fixed;fillColor=#d5e8d4;strokeColor=#82b366;container=0;" vertex="1" parent="Dmx9H3TW1Ro3idiB31cK-322">
          <mxGeometry x="101" y="30" width="18" height="18" as="geometry" />
        </mxCell>
        <mxCell id="Dmx9H3TW1Ro3idiB31cK-361" value="" style="whiteSpace=wrap;html=1;aspect=fixed;fillColor=#d5e8d4;strokeColor=#82b366;container=0;" vertex="1" parent="Dmx9H3TW1Ro3idiB31cK-322">
          <mxGeometry x="83" y="30" width="18" height="18" as="geometry" />
        </mxCell>
        <mxCell id="Dmx9H3TW1Ro3idiB31cK-362" value="" style="whiteSpace=wrap;html=1;aspect=fixed;fillColor=#d5e8d4;strokeColor=#82b366;container=0;" vertex="1" parent="Dmx9H3TW1Ro3idiB31cK-322">
          <mxGeometry x="66" y="30" width="18" height="18" as="geometry" />
        </mxCell>
        <mxCell id="Dmx9H3TW1Ro3idiB31cK-363" value="" style="whiteSpace=wrap;html=1;aspect=fixed;fillColor=#d5e8d4;strokeColor=#82b366;container=0;" vertex="1" parent="Dmx9H3TW1Ro3idiB31cK-322">
          <mxGeometry x="30" y="30" width="18" height="18" as="geometry" />
        </mxCell>
        <mxCell id="Dmx9H3TW1Ro3idiB31cK-364" value="" style="whiteSpace=wrap;html=1;aspect=fixed;fillColor=#d5e8d4;strokeColor=#82b366;container=0;" vertex="1" parent="Dmx9H3TW1Ro3idiB31cK-322">
          <mxGeometry x="48" y="30" width="18" height="18" as="geometry" />
        </mxCell>
        <mxCell id="Dmx9H3TW1Ro3idiB31cK-365" value="" style="whiteSpace=wrap;html=1;aspect=fixed;fillColor=#d5e8d4;strokeColor=#82b366;container=0;" vertex="1" parent="Dmx9H3TW1Ro3idiB31cK-322">
          <mxGeometry x="129" y="40" width="18" height="18" as="geometry" />
        </mxCell>
        <mxCell id="Dmx9H3TW1Ro3idiB31cK-366" value="" style="whiteSpace=wrap;html=1;aspect=fixed;fillColor=#d5e8d4;strokeColor=#82b366;container=0;" vertex="1" parent="Dmx9H3TW1Ro3idiB31cK-322">
          <mxGeometry x="111" y="40" width="18" height="18" as="geometry" />
        </mxCell>
        <mxCell id="Dmx9H3TW1Ro3idiB31cK-367" value="" style="whiteSpace=wrap;html=1;aspect=fixed;fillColor=#d5e8d4;strokeColor=#82b366;container=0;" vertex="1" parent="Dmx9H3TW1Ro3idiB31cK-322">
          <mxGeometry x="93" y="40" width="18" height="18" as="geometry" />
        </mxCell>
        <mxCell id="Dmx9H3TW1Ro3idiB31cK-368" value="" style="whiteSpace=wrap;html=1;aspect=fixed;fillColor=#d5e8d4;strokeColor=#82b366;container=0;" vertex="1" parent="Dmx9H3TW1Ro3idiB31cK-322">
          <mxGeometry x="76" y="40" width="18" height="18" as="geometry" />
        </mxCell>
        <mxCell id="Dmx9H3TW1Ro3idiB31cK-369" value="" style="whiteSpace=wrap;html=1;aspect=fixed;fillColor=#d5e8d4;strokeColor=#82b366;container=0;" vertex="1" parent="Dmx9H3TW1Ro3idiB31cK-322">
          <mxGeometry x="40" y="40" width="18" height="18" as="geometry" />
        </mxCell>
        <mxCell id="Dmx9H3TW1Ro3idiB31cK-370" value="" style="whiteSpace=wrap;html=1;aspect=fixed;fillColor=#d5e8d4;strokeColor=#82b366;container=0;" vertex="1" parent="Dmx9H3TW1Ro3idiB31cK-322">
          <mxGeometry x="58" y="40" width="18" height="18" as="geometry" />
        </mxCell>
        <mxCell id="Dmx9H3TW1Ro3idiB31cK-371" value="&lt;font face=&quot;Times New Roman&quot; style=&quot;font-size: 18px;&quot;&gt;$$1 \times N\times M$$&lt;/font&gt;" style="text;strokeColor=none;align=center;fillColor=none;html=1;verticalAlign=middle;whiteSpace=wrap;rounded=0;" vertex="1" parent="1">
          <mxGeometry x="700.8649999999999" y="724.5400000000001" width="65" height="33.75" as="geometry" />
        </mxCell>
        <mxCell id="Dmx9H3TW1Ro3idiB31cK-372" value="&lt;font face=&quot;Times New Roman&quot; style=&quot;font-size: 18px;&quot;&gt;$$N\times M$$&lt;/font&gt;" style="text;strokeColor=none;align=center;fillColor=none;html=1;verticalAlign=middle;whiteSpace=wrap;rounded=0;container=0;" vertex="1" parent="1">
          <mxGeometry x="37.504999999999995" y="638" width="65" height="33.75" as="geometry" />
        </mxCell>
        <mxCell id="Dmx9H3TW1Ro3idiB31cK-373" value="" style="group" vertex="1" connectable="0" parent="1">
          <mxGeometry x="6.5" y="580" width="147" height="58" as="geometry" />
        </mxCell>
        <mxCell id="Dmx9H3TW1Ro3idiB31cK-374" value="" style="whiteSpace=wrap;html=1;aspect=fixed;fillColor=#ffe599;strokeColor=#ffd966;container=0;" vertex="1" parent="Dmx9H3TW1Ro3idiB31cK-373">
          <mxGeometry x="89" width="18" height="18" as="geometry" />
        </mxCell>
        <mxCell id="Dmx9H3TW1Ro3idiB31cK-375" value="" style="whiteSpace=wrap;html=1;aspect=fixed;fillColor=#ffe599;strokeColor=#ffd966;container=0;" vertex="1" parent="Dmx9H3TW1Ro3idiB31cK-373">
          <mxGeometry x="71" width="18" height="18" as="geometry" />
        </mxCell>
        <mxCell id="Dmx9H3TW1Ro3idiB31cK-376" value="" style="whiteSpace=wrap;html=1;aspect=fixed;fillColor=#ffe599;strokeColor=#ffd966;container=0;" vertex="1" parent="Dmx9H3TW1Ro3idiB31cK-373">
          <mxGeometry x="53" width="18" height="18" as="geometry" />
        </mxCell>
        <mxCell id="Dmx9H3TW1Ro3idiB31cK-377" value="" style="whiteSpace=wrap;html=1;aspect=fixed;fillColor=#ffe599;strokeColor=#ffd966;container=0;" vertex="1" parent="Dmx9H3TW1Ro3idiB31cK-373">
          <mxGeometry x="36" width="18" height="18" as="geometry" />
        </mxCell>
        <mxCell id="Dmx9H3TW1Ro3idiB31cK-378" value="" style="whiteSpace=wrap;html=1;aspect=fixed;fillColor=#ffe599;strokeColor=#ffd966;container=0;" vertex="1" parent="Dmx9H3TW1Ro3idiB31cK-373">
          <mxGeometry width="18" height="18" as="geometry" />
        </mxCell>
        <mxCell id="Dmx9H3TW1Ro3idiB31cK-379" value="" style="whiteSpace=wrap;html=1;aspect=fixed;fillColor=#ffe599;strokeColor=#ffd966;container=0;" vertex="1" parent="Dmx9H3TW1Ro3idiB31cK-373">
          <mxGeometry x="18" width="18" height="18" as="geometry" />
        </mxCell>
        <mxCell id="Dmx9H3TW1Ro3idiB31cK-380" value="" style="whiteSpace=wrap;html=1;aspect=fixed;fillColor=#ffe599;strokeColor=#ffd966;container=0;" vertex="1" parent="Dmx9H3TW1Ro3idiB31cK-373">
          <mxGeometry x="99" y="10" width="18" height="18" as="geometry" />
        </mxCell>
        <mxCell id="Dmx9H3TW1Ro3idiB31cK-381" value="" style="whiteSpace=wrap;html=1;aspect=fixed;fillColor=#ffe599;strokeColor=#ffd966;container=0;" vertex="1" parent="Dmx9H3TW1Ro3idiB31cK-373">
          <mxGeometry x="81" y="10" width="18" height="18" as="geometry" />
        </mxCell>
        <mxCell id="Dmx9H3TW1Ro3idiB31cK-382" value="" style="whiteSpace=wrap;html=1;aspect=fixed;fillColor=#ffe599;strokeColor=#ffd966;container=0;" vertex="1" parent="Dmx9H3TW1Ro3idiB31cK-373">
          <mxGeometry x="63" y="10" width="18" height="18" as="geometry" />
        </mxCell>
        <mxCell id="Dmx9H3TW1Ro3idiB31cK-383" value="" style="whiteSpace=wrap;html=1;aspect=fixed;fillColor=#ffe599;strokeColor=#ffd966;container=0;" vertex="1" parent="Dmx9H3TW1Ro3idiB31cK-373">
          <mxGeometry x="46" y="10" width="18" height="18" as="geometry" />
        </mxCell>
        <mxCell id="Dmx9H3TW1Ro3idiB31cK-384" value="" style="whiteSpace=wrap;html=1;aspect=fixed;fillColor=#ffe599;strokeColor=#ffd966;container=0;" vertex="1" parent="Dmx9H3TW1Ro3idiB31cK-373">
          <mxGeometry x="10" y="10" width="18" height="18" as="geometry" />
        </mxCell>
        <mxCell id="Dmx9H3TW1Ro3idiB31cK-385" value="" style="whiteSpace=wrap;html=1;aspect=fixed;fillColor=#ffe599;strokeColor=#ffd966;container=0;" vertex="1" parent="Dmx9H3TW1Ro3idiB31cK-373">
          <mxGeometry x="28" y="10" width="18" height="18" as="geometry" />
        </mxCell>
        <mxCell id="Dmx9H3TW1Ro3idiB31cK-386" value="" style="whiteSpace=wrap;html=1;aspect=fixed;fillColor=#ffe599;strokeColor=#ffd966;container=0;" vertex="1" parent="Dmx9H3TW1Ro3idiB31cK-373">
          <mxGeometry x="109" y="20" width="18" height="18" as="geometry" />
        </mxCell>
        <mxCell id="Dmx9H3TW1Ro3idiB31cK-387" value="" style="whiteSpace=wrap;html=1;aspect=fixed;fillColor=#ffe599;strokeColor=#ffd966;container=0;" vertex="1" parent="Dmx9H3TW1Ro3idiB31cK-373">
          <mxGeometry x="91" y="20" width="18" height="18" as="geometry" />
        </mxCell>
        <mxCell id="Dmx9H3TW1Ro3idiB31cK-388" value="" style="whiteSpace=wrap;html=1;aspect=fixed;fillColor=#ffe599;strokeColor=#ffd966;container=0;" vertex="1" parent="Dmx9H3TW1Ro3idiB31cK-373">
          <mxGeometry x="73" y="20" width="18" height="18" as="geometry" />
        </mxCell>
        <mxCell id="Dmx9H3TW1Ro3idiB31cK-389" value="" style="whiteSpace=wrap;html=1;aspect=fixed;fillColor=#ffe599;strokeColor=#ffd966;container=0;" vertex="1" parent="Dmx9H3TW1Ro3idiB31cK-373">
          <mxGeometry x="56" y="20" width="18" height="18" as="geometry" />
        </mxCell>
        <mxCell id="Dmx9H3TW1Ro3idiB31cK-390" value="" style="whiteSpace=wrap;html=1;aspect=fixed;fillColor=#ffe599;strokeColor=#ffd966;container=0;" vertex="1" parent="Dmx9H3TW1Ro3idiB31cK-373">
          <mxGeometry x="20" y="20" width="18" height="18" as="geometry" />
        </mxCell>
        <mxCell id="Dmx9H3TW1Ro3idiB31cK-391" value="" style="whiteSpace=wrap;html=1;aspect=fixed;fillColor=#ffe599;strokeColor=#ffd966;container=0;" vertex="1" parent="Dmx9H3TW1Ro3idiB31cK-373">
          <mxGeometry x="38" y="20" width="18" height="18" as="geometry" />
        </mxCell>
        <mxCell id="Dmx9H3TW1Ro3idiB31cK-392" value="" style="whiteSpace=wrap;html=1;aspect=fixed;fillColor=#ffe599;strokeColor=#ffd966;container=0;" vertex="1" parent="Dmx9H3TW1Ro3idiB31cK-373">
          <mxGeometry x="119" y="30" width="18" height="18" as="geometry" />
        </mxCell>
        <mxCell id="Dmx9H3TW1Ro3idiB31cK-393" value="" style="whiteSpace=wrap;html=1;aspect=fixed;fillColor=#ffe599;strokeColor=#ffd966;container=0;" vertex="1" parent="Dmx9H3TW1Ro3idiB31cK-373">
          <mxGeometry x="101" y="30" width="18" height="18" as="geometry" />
        </mxCell>
        <mxCell id="Dmx9H3TW1Ro3idiB31cK-394" value="" style="whiteSpace=wrap;html=1;aspect=fixed;fillColor=#ffe599;strokeColor=#ffd966;container=0;" vertex="1" parent="Dmx9H3TW1Ro3idiB31cK-373">
          <mxGeometry x="83" y="30" width="18" height="18" as="geometry" />
        </mxCell>
        <mxCell id="Dmx9H3TW1Ro3idiB31cK-395" value="" style="whiteSpace=wrap;html=1;aspect=fixed;fillColor=#ffe599;strokeColor=#ffd966;container=0;" vertex="1" parent="Dmx9H3TW1Ro3idiB31cK-373">
          <mxGeometry x="66" y="30" width="18" height="18" as="geometry" />
        </mxCell>
        <mxCell id="Dmx9H3TW1Ro3idiB31cK-396" value="" style="whiteSpace=wrap;html=1;aspect=fixed;fillColor=#ffe599;strokeColor=#ffd966;container=0;" vertex="1" parent="Dmx9H3TW1Ro3idiB31cK-373">
          <mxGeometry x="30" y="30" width="18" height="18" as="geometry" />
        </mxCell>
        <mxCell id="Dmx9H3TW1Ro3idiB31cK-397" value="" style="whiteSpace=wrap;html=1;aspect=fixed;fillColor=#ffe599;strokeColor=#ffd966;container=0;" vertex="1" parent="Dmx9H3TW1Ro3idiB31cK-373">
          <mxGeometry x="48" y="30" width="18" height="18" as="geometry" />
        </mxCell>
        <mxCell id="Dmx9H3TW1Ro3idiB31cK-398" value="" style="whiteSpace=wrap;html=1;aspect=fixed;fillColor=#ffe599;strokeColor=#ffd966;container=0;" vertex="1" parent="Dmx9H3TW1Ro3idiB31cK-373">
          <mxGeometry x="99" y="10" width="18" height="18" as="geometry" />
        </mxCell>
        <mxCell id="Dmx9H3TW1Ro3idiB31cK-399" value="" style="whiteSpace=wrap;html=1;aspect=fixed;fillColor=#ffe599;strokeColor=#ffd966;container=0;" vertex="1" parent="Dmx9H3TW1Ro3idiB31cK-373">
          <mxGeometry x="81" y="10" width="18" height="18" as="geometry" />
        </mxCell>
        <mxCell id="Dmx9H3TW1Ro3idiB31cK-400" value="" style="whiteSpace=wrap;html=1;aspect=fixed;fillColor=#ffe599;strokeColor=#ffd966;container=0;" vertex="1" parent="Dmx9H3TW1Ro3idiB31cK-373">
          <mxGeometry x="63" y="10" width="18" height="18" as="geometry" />
        </mxCell>
        <mxCell id="Dmx9H3TW1Ro3idiB31cK-401" value="" style="whiteSpace=wrap;html=1;aspect=fixed;fillColor=#ffe599;strokeColor=#ffd966;container=0;" vertex="1" parent="Dmx9H3TW1Ro3idiB31cK-373">
          <mxGeometry x="46" y="10" width="18" height="18" as="geometry" />
        </mxCell>
        <mxCell id="Dmx9H3TW1Ro3idiB31cK-402" value="" style="whiteSpace=wrap;html=1;aspect=fixed;fillColor=#ffe599;strokeColor=#ffd966;container=0;" vertex="1" parent="Dmx9H3TW1Ro3idiB31cK-373">
          <mxGeometry x="10" y="10" width="18" height="18" as="geometry" />
        </mxCell>
        <mxCell id="Dmx9H3TW1Ro3idiB31cK-403" value="" style="whiteSpace=wrap;html=1;aspect=fixed;fillColor=#ffe599;strokeColor=#ffd966;container=0;" vertex="1" parent="Dmx9H3TW1Ro3idiB31cK-373">
          <mxGeometry x="28" y="10" width="18" height="18" as="geometry" />
        </mxCell>
        <mxCell id="Dmx9H3TW1Ro3idiB31cK-404" value="" style="whiteSpace=wrap;html=1;aspect=fixed;fillColor=#ffe599;strokeColor=#ffd966;container=0;" vertex="1" parent="Dmx9H3TW1Ro3idiB31cK-373">
          <mxGeometry x="109" y="20" width="18" height="18" as="geometry" />
        </mxCell>
        <mxCell id="Dmx9H3TW1Ro3idiB31cK-405" value="" style="whiteSpace=wrap;html=1;aspect=fixed;fillColor=#ffe599;strokeColor=#ffd966;container=0;" vertex="1" parent="Dmx9H3TW1Ro3idiB31cK-373">
          <mxGeometry x="91" y="20" width="18" height="18" as="geometry" />
        </mxCell>
        <mxCell id="Dmx9H3TW1Ro3idiB31cK-406" value="" style="whiteSpace=wrap;html=1;aspect=fixed;fillColor=#ffe599;strokeColor=#ffd966;container=0;" vertex="1" parent="Dmx9H3TW1Ro3idiB31cK-373">
          <mxGeometry x="73" y="20" width="18" height="18" as="geometry" />
        </mxCell>
        <mxCell id="Dmx9H3TW1Ro3idiB31cK-407" value="" style="whiteSpace=wrap;html=1;aspect=fixed;fillColor=#ffe599;strokeColor=#ffd966;container=0;" vertex="1" parent="Dmx9H3TW1Ro3idiB31cK-373">
          <mxGeometry x="56" y="20" width="18" height="18" as="geometry" />
        </mxCell>
        <mxCell id="Dmx9H3TW1Ro3idiB31cK-408" value="" style="whiteSpace=wrap;html=1;aspect=fixed;fillColor=#ffe599;strokeColor=#ffd966;container=0;" vertex="1" parent="Dmx9H3TW1Ro3idiB31cK-373">
          <mxGeometry x="20" y="20" width="18" height="18" as="geometry" />
        </mxCell>
        <mxCell id="Dmx9H3TW1Ro3idiB31cK-409" value="" style="whiteSpace=wrap;html=1;aspect=fixed;fillColor=#ffe599;strokeColor=#ffd966;container=0;" vertex="1" parent="Dmx9H3TW1Ro3idiB31cK-373">
          <mxGeometry x="38" y="20" width="18" height="18" as="geometry" />
        </mxCell>
        <mxCell id="Dmx9H3TW1Ro3idiB31cK-410" value="" style="whiteSpace=wrap;html=1;aspect=fixed;fillColor=#ffe599;strokeColor=#ffd966;container=0;" vertex="1" parent="Dmx9H3TW1Ro3idiB31cK-373">
          <mxGeometry x="119" y="30" width="18" height="18" as="geometry" />
        </mxCell>
        <mxCell id="Dmx9H3TW1Ro3idiB31cK-411" value="" style="whiteSpace=wrap;html=1;aspect=fixed;fillColor=#ffe599;strokeColor=#ffd966;container=0;" vertex="1" parent="Dmx9H3TW1Ro3idiB31cK-373">
          <mxGeometry x="101" y="30" width="18" height="18" as="geometry" />
        </mxCell>
        <mxCell id="Dmx9H3TW1Ro3idiB31cK-412" value="" style="whiteSpace=wrap;html=1;aspect=fixed;fillColor=#ffe599;strokeColor=#ffd966;container=0;" vertex="1" parent="Dmx9H3TW1Ro3idiB31cK-373">
          <mxGeometry x="83" y="30" width="18" height="18" as="geometry" />
        </mxCell>
        <mxCell id="Dmx9H3TW1Ro3idiB31cK-413" value="" style="whiteSpace=wrap;html=1;aspect=fixed;fillColor=#ffe599;strokeColor=#ffd966;container=0;" vertex="1" parent="Dmx9H3TW1Ro3idiB31cK-373">
          <mxGeometry x="66" y="30" width="18" height="18" as="geometry" />
        </mxCell>
        <mxCell id="Dmx9H3TW1Ro3idiB31cK-414" value="" style="whiteSpace=wrap;html=1;aspect=fixed;fillColor=#ffe599;strokeColor=#ffd966;container=0;" vertex="1" parent="Dmx9H3TW1Ro3idiB31cK-373">
          <mxGeometry x="30" y="30" width="18" height="18" as="geometry" />
        </mxCell>
        <mxCell id="Dmx9H3TW1Ro3idiB31cK-415" value="" style="whiteSpace=wrap;html=1;aspect=fixed;fillColor=#ffe599;strokeColor=#ffd966;container=0;" vertex="1" parent="Dmx9H3TW1Ro3idiB31cK-373">
          <mxGeometry x="48" y="30" width="18" height="18" as="geometry" />
        </mxCell>
        <mxCell id="Dmx9H3TW1Ro3idiB31cK-416" value="" style="whiteSpace=wrap;html=1;aspect=fixed;fillColor=#ffe599;strokeColor=#ffd966;container=0;" vertex="1" parent="Dmx9H3TW1Ro3idiB31cK-373">
          <mxGeometry x="129" y="40" width="18" height="18" as="geometry" />
        </mxCell>
        <mxCell id="Dmx9H3TW1Ro3idiB31cK-417" value="" style="whiteSpace=wrap;html=1;aspect=fixed;fillColor=#ffe599;strokeColor=#ffd966;container=0;" vertex="1" parent="Dmx9H3TW1Ro3idiB31cK-373">
          <mxGeometry x="111" y="40" width="18" height="18" as="geometry" />
        </mxCell>
        <mxCell id="Dmx9H3TW1Ro3idiB31cK-418" value="" style="whiteSpace=wrap;html=1;aspect=fixed;fillColor=#ffe599;strokeColor=#ffd966;container=0;" vertex="1" parent="Dmx9H3TW1Ro3idiB31cK-373">
          <mxGeometry x="93" y="40" width="18" height="18" as="geometry" />
        </mxCell>
        <mxCell id="Dmx9H3TW1Ro3idiB31cK-419" value="" style="whiteSpace=wrap;html=1;aspect=fixed;fillColor=#ffe599;strokeColor=#ffd966;container=0;" vertex="1" parent="Dmx9H3TW1Ro3idiB31cK-373">
          <mxGeometry x="76" y="40" width="18" height="18" as="geometry" />
        </mxCell>
        <mxCell id="Dmx9H3TW1Ro3idiB31cK-420" value="" style="whiteSpace=wrap;html=1;aspect=fixed;fillColor=#ffe599;strokeColor=#ffd966;container=0;" vertex="1" parent="Dmx9H3TW1Ro3idiB31cK-373">
          <mxGeometry x="40" y="40" width="18" height="18" as="geometry" />
        </mxCell>
        <mxCell id="Dmx9H3TW1Ro3idiB31cK-421" value="" style="whiteSpace=wrap;html=1;aspect=fixed;fillColor=#ffe599;strokeColor=#ffd966;container=0;" vertex="1" parent="Dmx9H3TW1Ro3idiB31cK-373">
          <mxGeometry x="58" y="40" width="18" height="18" as="geometry" />
        </mxCell>
        <mxCell id="Dmx9H3TW1Ro3idiB31cK-422" value="" style="group" vertex="1" connectable="0" parent="1">
          <mxGeometry x="6.5" y="740.13" width="147" height="58" as="geometry" />
        </mxCell>
        <mxCell id="Dmx9H3TW1Ro3idiB31cK-423" value="" style="whiteSpace=wrap;html=1;aspect=fixed;fillColor=#dae8fc;strokeColor=#b5cdef;container=0;" vertex="1" parent="Dmx9H3TW1Ro3idiB31cK-422">
          <mxGeometry x="89" width="18" height="18" as="geometry" />
        </mxCell>
        <mxCell id="Dmx9H3TW1Ro3idiB31cK-424" value="" style="whiteSpace=wrap;html=1;aspect=fixed;fillColor=#dae8fc;strokeColor=#b5cdef;container=0;" vertex="1" parent="Dmx9H3TW1Ro3idiB31cK-422">
          <mxGeometry x="71" width="18" height="18" as="geometry" />
        </mxCell>
        <mxCell id="Dmx9H3TW1Ro3idiB31cK-425" value="" style="whiteSpace=wrap;html=1;aspect=fixed;fillColor=#dae8fc;strokeColor=#b5cdef;container=0;" vertex="1" parent="Dmx9H3TW1Ro3idiB31cK-422">
          <mxGeometry x="53" width="18" height="18" as="geometry" />
        </mxCell>
        <mxCell id="Dmx9H3TW1Ro3idiB31cK-426" value="" style="whiteSpace=wrap;html=1;aspect=fixed;fillColor=#dae8fc;strokeColor=#b5cdef;container=0;" vertex="1" parent="Dmx9H3TW1Ro3idiB31cK-422">
          <mxGeometry x="36" width="18" height="18" as="geometry" />
        </mxCell>
        <mxCell id="Dmx9H3TW1Ro3idiB31cK-427" value="" style="whiteSpace=wrap;html=1;aspect=fixed;fillColor=#dae8fc;strokeColor=#b5cdef;container=0;" vertex="1" parent="Dmx9H3TW1Ro3idiB31cK-422">
          <mxGeometry width="18" height="18" as="geometry" />
        </mxCell>
        <mxCell id="Dmx9H3TW1Ro3idiB31cK-428" value="" style="whiteSpace=wrap;html=1;aspect=fixed;fillColor=#dae8fc;strokeColor=#b5cdef;container=0;" vertex="1" parent="Dmx9H3TW1Ro3idiB31cK-422">
          <mxGeometry x="18" width="18" height="18" as="geometry" />
        </mxCell>
        <mxCell id="Dmx9H3TW1Ro3idiB31cK-429" value="" style="whiteSpace=wrap;html=1;aspect=fixed;fillColor=#dae8fc;strokeColor=#b5cdef;container=0;" vertex="1" parent="Dmx9H3TW1Ro3idiB31cK-422">
          <mxGeometry x="99" y="10" width="18" height="18" as="geometry" />
        </mxCell>
        <mxCell id="Dmx9H3TW1Ro3idiB31cK-430" value="" style="whiteSpace=wrap;html=1;aspect=fixed;fillColor=#dae8fc;strokeColor=#b5cdef;container=0;" vertex="1" parent="Dmx9H3TW1Ro3idiB31cK-422">
          <mxGeometry x="81" y="10" width="18" height="18" as="geometry" />
        </mxCell>
        <mxCell id="Dmx9H3TW1Ro3idiB31cK-431" value="" style="whiteSpace=wrap;html=1;aspect=fixed;fillColor=#dae8fc;strokeColor=#b5cdef;container=0;" vertex="1" parent="Dmx9H3TW1Ro3idiB31cK-422">
          <mxGeometry x="63" y="10" width="18" height="18" as="geometry" />
        </mxCell>
        <mxCell id="Dmx9H3TW1Ro3idiB31cK-432" value="" style="whiteSpace=wrap;html=1;aspect=fixed;fillColor=#dae8fc;strokeColor=#b5cdef;container=0;" vertex="1" parent="Dmx9H3TW1Ro3idiB31cK-422">
          <mxGeometry x="46" y="10" width="18" height="18" as="geometry" />
        </mxCell>
        <mxCell id="Dmx9H3TW1Ro3idiB31cK-433" value="" style="whiteSpace=wrap;html=1;aspect=fixed;fillColor=#dae8fc;strokeColor=#b5cdef;container=0;" vertex="1" parent="Dmx9H3TW1Ro3idiB31cK-422">
          <mxGeometry x="10" y="10" width="18" height="18" as="geometry" />
        </mxCell>
        <mxCell id="Dmx9H3TW1Ro3idiB31cK-434" value="" style="whiteSpace=wrap;html=1;aspect=fixed;fillColor=#dae8fc;strokeColor=#b5cdef;container=0;" vertex="1" parent="Dmx9H3TW1Ro3idiB31cK-422">
          <mxGeometry x="28" y="10" width="18" height="18" as="geometry" />
        </mxCell>
        <mxCell id="Dmx9H3TW1Ro3idiB31cK-435" value="" style="whiteSpace=wrap;html=1;aspect=fixed;fillColor=#dae8fc;strokeColor=#b5cdef;container=0;" vertex="1" parent="Dmx9H3TW1Ro3idiB31cK-422">
          <mxGeometry x="109" y="20" width="18" height="18" as="geometry" />
        </mxCell>
        <mxCell id="Dmx9H3TW1Ro3idiB31cK-436" value="" style="whiteSpace=wrap;html=1;aspect=fixed;fillColor=#dae8fc;strokeColor=#b5cdef;container=0;" vertex="1" parent="Dmx9H3TW1Ro3idiB31cK-422">
          <mxGeometry x="91" y="20" width="18" height="18" as="geometry" />
        </mxCell>
        <mxCell id="Dmx9H3TW1Ro3idiB31cK-437" value="" style="whiteSpace=wrap;html=1;aspect=fixed;fillColor=#dae8fc;strokeColor=#b5cdef;container=0;" vertex="1" parent="Dmx9H3TW1Ro3idiB31cK-422">
          <mxGeometry x="73" y="20" width="18" height="18" as="geometry" />
        </mxCell>
        <mxCell id="Dmx9H3TW1Ro3idiB31cK-438" value="" style="whiteSpace=wrap;html=1;aspect=fixed;fillColor=#dae8fc;strokeColor=#b5cdef;container=0;" vertex="1" parent="Dmx9H3TW1Ro3idiB31cK-422">
          <mxGeometry x="56" y="20" width="18" height="18" as="geometry" />
        </mxCell>
        <mxCell id="Dmx9H3TW1Ro3idiB31cK-439" value="" style="whiteSpace=wrap;html=1;aspect=fixed;fillColor=#dae8fc;strokeColor=#b5cdef;container=0;" vertex="1" parent="Dmx9H3TW1Ro3idiB31cK-422">
          <mxGeometry x="20" y="20" width="18" height="18" as="geometry" />
        </mxCell>
        <mxCell id="Dmx9H3TW1Ro3idiB31cK-440" value="" style="whiteSpace=wrap;html=1;aspect=fixed;fillColor=#dae8fc;strokeColor=#b5cdef;container=0;" vertex="1" parent="Dmx9H3TW1Ro3idiB31cK-422">
          <mxGeometry x="38" y="20" width="18" height="18" as="geometry" />
        </mxCell>
        <mxCell id="Dmx9H3TW1Ro3idiB31cK-441" value="" style="whiteSpace=wrap;html=1;aspect=fixed;fillColor=#dae8fc;strokeColor=#b5cdef;container=0;" vertex="1" parent="Dmx9H3TW1Ro3idiB31cK-422">
          <mxGeometry x="119" y="30" width="18" height="18" as="geometry" />
        </mxCell>
        <mxCell id="Dmx9H3TW1Ro3idiB31cK-442" value="" style="whiteSpace=wrap;html=1;aspect=fixed;fillColor=#dae8fc;strokeColor=#b5cdef;container=0;" vertex="1" parent="Dmx9H3TW1Ro3idiB31cK-422">
          <mxGeometry x="101" y="30" width="18" height="18" as="geometry" />
        </mxCell>
        <mxCell id="Dmx9H3TW1Ro3idiB31cK-443" value="" style="whiteSpace=wrap;html=1;aspect=fixed;fillColor=#dae8fc;strokeColor=#b5cdef;container=0;" vertex="1" parent="Dmx9H3TW1Ro3idiB31cK-422">
          <mxGeometry x="83" y="30" width="18" height="18" as="geometry" />
        </mxCell>
        <mxCell id="Dmx9H3TW1Ro3idiB31cK-444" value="" style="whiteSpace=wrap;html=1;aspect=fixed;fillColor=#dae8fc;strokeColor=#b5cdef;container=0;" vertex="1" parent="Dmx9H3TW1Ro3idiB31cK-422">
          <mxGeometry x="66" y="30" width="18" height="18" as="geometry" />
        </mxCell>
        <mxCell id="Dmx9H3TW1Ro3idiB31cK-445" value="" style="whiteSpace=wrap;html=1;aspect=fixed;fillColor=#dae8fc;strokeColor=#b5cdef;container=0;" vertex="1" parent="Dmx9H3TW1Ro3idiB31cK-422">
          <mxGeometry x="30" y="30" width="18" height="18" as="geometry" />
        </mxCell>
        <mxCell id="Dmx9H3TW1Ro3idiB31cK-446" value="" style="whiteSpace=wrap;html=1;aspect=fixed;fillColor=#dae8fc;strokeColor=#b5cdef;container=0;" vertex="1" parent="Dmx9H3TW1Ro3idiB31cK-422">
          <mxGeometry x="48" y="30" width="18" height="18" as="geometry" />
        </mxCell>
        <mxCell id="Dmx9H3TW1Ro3idiB31cK-447" value="" style="whiteSpace=wrap;html=1;aspect=fixed;fillColor=#dae8fc;strokeColor=#b5cdef;container=0;" vertex="1" parent="Dmx9H3TW1Ro3idiB31cK-422">
          <mxGeometry x="99" y="10" width="18" height="18" as="geometry" />
        </mxCell>
        <mxCell id="Dmx9H3TW1Ro3idiB31cK-448" value="" style="whiteSpace=wrap;html=1;aspect=fixed;fillColor=#dae8fc;strokeColor=#b5cdef;container=0;" vertex="1" parent="Dmx9H3TW1Ro3idiB31cK-422">
          <mxGeometry x="81" y="10" width="18" height="18" as="geometry" />
        </mxCell>
        <mxCell id="Dmx9H3TW1Ro3idiB31cK-449" value="" style="whiteSpace=wrap;html=1;aspect=fixed;fillColor=#dae8fc;strokeColor=#b5cdef;container=0;" vertex="1" parent="Dmx9H3TW1Ro3idiB31cK-422">
          <mxGeometry x="63" y="10" width="18" height="18" as="geometry" />
        </mxCell>
        <mxCell id="Dmx9H3TW1Ro3idiB31cK-450" value="" style="whiteSpace=wrap;html=1;aspect=fixed;fillColor=#dae8fc;strokeColor=#b5cdef;container=0;" vertex="1" parent="Dmx9H3TW1Ro3idiB31cK-422">
          <mxGeometry x="46" y="10" width="18" height="18" as="geometry" />
        </mxCell>
        <mxCell id="Dmx9H3TW1Ro3idiB31cK-451" value="" style="whiteSpace=wrap;html=1;aspect=fixed;fillColor=#dae8fc;strokeColor=#b5cdef;container=0;" vertex="1" parent="Dmx9H3TW1Ro3idiB31cK-422">
          <mxGeometry x="10" y="10" width="18" height="18" as="geometry" />
        </mxCell>
        <mxCell id="Dmx9H3TW1Ro3idiB31cK-452" value="" style="whiteSpace=wrap;html=1;aspect=fixed;fillColor=#dae8fc;strokeColor=#b5cdef;container=0;" vertex="1" parent="Dmx9H3TW1Ro3idiB31cK-422">
          <mxGeometry x="28" y="10" width="18" height="18" as="geometry" />
        </mxCell>
        <mxCell id="Dmx9H3TW1Ro3idiB31cK-453" value="" style="whiteSpace=wrap;html=1;aspect=fixed;fillColor=#dae8fc;strokeColor=#b5cdef;container=0;" vertex="1" parent="Dmx9H3TW1Ro3idiB31cK-422">
          <mxGeometry x="109" y="20" width="18" height="18" as="geometry" />
        </mxCell>
        <mxCell id="Dmx9H3TW1Ro3idiB31cK-454" value="" style="whiteSpace=wrap;html=1;aspect=fixed;fillColor=#dae8fc;strokeColor=#b5cdef;container=0;" vertex="1" parent="Dmx9H3TW1Ro3idiB31cK-422">
          <mxGeometry x="91" y="20" width="18" height="18" as="geometry" />
        </mxCell>
        <mxCell id="Dmx9H3TW1Ro3idiB31cK-455" value="" style="whiteSpace=wrap;html=1;aspect=fixed;fillColor=#dae8fc;strokeColor=#b5cdef;container=0;" vertex="1" parent="Dmx9H3TW1Ro3idiB31cK-422">
          <mxGeometry x="73" y="20" width="18" height="18" as="geometry" />
        </mxCell>
        <mxCell id="Dmx9H3TW1Ro3idiB31cK-456" value="" style="whiteSpace=wrap;html=1;aspect=fixed;fillColor=#dae8fc;strokeColor=#b5cdef;container=0;" vertex="1" parent="Dmx9H3TW1Ro3idiB31cK-422">
          <mxGeometry x="56" y="20" width="18" height="18" as="geometry" />
        </mxCell>
        <mxCell id="Dmx9H3TW1Ro3idiB31cK-457" value="" style="whiteSpace=wrap;html=1;aspect=fixed;fillColor=#dae8fc;strokeColor=#b5cdef;container=0;" vertex="1" parent="Dmx9H3TW1Ro3idiB31cK-422">
          <mxGeometry x="20" y="20" width="18" height="18" as="geometry" />
        </mxCell>
        <mxCell id="Dmx9H3TW1Ro3idiB31cK-458" value="" style="whiteSpace=wrap;html=1;aspect=fixed;fillColor=#dae8fc;strokeColor=#b5cdef;container=0;" vertex="1" parent="Dmx9H3TW1Ro3idiB31cK-422">
          <mxGeometry x="38" y="20" width="18" height="18" as="geometry" />
        </mxCell>
        <mxCell id="Dmx9H3TW1Ro3idiB31cK-459" value="" style="whiteSpace=wrap;html=1;aspect=fixed;fillColor=#dae8fc;strokeColor=#b5cdef;container=0;" vertex="1" parent="Dmx9H3TW1Ro3idiB31cK-422">
          <mxGeometry x="119" y="30" width="18" height="18" as="geometry" />
        </mxCell>
        <mxCell id="Dmx9H3TW1Ro3idiB31cK-460" value="" style="whiteSpace=wrap;html=1;aspect=fixed;fillColor=#dae8fc;strokeColor=#b5cdef;container=0;" vertex="1" parent="Dmx9H3TW1Ro3idiB31cK-422">
          <mxGeometry x="101" y="30" width="18" height="18" as="geometry" />
        </mxCell>
        <mxCell id="Dmx9H3TW1Ro3idiB31cK-461" value="" style="whiteSpace=wrap;html=1;aspect=fixed;fillColor=#dae8fc;strokeColor=#b5cdef;container=0;" vertex="1" parent="Dmx9H3TW1Ro3idiB31cK-422">
          <mxGeometry x="83" y="30" width="18" height="18" as="geometry" />
        </mxCell>
        <mxCell id="Dmx9H3TW1Ro3idiB31cK-462" value="" style="whiteSpace=wrap;html=1;aspect=fixed;fillColor=#dae8fc;strokeColor=#b5cdef;container=0;" vertex="1" parent="Dmx9H3TW1Ro3idiB31cK-422">
          <mxGeometry x="66" y="30" width="18" height="18" as="geometry" />
        </mxCell>
        <mxCell id="Dmx9H3TW1Ro3idiB31cK-463" value="" style="whiteSpace=wrap;html=1;aspect=fixed;fillColor=#dae8fc;strokeColor=#b5cdef;container=0;" vertex="1" parent="Dmx9H3TW1Ro3idiB31cK-422">
          <mxGeometry x="30" y="30" width="18" height="18" as="geometry" />
        </mxCell>
        <mxCell id="Dmx9H3TW1Ro3idiB31cK-464" value="" style="whiteSpace=wrap;html=1;aspect=fixed;fillColor=#dae8fc;strokeColor=#b5cdef;container=0;" vertex="1" parent="Dmx9H3TW1Ro3idiB31cK-422">
          <mxGeometry x="48" y="30" width="18" height="18" as="geometry" />
        </mxCell>
        <mxCell id="Dmx9H3TW1Ro3idiB31cK-465" value="" style="whiteSpace=wrap;html=1;aspect=fixed;fillColor=#dae8fc;strokeColor=#b5cdef;container=0;" vertex="1" parent="Dmx9H3TW1Ro3idiB31cK-422">
          <mxGeometry x="129" y="40" width="18" height="18" as="geometry" />
        </mxCell>
        <mxCell id="Dmx9H3TW1Ro3idiB31cK-466" value="" style="whiteSpace=wrap;html=1;aspect=fixed;fillColor=#dae8fc;strokeColor=#b5cdef;container=0;" vertex="1" parent="Dmx9H3TW1Ro3idiB31cK-422">
          <mxGeometry x="111" y="40" width="18" height="18" as="geometry" />
        </mxCell>
        <mxCell id="Dmx9H3TW1Ro3idiB31cK-467" value="" style="whiteSpace=wrap;html=1;aspect=fixed;fillColor=#dae8fc;strokeColor=#b5cdef;container=0;" vertex="1" parent="Dmx9H3TW1Ro3idiB31cK-422">
          <mxGeometry x="93" y="40" width="18" height="18" as="geometry" />
        </mxCell>
        <mxCell id="Dmx9H3TW1Ro3idiB31cK-468" value="" style="whiteSpace=wrap;html=1;aspect=fixed;fillColor=#dae8fc;strokeColor=#b5cdef;container=0;" vertex="1" parent="Dmx9H3TW1Ro3idiB31cK-422">
          <mxGeometry x="76" y="40" width="18" height="18" as="geometry" />
        </mxCell>
        <mxCell id="Dmx9H3TW1Ro3idiB31cK-469" value="" style="whiteSpace=wrap;html=1;aspect=fixed;fillColor=#dae8fc;strokeColor=#b5cdef;container=0;" vertex="1" parent="Dmx9H3TW1Ro3idiB31cK-422">
          <mxGeometry x="40" y="40" width="18" height="18" as="geometry" />
        </mxCell>
        <mxCell id="Dmx9H3TW1Ro3idiB31cK-470" value="" style="whiteSpace=wrap;html=1;aspect=fixed;fillColor=#dae8fc;strokeColor=#b5cdef;container=0;" vertex="1" parent="Dmx9H3TW1Ro3idiB31cK-422">
          <mxGeometry x="58" y="40" width="18" height="18" as="geometry" />
        </mxCell>
        <mxCell id="Dmx9H3TW1Ro3idiB31cK-471" value="&lt;font face=&quot;Times New Roman&quot; style=&quot;font-size: 18px;&quot;&gt;$$N\times M$$&lt;/font&gt;" style="text;strokeColor=none;align=center;fillColor=none;html=1;verticalAlign=middle;whiteSpace=wrap;rounded=0;container=0;" vertex="1" parent="1">
          <mxGeometry x="35.004999999999995" y="798.13" width="65" height="41.25" as="geometry" />
        </mxCell>
        <mxCell id="Dmx9H3TW1Ro3idiB31cK-472" value="&lt;font style=&quot;font-size: 18px;&quot; face=&quot;Times New Roman&quot;&gt;$$1\times M \times N$$&lt;/font&gt;" style="text;strokeColor=none;align=center;fillColor=none;html=1;verticalAlign=middle;whiteSpace=wrap;rounded=0;container=0;" vertex="1" parent="1">
          <mxGeometry x="749.37" y="990" width="60" height="30" as="geometry" />
        </mxCell>
        <mxCell id="Dmx9H3TW1Ro3idiB31cK-473" value="" style="group" vertex="1" connectable="0" parent="1">
          <mxGeometry x="587.5" y="920" width="120" height="50" as="geometry" />
        </mxCell>
        <mxCell id="Dmx9H3TW1Ro3idiB31cK-474" value="" style="group" vertex="1" connectable="0" parent="Dmx9H3TW1Ro3idiB31cK-473">
          <mxGeometry width="50" height="50" as="geometry" />
        </mxCell>
        <mxCell id="Dmx9H3TW1Ro3idiB31cK-475" value="" style="whiteSpace=wrap;html=1;aspect=fixed;fillColor=#ffe6cc;strokeColor=#d79b00;container=0;" vertex="1" parent="Dmx9H3TW1Ro3idiB31cK-474">
          <mxGeometry width="20" height="20" as="geometry" />
        </mxCell>
        <mxCell id="Dmx9H3TW1Ro3idiB31cK-476" value="" style="whiteSpace=wrap;html=1;aspect=fixed;fillColor=#ffe6cc;strokeColor=#d79b00;container=0;" vertex="1" parent="Dmx9H3TW1Ro3idiB31cK-474">
          <mxGeometry x="10" y="10" width="20" height="20" as="geometry" />
        </mxCell>
        <mxCell id="Dmx9H3TW1Ro3idiB31cK-477" value="" style="whiteSpace=wrap;html=1;aspect=fixed;fillColor=#ffe6cc;strokeColor=#d79b00;container=0;" vertex="1" parent="Dmx9H3TW1Ro3idiB31cK-474">
          <mxGeometry x="20" y="20" width="20" height="20" as="geometry" />
        </mxCell>
        <mxCell id="Dmx9H3TW1Ro3idiB31cK-478" value="" style="whiteSpace=wrap;html=1;aspect=fixed;fillColor=#ffe6cc;strokeColor=#d79b00;container=0;" vertex="1" parent="Dmx9H3TW1Ro3idiB31cK-474">
          <mxGeometry x="30" y="30" width="20" height="20" as="geometry" />
        </mxCell>
        <mxCell id="Dmx9H3TW1Ro3idiB31cK-479" value="" style="group" vertex="1" connectable="0" parent="Dmx9H3TW1Ro3idiB31cK-473">
          <mxGeometry x="35" width="50" height="50" as="geometry" />
        </mxCell>
        <mxCell id="Dmx9H3TW1Ro3idiB31cK-480" value="" style="whiteSpace=wrap;html=1;aspect=fixed;fillColor=#ffe6cc;strokeColor=#d79b00;container=0;" vertex="1" parent="Dmx9H3TW1Ro3idiB31cK-479">
          <mxGeometry width="20" height="20" as="geometry" />
        </mxCell>
        <mxCell id="Dmx9H3TW1Ro3idiB31cK-481" value="" style="whiteSpace=wrap;html=1;aspect=fixed;fillColor=#ffe6cc;strokeColor=#d79b00;container=0;" vertex="1" parent="Dmx9H3TW1Ro3idiB31cK-479">
          <mxGeometry x="10" y="10" width="20" height="20" as="geometry" />
        </mxCell>
        <mxCell id="Dmx9H3TW1Ro3idiB31cK-482" value="" style="whiteSpace=wrap;html=1;aspect=fixed;fillColor=#ffe6cc;strokeColor=#d79b00;container=0;" vertex="1" parent="Dmx9H3TW1Ro3idiB31cK-479">
          <mxGeometry x="20" y="20" width="20" height="20" as="geometry" />
        </mxCell>
        <mxCell id="Dmx9H3TW1Ro3idiB31cK-483" value="" style="whiteSpace=wrap;html=1;aspect=fixed;fillColor=#ffe6cc;strokeColor=#d79b00;container=0;" vertex="1" parent="Dmx9H3TW1Ro3idiB31cK-479">
          <mxGeometry x="30" y="30" width="20" height="20" as="geometry" />
        </mxCell>
        <mxCell id="Dmx9H3TW1Ro3idiB31cK-484" value="" style="group" vertex="1" connectable="0" parent="Dmx9H3TW1Ro3idiB31cK-473">
          <mxGeometry x="70" width="50" height="50" as="geometry" />
        </mxCell>
        <mxCell id="Dmx9H3TW1Ro3idiB31cK-485" value="" style="whiteSpace=wrap;html=1;aspect=fixed;fillColor=#ffe6cc;strokeColor=#d79b00;container=0;" vertex="1" parent="Dmx9H3TW1Ro3idiB31cK-484">
          <mxGeometry width="20" height="20" as="geometry" />
        </mxCell>
        <mxCell id="Dmx9H3TW1Ro3idiB31cK-486" value="" style="whiteSpace=wrap;html=1;aspect=fixed;fillColor=#ffe6cc;strokeColor=#d79b00;container=0;" vertex="1" parent="Dmx9H3TW1Ro3idiB31cK-484">
          <mxGeometry x="10" y="10" width="20" height="20" as="geometry" />
        </mxCell>
        <mxCell id="Dmx9H3TW1Ro3idiB31cK-487" value="" style="whiteSpace=wrap;html=1;aspect=fixed;fillColor=#ffe6cc;strokeColor=#d79b00;container=0;" vertex="1" parent="Dmx9H3TW1Ro3idiB31cK-484">
          <mxGeometry x="20" y="20" width="20" height="20" as="geometry" />
        </mxCell>
        <mxCell id="Dmx9H3TW1Ro3idiB31cK-488" value="" style="whiteSpace=wrap;html=1;aspect=fixed;fillColor=#ffe6cc;strokeColor=#d79b00;container=0;" vertex="1" parent="Dmx9H3TW1Ro3idiB31cK-484">
          <mxGeometry x="30" y="30" width="20" height="20" as="geometry" />
        </mxCell>
        <mxCell id="Dmx9H3TW1Ro3idiB31cK-489" value="" style="group" vertex="1" connectable="0" parent="1">
          <mxGeometry x="749.37" y="850" width="48" height="138" as="geometry" />
        </mxCell>
        <mxCell id="Dmx9H3TW1Ro3idiB31cK-490" value="" style="whiteSpace=wrap;html=1;aspect=fixed;fillColor=#d5e8d4;strokeColor=#82b366;container=0;" vertex="1" parent="Dmx9H3TW1Ro3idiB31cK-489">
          <mxGeometry width="18" height="18" as="geometry" />
        </mxCell>
        <mxCell id="Dmx9H3TW1Ro3idiB31cK-491" value="" style="whiteSpace=wrap;html=1;aspect=fixed;fillColor=#d5e8d4;strokeColor=#82b366;container=0;" vertex="1" parent="Dmx9H3TW1Ro3idiB31cK-489">
          <mxGeometry y="18" width="18" height="18" as="geometry" />
        </mxCell>
        <mxCell id="Dmx9H3TW1Ro3idiB31cK-492" value="" style="whiteSpace=wrap;html=1;aspect=fixed;fillColor=#d5e8d4;strokeColor=#82b366;container=0;" vertex="1" parent="Dmx9H3TW1Ro3idiB31cK-489">
          <mxGeometry y="36" width="18" height="18" as="geometry" />
        </mxCell>
        <mxCell id="Dmx9H3TW1Ro3idiB31cK-493" value="" style="whiteSpace=wrap;html=1;aspect=fixed;fillColor=#d5e8d4;strokeColor=#82b366;container=0;" vertex="1" parent="Dmx9H3TW1Ro3idiB31cK-489">
          <mxGeometry y="54" width="18" height="18" as="geometry" />
        </mxCell>
        <mxCell id="Dmx9H3TW1Ro3idiB31cK-494" value="" style="whiteSpace=wrap;html=1;aspect=fixed;fillColor=#d5e8d4;strokeColor=#82b366;container=0;" vertex="1" parent="Dmx9H3TW1Ro3idiB31cK-489">
          <mxGeometry y="72" width="18" height="18" as="geometry" />
        </mxCell>
        <mxCell id="Dmx9H3TW1Ro3idiB31cK-495" value="" style="whiteSpace=wrap;html=1;aspect=fixed;fillColor=#d5e8d4;strokeColor=#82b366;container=0;" vertex="1" parent="Dmx9H3TW1Ro3idiB31cK-489">
          <mxGeometry y="90" width="18" height="18" as="geometry" />
        </mxCell>
        <mxCell id="Dmx9H3TW1Ro3idiB31cK-496" value="" style="whiteSpace=wrap;html=1;aspect=fixed;fillColor=#d5e8d4;strokeColor=#82b366;container=0;" vertex="1" parent="Dmx9H3TW1Ro3idiB31cK-489">
          <mxGeometry x="10" y="10" width="18" height="18" as="geometry" />
        </mxCell>
        <mxCell id="Dmx9H3TW1Ro3idiB31cK-497" value="" style="whiteSpace=wrap;html=1;aspect=fixed;fillColor=#d5e8d4;strokeColor=#82b366;container=0;" vertex="1" parent="Dmx9H3TW1Ro3idiB31cK-489">
          <mxGeometry x="10" y="28" width="18" height="18" as="geometry" />
        </mxCell>
        <mxCell id="Dmx9H3TW1Ro3idiB31cK-498" value="" style="whiteSpace=wrap;html=1;aspect=fixed;fillColor=#d5e8d4;strokeColor=#82b366;container=0;" vertex="1" parent="Dmx9H3TW1Ro3idiB31cK-489">
          <mxGeometry x="10" y="46" width="18" height="18" as="geometry" />
        </mxCell>
        <mxCell id="Dmx9H3TW1Ro3idiB31cK-499" value="" style="whiteSpace=wrap;html=1;aspect=fixed;fillColor=#d5e8d4;strokeColor=#82b366;container=0;" vertex="1" parent="Dmx9H3TW1Ro3idiB31cK-489">
          <mxGeometry x="10" y="64" width="18" height="18" as="geometry" />
        </mxCell>
        <mxCell id="Dmx9H3TW1Ro3idiB31cK-500" value="" style="whiteSpace=wrap;html=1;aspect=fixed;fillColor=#d5e8d4;strokeColor=#82b366;container=0;" vertex="1" parent="Dmx9H3TW1Ro3idiB31cK-489">
          <mxGeometry x="10" y="82" width="18" height="18" as="geometry" />
        </mxCell>
        <mxCell id="Dmx9H3TW1Ro3idiB31cK-501" value="" style="whiteSpace=wrap;html=1;aspect=fixed;fillColor=#d5e8d4;strokeColor=#82b366;container=0;" vertex="1" parent="Dmx9H3TW1Ro3idiB31cK-489">
          <mxGeometry x="10" y="100" width="18" height="18" as="geometry" />
        </mxCell>
        <mxCell id="Dmx9H3TW1Ro3idiB31cK-502" value="" style="whiteSpace=wrap;html=1;aspect=fixed;fillColor=#d5e8d4;strokeColor=#82b366;container=0;" vertex="1" parent="Dmx9H3TW1Ro3idiB31cK-489">
          <mxGeometry x="20" y="20" width="18" height="18" as="geometry" />
        </mxCell>
        <mxCell id="Dmx9H3TW1Ro3idiB31cK-503" value="" style="whiteSpace=wrap;html=1;aspect=fixed;fillColor=#d5e8d4;strokeColor=#82b366;container=0;" vertex="1" parent="Dmx9H3TW1Ro3idiB31cK-489">
          <mxGeometry x="20" y="38" width="18" height="18" as="geometry" />
        </mxCell>
        <mxCell id="Dmx9H3TW1Ro3idiB31cK-504" value="" style="whiteSpace=wrap;html=1;aspect=fixed;fillColor=#d5e8d4;strokeColor=#82b366;container=0;" vertex="1" parent="Dmx9H3TW1Ro3idiB31cK-489">
          <mxGeometry x="20" y="56" width="18" height="18" as="geometry" />
        </mxCell>
        <mxCell id="Dmx9H3TW1Ro3idiB31cK-505" value="" style="whiteSpace=wrap;html=1;aspect=fixed;fillColor=#d5e8d4;strokeColor=#82b366;container=0;" vertex="1" parent="Dmx9H3TW1Ro3idiB31cK-489">
          <mxGeometry x="20" y="74" width="18" height="18" as="geometry" />
        </mxCell>
        <mxCell id="Dmx9H3TW1Ro3idiB31cK-506" value="" style="whiteSpace=wrap;html=1;aspect=fixed;fillColor=#d5e8d4;strokeColor=#82b366;container=0;" vertex="1" parent="Dmx9H3TW1Ro3idiB31cK-489">
          <mxGeometry x="20" y="92" width="18" height="18" as="geometry" />
        </mxCell>
        <mxCell id="Dmx9H3TW1Ro3idiB31cK-507" value="" style="whiteSpace=wrap;html=1;aspect=fixed;fillColor=#d5e8d4;strokeColor=#82b366;container=0;" vertex="1" parent="Dmx9H3TW1Ro3idiB31cK-489">
          <mxGeometry x="20" y="110" width="18" height="18" as="geometry" />
        </mxCell>
        <mxCell id="Dmx9H3TW1Ro3idiB31cK-508" value="" style="whiteSpace=wrap;html=1;aspect=fixed;fillColor=#d5e8d4;strokeColor=#82b366;container=0;" vertex="1" parent="Dmx9H3TW1Ro3idiB31cK-489">
          <mxGeometry x="30" y="30" width="18" height="18" as="geometry" />
        </mxCell>
        <mxCell id="Dmx9H3TW1Ro3idiB31cK-509" value="" style="whiteSpace=wrap;html=1;aspect=fixed;fillColor=#d5e8d4;strokeColor=#82b366;container=0;" vertex="1" parent="Dmx9H3TW1Ro3idiB31cK-489">
          <mxGeometry x="30" y="48" width="18" height="18" as="geometry" />
        </mxCell>
        <mxCell id="Dmx9H3TW1Ro3idiB31cK-510" value="" style="whiteSpace=wrap;html=1;aspect=fixed;fillColor=#d5e8d4;strokeColor=#82b366;container=0;" vertex="1" parent="Dmx9H3TW1Ro3idiB31cK-489">
          <mxGeometry x="30" y="66" width="18" height="18" as="geometry" />
        </mxCell>
        <mxCell id="Dmx9H3TW1Ro3idiB31cK-511" value="" style="whiteSpace=wrap;html=1;aspect=fixed;fillColor=#d5e8d4;strokeColor=#82b366;container=0;" vertex="1" parent="Dmx9H3TW1Ro3idiB31cK-489">
          <mxGeometry x="30" y="84" width="18" height="18" as="geometry" />
        </mxCell>
        <mxCell id="Dmx9H3TW1Ro3idiB31cK-512" value="" style="whiteSpace=wrap;html=1;aspect=fixed;fillColor=#d5e8d4;strokeColor=#82b366;container=0;" vertex="1" parent="Dmx9H3TW1Ro3idiB31cK-489">
          <mxGeometry x="30" y="102" width="18" height="18" as="geometry" />
        </mxCell>
        <mxCell id="Dmx9H3TW1Ro3idiB31cK-513" value="" style="whiteSpace=wrap;html=1;aspect=fixed;fillColor=#d5e8d4;strokeColor=#82b366;container=0;" vertex="1" parent="Dmx9H3TW1Ro3idiB31cK-489">
          <mxGeometry x="30" y="120" width="18" height="18" as="geometry" />
        </mxCell>
        <mxCell id="Dmx9H3TW1Ro3idiB31cK-116" value="" style="shape=curlyBracket;whiteSpace=wrap;html=1;rounded=1;labelPosition=left;verticalLabelPosition=middle;align=right;verticalAlign=middle;container=0;" vertex="1" parent="1">
          <mxGeometry x="260" y="606.3199999999999" width="15" height="167.36" as="geometry" />
        </mxCell>
        <mxCell id="Dmx9H3TW1Ro3idiB31cK-117" value="&lt;font style=&quot;font-size: 16px;&quot; face=&quot;Times New Roman&quot;&gt;$$2M$$&lt;/font&gt;" style="text;strokeColor=none;align=center;fillColor=none;html=1;verticalAlign=middle;whiteSpace=wrap;rounded=0;container=0;" vertex="1" parent="1">
          <mxGeometry x="224.5" y="679.0357142857142" width="45" height="21.42857142857143" as="geometry" />
        </mxCell>
        <mxCell id="Dmx9H3TW1Ro3idiB31cK-118" value="&lt;font style=&quot;font-size: 18px;&quot;&gt;Input&lt;/font&gt;" style="text;strokeColor=none;align=center;fillColor=none;html=1;verticalAlign=middle;whiteSpace=wrap;rounded=0;container=0;fontFamily=Times New Roman;" vertex="1" parent="1">
          <mxGeometry x="279.185" y="817.9485714285715" width="45" height="21.42857142857143" as="geometry" />
        </mxCell>
        <mxCell id="Dmx9H3TW1Ro3idiB31cK-119" value="" style="ellipse;whiteSpace=wrap;html=1;aspect=fixed;fillColor=#B9E0A5;strokeColor=#97D077;container=0;" vertex="1" parent="1">
          <mxGeometry x="430" y="666.5371428571428" width="9.183673469387754" height="9.183673469387754" as="geometry" />
        </mxCell>
        <mxCell id="Dmx9H3TW1Ro3idiB31cK-120" value="" style="ellipse;whiteSpace=wrap;html=1;aspect=fixed;fillColor=#B9E0A5;strokeColor=#97D077;container=0;" vertex="1" parent="1">
          <mxGeometry x="430" y="720.1085714285714" width="9.183673469387754" height="9.183673469387754" as="geometry" />
        </mxCell>
        <mxCell id="Dmx9H3TW1Ro3idiB31cK-121" value="" style="endArrow=none;dashed=1;html=1;dashPattern=1 3;strokeWidth=2;rounded=0;entryX=0.5;entryY=1;entryDx=0;entryDy=0;exitX=0.5;exitY=0;exitDx=0;exitDy=0;" edge="1" parent="1" source="Dmx9H3TW1Ro3idiB31cK-120" target="Dmx9H3TW1Ro3idiB31cK-119">
          <mxGeometry width="50" height="50" relative="1" as="geometry">
            <mxPoint x="435.625" y="704.0371428571428" as="sourcePoint" />
            <mxPoint x="580" y="912.9657142857142" as="targetPoint" />
          </mxGeometry>
        </mxCell>
        <mxCell id="Dmx9H3TW1Ro3idiB31cK-122" value="" style="endArrow=openThin;html=1;rounded=1;endSize=3;startSize=3;endFill=0;exitX=1;exitY=0.5;exitDx=0;exitDy=0;entryX=0;entryY=0.5;entryDx=0;entryDy=0;" edge="1" parent="1" source="Dmx9H3TW1Ro3idiB31cK-160" target="Dmx9H3TW1Ro3idiB31cK-119">
          <mxGeometry width="50" height="50" relative="1" as="geometry">
            <mxPoint x="542.5" y="605.8228571428571" as="sourcePoint" />
            <mxPoint x="415" y="627.2514285714285" as="targetPoint" />
          </mxGeometry>
        </mxCell>
        <mxCell id="Dmx9H3TW1Ro3idiB31cK-123" value="" style="endArrow=openThin;html=1;rounded=1;endSize=3;startSize=3;endFill=0;exitX=1;exitY=0.5;exitDx=0;exitDy=0;" edge="1" parent="1" source="Dmx9H3TW1Ro3idiB31cK-162">
          <mxGeometry width="50" height="50" relative="1" as="geometry">
            <mxPoint x="542.5" y="605.8228571428571" as="sourcePoint" />
            <mxPoint x="430" y="670.1085714285714" as="targetPoint" />
          </mxGeometry>
        </mxCell>
        <mxCell id="Dmx9H3TW1Ro3idiB31cK-124" value="" style="endArrow=openThin;html=1;rounded=1;entryX=0;entryY=0.5;entryDx=0;entryDy=0;endSize=3;startSize=3;endFill=0;exitX=1;exitY=0.5;exitDx=0;exitDy=0;" edge="1" parent="1" source="Dmx9H3TW1Ro3idiB31cK-157" target="Dmx9H3TW1Ro3idiB31cK-119">
          <mxGeometry width="50" height="50" relative="1" as="geometry">
            <mxPoint x="550" y="612.9657142857143" as="sourcePoint" />
            <mxPoint x="625" y="645.1085714285714" as="targetPoint" />
          </mxGeometry>
        </mxCell>
        <mxCell id="Dmx9H3TW1Ro3idiB31cK-125" value="" style="endArrow=openThin;html=1;rounded=1;entryX=0;entryY=0.5;entryDx=0;entryDy=0;endSize=3;startSize=3;endFill=0;exitX=1;exitY=0.5;exitDx=0;exitDy=0;" edge="1" parent="1" source="Dmx9H3TW1Ro3idiB31cK-158" target="Dmx9H3TW1Ro3idiB31cK-119">
          <mxGeometry width="50" height="50" relative="1" as="geometry">
            <mxPoint x="557.5" y="620.1085714285714" as="sourcePoint" />
            <mxPoint x="632.5" y="652.2514285714285" as="targetPoint" />
          </mxGeometry>
        </mxCell>
        <mxCell id="Dmx9H3TW1Ro3idiB31cK-126" value="" style="endArrow=openThin;html=1;rounded=1;entryX=0;entryY=0.5;entryDx=0;entryDy=0;endSize=3;startSize=3;endFill=0;exitX=1;exitY=0.5;exitDx=0;exitDy=0;" edge="1" parent="1" source="Dmx9H3TW1Ro3idiB31cK-156" target="Dmx9H3TW1Ro3idiB31cK-119">
          <mxGeometry width="50" height="50" relative="1" as="geometry">
            <mxPoint x="565" y="627.2514285714285" as="sourcePoint" />
            <mxPoint x="640" y="659.3942857142856" as="targetPoint" />
          </mxGeometry>
        </mxCell>
        <mxCell id="Dmx9H3TW1Ro3idiB31cK-127" value="" style="endArrow=openThin;html=1;rounded=1;entryX=0;entryY=0.5;entryDx=0;entryDy=0;endSize=3;startSize=3;endFill=0;exitX=1;exitY=0.5;exitDx=0;exitDy=0;" edge="1" parent="1" source="Dmx9H3TW1Ro3idiB31cK-155" target="Dmx9H3TW1Ro3idiB31cK-119">
          <mxGeometry width="50" height="50" relative="1" as="geometry">
            <mxPoint x="572.5" y="634.3942857142856" as="sourcePoint" />
            <mxPoint x="647.5" y="666.5371428571428" as="targetPoint" />
          </mxGeometry>
        </mxCell>
        <mxCell id="Dmx9H3TW1Ro3idiB31cK-128" value="" style="endArrow=openThin;html=1;rounded=1;entryX=0;entryY=0.5;entryDx=0;entryDy=0;endSize=3;startSize=3;endFill=0;exitX=1;exitY=0.5;exitDx=0;exitDy=0;" edge="1" parent="1" source="Dmx9H3TW1Ro3idiB31cK-157" target="Dmx9H3TW1Ro3idiB31cK-120">
          <mxGeometry width="50" height="50" relative="1" as="geometry">
            <mxPoint x="542.5" y="605.8228571428571" as="sourcePoint" />
            <mxPoint x="617.5" y="637.9657142857142" as="targetPoint" />
          </mxGeometry>
        </mxCell>
        <mxCell id="Dmx9H3TW1Ro3idiB31cK-129" value="" style="endArrow=openThin;html=1;rounded=1;endSize=3;startSize=3;endFill=0;exitX=1;exitY=0.5;exitDx=0;exitDy=0;" edge="1" parent="1" source="Dmx9H3TW1Ro3idiB31cK-160">
          <mxGeometry width="50" height="50" relative="1" as="geometry">
            <mxPoint x="550" y="612.9657142857143" as="sourcePoint" />
            <mxPoint x="430" y="727.2514285714285" as="targetPoint" />
          </mxGeometry>
        </mxCell>
        <mxCell id="Dmx9H3TW1Ro3idiB31cK-130" value="" style="endArrow=openThin;html=1;rounded=1;entryX=0;entryY=0.5;entryDx=0;entryDy=0;endSize=3;startSize=3;endFill=0;exitX=1;exitY=0.5;exitDx=0;exitDy=0;" edge="1" parent="1" source="Dmx9H3TW1Ro3idiB31cK-162" target="Dmx9H3TW1Ro3idiB31cK-120">
          <mxGeometry width="50" height="50" relative="1" as="geometry">
            <mxPoint x="557.5" y="620.1085714285714" as="sourcePoint" />
            <mxPoint x="632.5" y="652.2514285714285" as="targetPoint" />
          </mxGeometry>
        </mxCell>
        <mxCell id="Dmx9H3TW1Ro3idiB31cK-131" value="" style="endArrow=openThin;html=1;rounded=1;entryX=0;entryY=0.5;entryDx=0;entryDy=0;endSize=3;startSize=3;endFill=0;exitX=1;exitY=0.5;exitDx=0;exitDy=0;" edge="1" parent="1" source="Dmx9H3TW1Ro3idiB31cK-158" target="Dmx9H3TW1Ro3idiB31cK-120">
          <mxGeometry width="50" height="50" relative="1" as="geometry">
            <mxPoint x="565" y="627.2514285714285" as="sourcePoint" />
            <mxPoint x="640" y="659.3942857142856" as="targetPoint" />
          </mxGeometry>
        </mxCell>
        <mxCell id="Dmx9H3TW1Ro3idiB31cK-132" value="" style="endArrow=openThin;html=1;rounded=1;entryX=0;entryY=0.5;entryDx=0;entryDy=0;endSize=3;startSize=3;endFill=0;exitX=1;exitY=0.5;exitDx=0;exitDy=0;" edge="1" parent="1" source="Dmx9H3TW1Ro3idiB31cK-155" target="Dmx9H3TW1Ro3idiB31cK-120">
          <mxGeometry width="50" height="50" relative="1" as="geometry">
            <mxPoint x="572.5" y="634.3942857142856" as="sourcePoint" />
            <mxPoint x="647.5" y="666.5371428571428" as="targetPoint" />
          </mxGeometry>
        </mxCell>
        <mxCell id="Dmx9H3TW1Ro3idiB31cK-133" value="" style="endArrow=openThin;html=1;rounded=1;entryX=0;entryY=0.5;entryDx=0;entryDy=0;endSize=3;startSize=3;endFill=0;exitX=1;exitY=0.5;exitDx=0;exitDy=0;" edge="1" parent="1" source="Dmx9H3TW1Ro3idiB31cK-156" target="Dmx9H3TW1Ro3idiB31cK-120">
          <mxGeometry width="50" height="50" relative="1" as="geometry">
            <mxPoint x="580" y="641.5371428571428" as="sourcePoint" />
            <mxPoint x="655" y="673.68" as="targetPoint" />
          </mxGeometry>
        </mxCell>
        <mxCell id="Dmx9H3TW1Ro3idiB31cK-134" value="&lt;font style=&quot;font-size: 18px;&quot; face=&quot;Times New Roman&quot;&gt;Output&lt;/font&gt;" style="text;strokeColor=none;align=center;fillColor=none;html=1;verticalAlign=middle;whiteSpace=wrap;rounded=0;container=0;" vertex="1" parent="1">
          <mxGeometry x="462.5" y="817.9485714285715" width="45" height="21.42857142857143" as="geometry" />
        </mxCell>
        <mxCell id="Dmx9H3TW1Ro3idiB31cK-135" value="" style="shape=curlyBracket;whiteSpace=wrap;html=1;rounded=1;flipH=1;labelPosition=right;verticalLabelPosition=middle;align=left;verticalAlign=middle;container=0;" vertex="1" parent="1">
          <mxGeometry x="507.5" y="656.39" width="15" height="86.46" as="geometry" />
        </mxCell>
        <mxCell id="Dmx9H3TW1Ro3idiB31cK-136" value="&lt;font style=&quot;font-size: 16px;&quot; face=&quot;Times New Roman&quot;&gt;$$M$$&lt;/font&gt;" style="text;strokeColor=none;align=center;fillColor=none;html=1;verticalAlign=middle;whiteSpace=wrap;rounded=0;container=0;" vertex="1" parent="1">
          <mxGeometry x="510" y="688.2257142857143" width="45" height="21.42857142857143" as="geometry" />
        </mxCell>
        <mxCell id="Dmx9H3TW1Ro3idiB31cK-155" value="" style="ellipse;whiteSpace=wrap;html=1;aspect=fixed;fillColor=#DAE8FC;strokeColor=#6C8EBF;container=0;" vertex="1" parent="1">
          <mxGeometry x="345.625" y="752.2514285714285" width="9.183673469387754" height="9.183673469387754" as="geometry" />
        </mxCell>
        <mxCell id="Dmx9H3TW1Ro3idiB31cK-156" value="" style="ellipse;whiteSpace=wrap;html=1;aspect=fixed;fillColor=#DAE8FC;strokeColor=#6C8EBF;container=0;" vertex="1" parent="1">
          <mxGeometry x="345.625" y="737.9657142857142" width="9.183673469387754" height="9.183673469387754" as="geometry" />
        </mxCell>
        <mxCell id="Dmx9H3TW1Ro3idiB31cK-157" value="" style="ellipse;whiteSpace=wrap;html=1;aspect=fixed;fillColor=#FFE599;strokeColor=#FFD966;container=0;" vertex="1" parent="1">
          <mxGeometry x="345.625" y="686.18" width="9.183673469387754" height="9.183673469387754" as="geometry" />
        </mxCell>
        <mxCell id="Dmx9H3TW1Ro3idiB31cK-158" value="" style="ellipse;whiteSpace=wrap;html=1;aspect=fixed;fillColor=#DAE8FC;strokeColor=#6C8EBF;container=0;" vertex="1" parent="1">
          <mxGeometry x="345.625" y="700.4657142857142" width="9.183673469387754" height="9.183673469387754" as="geometry" />
        </mxCell>
        <mxCell id="Dmx9H3TW1Ro3idiB31cK-159" value="" style="endArrow=none;dashed=1;html=1;dashPattern=1 3;strokeWidth=2;rounded=0;entryX=0.5;entryY=1;entryDx=0;entryDy=0;exitX=0.5;exitY=0;exitDx=0;exitDy=0;fontFamily=Times New Roman;fontSize=13;" edge="1" parent="1" source="Dmx9H3TW1Ro3idiB31cK-156" target="Dmx9H3TW1Ro3idiB31cK-158">
          <mxGeometry width="50" height="50" relative="1" as="geometry">
            <mxPoint x="358.75" y="693.68" as="sourcePoint" />
            <mxPoint x="358.75" y="666.5371428571428" as="targetPoint" />
          </mxGeometry>
        </mxCell>
        <mxCell id="Dmx9H3TW1Ro3idiB31cK-160" value="" style="ellipse;whiteSpace=wrap;html=1;aspect=fixed;fillColor=#FFE599;strokeColor=#FFD966;container=0;" vertex="1" parent="1">
          <mxGeometry x="345.625" y="648.68" width="9.183673469387754" height="9.183673469387754" as="geometry" />
        </mxCell>
        <mxCell id="Dmx9H3TW1Ro3idiB31cK-161" value="" style="endArrow=none;dashed=1;html=1;dashPattern=1 3;strokeWidth=2;rounded=0;entryX=0.5;entryY=1;entryDx=0;entryDy=0;exitX=0.5;exitY=0;exitDx=0;exitDy=0;fontFamily=Times New Roman;fontSize=13;" edge="1" parent="1" source="Dmx9H3TW1Ro3idiB31cK-157" target="Dmx9H3TW1Ro3idiB31cK-160">
          <mxGeometry width="50" height="50" relative="1" as="geometry">
            <mxPoint x="542.5" y="948.68" as="sourcePoint" />
            <mxPoint x="580" y="912.9657142857142" as="targetPoint" />
          </mxGeometry>
        </mxCell>
        <mxCell id="Dmx9H3TW1Ro3idiB31cK-162" value="" style="ellipse;whiteSpace=wrap;html=1;aspect=fixed;fillColor=#FFE599;strokeColor=#FFD966;container=0;" vertex="1" parent="1">
          <mxGeometry x="345.625" y="634.3942857142856" width="9.183673469387754" height="9.183673469387754" as="geometry" />
        </mxCell>
        <mxCell id="Dmx9H3TW1Ro3idiB31cK-163" value="&lt;font style=&quot;font-size: 20px;&quot; face=&quot;Times New Roman&quot;&gt;Linear&lt;/font&gt;" style="text;strokeColor=none;align=center;fillColor=none;html=1;verticalAlign=middle;whiteSpace=wrap;rounded=0;" vertex="1" parent="1">
          <mxGeometry x="485.5" y="598.2828571428572" width="45" height="21.42857142857143" as="geometry" />
        </mxCell>
        <mxCell id="Dmx9H3TW1Ro3idiB31cK-564" value="" style="group" vertex="1" connectable="0" parent="1">
          <mxGeometry x="275" y="609.0342857142856" width="273" height="230.30571428571443" as="geometry" />
        </mxCell>
        <mxCell id="Dmx9H3TW1Ro3idiB31cK-137" value="" style="whiteSpace=wrap;html=1;aspect=fixed;fillColor=#FFE599;strokeColor=#FFD966;container=0;" vertex="1" parent="Dmx9H3TW1Ro3idiB31cK-564">
          <mxGeometry width="9.183673469387754" height="9.183673469387754" as="geometry" />
        </mxCell>
        <mxCell id="Dmx9H3TW1Ro3idiB31cK-138" value="" style="whiteSpace=wrap;html=1;aspect=fixed;fillColor=#FFE599;strokeColor=#FFD966;container=0;" vertex="1" parent="Dmx9H3TW1Ro3idiB31cK-564">
          <mxGeometry y="10.71428571428578" width="9.183673469387754" height="9.183673469387754" as="geometry" />
        </mxCell>
        <mxCell id="Dmx9H3TW1Ro3idiB31cK-139" value="" style="whiteSpace=wrap;html=1;aspect=fixed;fillColor=#FFE599;strokeColor=#FFD966;container=0;" vertex="1" parent="Dmx9H3TW1Ro3idiB31cK-564">
          <mxGeometry y="21.428571428571445" width="9.183673469387754" height="9.183673469387754" as="geometry" />
        </mxCell>
        <mxCell id="Dmx9H3TW1Ro3idiB31cK-140" value="" style="whiteSpace=wrap;html=1;aspect=fixed;fillColor=#FFE599;strokeColor=#FFD966;container=0;" vertex="1" parent="Dmx9H3TW1Ro3idiB31cK-564">
          <mxGeometry y="32.142857142857224" width="9.183673469387754" height="9.183673469387754" as="geometry" />
        </mxCell>
        <mxCell id="Dmx9H3TW1Ro3idiB31cK-141" value="" style="whiteSpace=wrap;html=1;aspect=fixed;fillColor=#FFE599;strokeColor=#FFD966;container=0;" vertex="1" parent="Dmx9H3TW1Ro3idiB31cK-564">
          <mxGeometry y="42.85714285714289" width="9.183673469387754" height="9.183673469387754" as="geometry" />
        </mxCell>
        <mxCell id="Dmx9H3TW1Ro3idiB31cK-142" value="" style="whiteSpace=wrap;html=1;aspect=fixed;fillColor=#FFE599;strokeColor=#FFD966;container=0;" vertex="1" parent="Dmx9H3TW1Ro3idiB31cK-564">
          <mxGeometry y="53.571428571428555" width="9.183673469387754" height="9.183673469387754" as="geometry" />
        </mxCell>
        <mxCell id="Dmx9H3TW1Ro3idiB31cK-143" value="" style="whiteSpace=wrap;html=1;aspect=fixed;fillColor=#dae8fc;strokeColor=#6c8ebf;container=0;" vertex="1" parent="Dmx9H3TW1Ro3idiB31cK-564">
          <mxGeometry y="64.28571428571433" width="9.183673469387754" height="9.183673469387754" as="geometry" />
        </mxCell>
        <mxCell id="Dmx9H3TW1Ro3idiB31cK-144" value="" style="whiteSpace=wrap;html=1;aspect=fixed;fillColor=#dae8fc;strokeColor=#6c8ebf;container=0;" vertex="1" parent="Dmx9H3TW1Ro3idiB31cK-564">
          <mxGeometry y="75.00000000000011" width="9.183673469387754" height="9.183673469387754" as="geometry" />
        </mxCell>
        <mxCell id="Dmx9H3TW1Ro3idiB31cK-145" value="" style="whiteSpace=wrap;html=1;aspect=fixed;fillColor=#dae8fc;strokeColor=#6c8ebf;container=0;" vertex="1" parent="Dmx9H3TW1Ro3idiB31cK-564">
          <mxGeometry y="85.71428571428578" width="9.183673469387754" height="9.183673469387754" as="geometry" />
        </mxCell>
        <mxCell id="Dmx9H3TW1Ro3idiB31cK-146" value="" style="whiteSpace=wrap;html=1;aspect=fixed;fillColor=#dae8fc;strokeColor=#6c8ebf;container=0;" vertex="1" parent="Dmx9H3TW1Ro3idiB31cK-564">
          <mxGeometry y="96.42857142857144" width="9.183673469387754" height="9.183673469387754" as="geometry" />
        </mxCell>
        <mxCell id="Dmx9H3TW1Ro3idiB31cK-147" value="" style="whiteSpace=wrap;html=1;aspect=fixed;fillColor=#dae8fc;strokeColor=#6c8ebf;container=0;" vertex="1" parent="Dmx9H3TW1Ro3idiB31cK-564">
          <mxGeometry y="107.14285714285722" width="9.183673469387754" height="9.183673469387754" as="geometry" />
        </mxCell>
        <mxCell id="Dmx9H3TW1Ro3idiB31cK-148" value="" style="whiteSpace=wrap;html=1;aspect=fixed;fillColor=#dae8fc;strokeColor=#6c8ebf;container=0;" vertex="1" parent="Dmx9H3TW1Ro3idiB31cK-564">
          <mxGeometry y="117.85714285714289" width="9.183673469387754" height="9.183673469387754" as="geometry" />
        </mxCell>
        <mxCell id="Dmx9H3TW1Ro3idiB31cK-516" value="" style="whiteSpace=wrap;html=1;aspect=fixed;fillColor=#FFE599;strokeColor=#FFD966;container=0;" vertex="1" parent="Dmx9H3TW1Ro3idiB31cK-564">
          <mxGeometry x="10" y="10" width="9.183673469387754" height="9.183673469387754" as="geometry" />
        </mxCell>
        <mxCell id="Dmx9H3TW1Ro3idiB31cK-517" value="" style="whiteSpace=wrap;html=1;aspect=fixed;fillColor=#FFE599;strokeColor=#FFD966;container=0;" vertex="1" parent="Dmx9H3TW1Ro3idiB31cK-564">
          <mxGeometry x="10" y="20.71428571428578" width="9.183673469387754" height="9.183673469387754" as="geometry" />
        </mxCell>
        <mxCell id="Dmx9H3TW1Ro3idiB31cK-518" value="" style="whiteSpace=wrap;html=1;aspect=fixed;fillColor=#FFE599;strokeColor=#FFD966;container=0;" vertex="1" parent="Dmx9H3TW1Ro3idiB31cK-564">
          <mxGeometry x="10" y="31.428571428571445" width="9.183673469387754" height="9.183673469387754" as="geometry" />
        </mxCell>
        <mxCell id="Dmx9H3TW1Ro3idiB31cK-519" value="" style="whiteSpace=wrap;html=1;aspect=fixed;fillColor=#FFE599;strokeColor=#FFD966;container=0;" vertex="1" parent="Dmx9H3TW1Ro3idiB31cK-564">
          <mxGeometry x="10" y="42.142857142857224" width="9.183673469387754" height="9.183673469387754" as="geometry" />
        </mxCell>
        <mxCell id="Dmx9H3TW1Ro3idiB31cK-520" value="" style="whiteSpace=wrap;html=1;aspect=fixed;fillColor=#FFE599;strokeColor=#FFD966;container=0;" vertex="1" parent="Dmx9H3TW1Ro3idiB31cK-564">
          <mxGeometry x="10" y="52.85714285714289" width="9.183673469387754" height="9.183673469387754" as="geometry" />
        </mxCell>
        <mxCell id="Dmx9H3TW1Ro3idiB31cK-521" value="" style="whiteSpace=wrap;html=1;aspect=fixed;fillColor=#FFE599;strokeColor=#FFD966;container=0;" vertex="1" parent="Dmx9H3TW1Ro3idiB31cK-564">
          <mxGeometry x="10" y="63.571428571428555" width="9.183673469387754" height="9.183673469387754" as="geometry" />
        </mxCell>
        <mxCell id="Dmx9H3TW1Ro3idiB31cK-522" value="" style="whiteSpace=wrap;html=1;aspect=fixed;fillColor=#dae8fc;strokeColor=#6c8ebf;container=0;" vertex="1" parent="Dmx9H3TW1Ro3idiB31cK-564">
          <mxGeometry x="10" y="74.28571428571433" width="9.183673469387754" height="9.183673469387754" as="geometry" />
        </mxCell>
        <mxCell id="Dmx9H3TW1Ro3idiB31cK-523" value="" style="whiteSpace=wrap;html=1;aspect=fixed;fillColor=#dae8fc;strokeColor=#6c8ebf;container=0;" vertex="1" parent="Dmx9H3TW1Ro3idiB31cK-564">
          <mxGeometry x="10" y="85.00000000000011" width="9.183673469387754" height="9.183673469387754" as="geometry" />
        </mxCell>
        <mxCell id="Dmx9H3TW1Ro3idiB31cK-524" value="" style="whiteSpace=wrap;html=1;aspect=fixed;fillColor=#dae8fc;strokeColor=#6c8ebf;container=0;" vertex="1" parent="Dmx9H3TW1Ro3idiB31cK-564">
          <mxGeometry x="10" y="95.71428571428578" width="9.183673469387754" height="9.183673469387754" as="geometry" />
        </mxCell>
        <mxCell id="Dmx9H3TW1Ro3idiB31cK-525" value="" style="whiteSpace=wrap;html=1;aspect=fixed;fillColor=#dae8fc;strokeColor=#6c8ebf;container=0;" vertex="1" parent="Dmx9H3TW1Ro3idiB31cK-564">
          <mxGeometry x="10" y="106.42857142857144" width="9.183673469387754" height="9.183673469387754" as="geometry" />
        </mxCell>
        <mxCell id="Dmx9H3TW1Ro3idiB31cK-526" value="" style="whiteSpace=wrap;html=1;aspect=fixed;fillColor=#dae8fc;strokeColor=#6c8ebf;container=0;" vertex="1" parent="Dmx9H3TW1Ro3idiB31cK-564">
          <mxGeometry x="10" y="117.14285714285722" width="9.183673469387754" height="9.183673469387754" as="geometry" />
        </mxCell>
        <mxCell id="Dmx9H3TW1Ro3idiB31cK-527" value="" style="whiteSpace=wrap;html=1;aspect=fixed;fillColor=#dae8fc;strokeColor=#6c8ebf;container=0;" vertex="1" parent="Dmx9H3TW1Ro3idiB31cK-564">
          <mxGeometry x="10" y="127.85714285714289" width="9.183673469387754" height="9.183673469387754" as="geometry" />
        </mxCell>
        <mxCell id="Dmx9H3TW1Ro3idiB31cK-528" value="" style="whiteSpace=wrap;html=1;aspect=fixed;fillColor=#FFE599;strokeColor=#FFD966;container=0;" vertex="1" parent="Dmx9H3TW1Ro3idiB31cK-564">
          <mxGeometry x="20" y="20" width="9.183673469387754" height="9.183673469387754" as="geometry" />
        </mxCell>
        <mxCell id="Dmx9H3TW1Ro3idiB31cK-529" value="" style="whiteSpace=wrap;html=1;aspect=fixed;fillColor=#FFE599;strokeColor=#FFD966;container=0;" vertex="1" parent="Dmx9H3TW1Ro3idiB31cK-564">
          <mxGeometry x="20" y="30.71428571428578" width="9.183673469387754" height="9.183673469387754" as="geometry" />
        </mxCell>
        <mxCell id="Dmx9H3TW1Ro3idiB31cK-530" value="" style="whiteSpace=wrap;html=1;aspect=fixed;fillColor=#FFE599;strokeColor=#FFD966;container=0;" vertex="1" parent="Dmx9H3TW1Ro3idiB31cK-564">
          <mxGeometry x="20" y="41.428571428571445" width="9.183673469387754" height="9.183673469387754" as="geometry" />
        </mxCell>
        <mxCell id="Dmx9H3TW1Ro3idiB31cK-531" value="" style="whiteSpace=wrap;html=1;aspect=fixed;fillColor=#FFE599;strokeColor=#FFD966;container=0;" vertex="1" parent="Dmx9H3TW1Ro3idiB31cK-564">
          <mxGeometry x="20" y="52.142857142857224" width="9.183673469387754" height="9.183673469387754" as="geometry" />
        </mxCell>
        <mxCell id="Dmx9H3TW1Ro3idiB31cK-532" value="" style="whiteSpace=wrap;html=1;aspect=fixed;fillColor=#FFE599;strokeColor=#FFD966;container=0;" vertex="1" parent="Dmx9H3TW1Ro3idiB31cK-564">
          <mxGeometry x="20" y="62.85714285714289" width="9.183673469387754" height="9.183673469387754" as="geometry" />
        </mxCell>
        <mxCell id="Dmx9H3TW1Ro3idiB31cK-533" value="" style="whiteSpace=wrap;html=1;aspect=fixed;fillColor=#FFE599;strokeColor=#FFD966;container=0;" vertex="1" parent="Dmx9H3TW1Ro3idiB31cK-564">
          <mxGeometry x="20" y="73.57142857142856" width="9.183673469387754" height="9.183673469387754" as="geometry" />
        </mxCell>
        <mxCell id="Dmx9H3TW1Ro3idiB31cK-534" value="" style="whiteSpace=wrap;html=1;aspect=fixed;fillColor=#dae8fc;strokeColor=#6c8ebf;container=0;" vertex="1" parent="Dmx9H3TW1Ro3idiB31cK-564">
          <mxGeometry x="20" y="84.28571428571433" width="9.183673469387754" height="9.183673469387754" as="geometry" />
        </mxCell>
        <mxCell id="Dmx9H3TW1Ro3idiB31cK-535" value="" style="whiteSpace=wrap;html=1;aspect=fixed;fillColor=#dae8fc;strokeColor=#6c8ebf;container=0;" vertex="1" parent="Dmx9H3TW1Ro3idiB31cK-564">
          <mxGeometry x="20" y="95.00000000000011" width="9.183673469387754" height="9.183673469387754" as="geometry" />
        </mxCell>
        <mxCell id="Dmx9H3TW1Ro3idiB31cK-536" value="" style="whiteSpace=wrap;html=1;aspect=fixed;fillColor=#dae8fc;strokeColor=#6c8ebf;container=0;" vertex="1" parent="Dmx9H3TW1Ro3idiB31cK-564">
          <mxGeometry x="20" y="105.71428571428578" width="9.183673469387754" height="9.183673469387754" as="geometry" />
        </mxCell>
        <mxCell id="Dmx9H3TW1Ro3idiB31cK-537" value="" style="whiteSpace=wrap;html=1;aspect=fixed;fillColor=#dae8fc;strokeColor=#6c8ebf;container=0;" vertex="1" parent="Dmx9H3TW1Ro3idiB31cK-564">
          <mxGeometry x="20" y="116.42857142857144" width="9.183673469387754" height="9.183673469387754" as="geometry" />
        </mxCell>
        <mxCell id="Dmx9H3TW1Ro3idiB31cK-538" value="" style="whiteSpace=wrap;html=1;aspect=fixed;fillColor=#dae8fc;strokeColor=#6c8ebf;container=0;" vertex="1" parent="Dmx9H3TW1Ro3idiB31cK-564">
          <mxGeometry x="20" y="127.14285714285722" width="9.183673469387754" height="9.183673469387754" as="geometry" />
        </mxCell>
        <mxCell id="Dmx9H3TW1Ro3idiB31cK-539" value="" style="whiteSpace=wrap;html=1;aspect=fixed;fillColor=#dae8fc;strokeColor=#6c8ebf;container=0;" vertex="1" parent="Dmx9H3TW1Ro3idiB31cK-564">
          <mxGeometry x="20" y="137.8571428571429" width="9.183673469387754" height="9.183673469387754" as="geometry" />
        </mxCell>
        <mxCell id="Dmx9H3TW1Ro3idiB31cK-540" value="" style="whiteSpace=wrap;html=1;aspect=fixed;fillColor=#FFE599;strokeColor=#FFD966;container=0;" vertex="1" parent="Dmx9H3TW1Ro3idiB31cK-564">
          <mxGeometry x="30" y="30" width="9.183673469387754" height="9.183673469387754" as="geometry" />
        </mxCell>
        <mxCell id="Dmx9H3TW1Ro3idiB31cK-541" value="" style="whiteSpace=wrap;html=1;aspect=fixed;fillColor=#FFE599;strokeColor=#FFD966;container=0;" vertex="1" parent="Dmx9H3TW1Ro3idiB31cK-564">
          <mxGeometry x="30" y="40.71428571428578" width="9.183673469387754" height="9.183673469387754" as="geometry" />
        </mxCell>
        <mxCell id="Dmx9H3TW1Ro3idiB31cK-542" value="" style="whiteSpace=wrap;html=1;aspect=fixed;fillColor=#FFE599;strokeColor=#FFD966;container=0;" vertex="1" parent="Dmx9H3TW1Ro3idiB31cK-564">
          <mxGeometry x="30" y="51.428571428571445" width="9.183673469387754" height="9.183673469387754" as="geometry" />
        </mxCell>
        <mxCell id="Dmx9H3TW1Ro3idiB31cK-543" value="" style="whiteSpace=wrap;html=1;aspect=fixed;fillColor=#FFE599;strokeColor=#FFD966;container=0;" vertex="1" parent="Dmx9H3TW1Ro3idiB31cK-564">
          <mxGeometry x="30" y="62.142857142857224" width="9.183673469387754" height="9.183673469387754" as="geometry" />
        </mxCell>
        <mxCell id="Dmx9H3TW1Ro3idiB31cK-544" value="" style="whiteSpace=wrap;html=1;aspect=fixed;fillColor=#FFE599;strokeColor=#FFD966;container=0;" vertex="1" parent="Dmx9H3TW1Ro3idiB31cK-564">
          <mxGeometry x="30" y="72.85714285714289" width="9.183673469387754" height="9.183673469387754" as="geometry" />
        </mxCell>
        <mxCell id="Dmx9H3TW1Ro3idiB31cK-545" value="" style="whiteSpace=wrap;html=1;aspect=fixed;fillColor=#FFE599;strokeColor=#FFD966;container=0;" vertex="1" parent="Dmx9H3TW1Ro3idiB31cK-564">
          <mxGeometry x="30" y="83.57142857142856" width="9.183673469387754" height="9.183673469387754" as="geometry" />
        </mxCell>
        <mxCell id="Dmx9H3TW1Ro3idiB31cK-546" value="" style="whiteSpace=wrap;html=1;aspect=fixed;fillColor=#dae8fc;strokeColor=#6c8ebf;container=0;" vertex="1" parent="Dmx9H3TW1Ro3idiB31cK-564">
          <mxGeometry x="30" y="94.28571428571433" width="9.183673469387754" height="9.183673469387754" as="geometry" />
        </mxCell>
        <mxCell id="Dmx9H3TW1Ro3idiB31cK-547" value="" style="whiteSpace=wrap;html=1;aspect=fixed;fillColor=#dae8fc;strokeColor=#6c8ebf;container=0;" vertex="1" parent="Dmx9H3TW1Ro3idiB31cK-564">
          <mxGeometry x="30" y="105.00000000000011" width="9.183673469387754" height="9.183673469387754" as="geometry" />
        </mxCell>
        <mxCell id="Dmx9H3TW1Ro3idiB31cK-548" value="" style="whiteSpace=wrap;html=1;aspect=fixed;fillColor=#dae8fc;strokeColor=#6c8ebf;container=0;" vertex="1" parent="Dmx9H3TW1Ro3idiB31cK-564">
          <mxGeometry x="30" y="115.71428571428578" width="9.183673469387754" height="9.183673469387754" as="geometry" />
        </mxCell>
        <mxCell id="Dmx9H3TW1Ro3idiB31cK-549" value="" style="whiteSpace=wrap;html=1;aspect=fixed;fillColor=#dae8fc;strokeColor=#6c8ebf;container=0;" vertex="1" parent="Dmx9H3TW1Ro3idiB31cK-564">
          <mxGeometry x="30" y="126.42857142857144" width="9.183673469387754" height="9.183673469387754" as="geometry" />
        </mxCell>
        <mxCell id="Dmx9H3TW1Ro3idiB31cK-550" value="" style="whiteSpace=wrap;html=1;aspect=fixed;fillColor=#dae8fc;strokeColor=#6c8ebf;container=0;" vertex="1" parent="Dmx9H3TW1Ro3idiB31cK-564">
          <mxGeometry x="30" y="137.14285714285722" width="9.183673469387754" height="9.183673469387754" as="geometry" />
        </mxCell>
        <mxCell id="Dmx9H3TW1Ro3idiB31cK-551" value="" style="whiteSpace=wrap;html=1;aspect=fixed;fillColor=#dae8fc;strokeColor=#6c8ebf;container=0;" vertex="1" parent="Dmx9H3TW1Ro3idiB31cK-564">
          <mxGeometry x="30" y="147.8571428571429" width="9.183673469387754" height="9.183673469387754" as="geometry" />
        </mxCell>
        <mxCell id="Dmx9H3TW1Ro3idiB31cK-552" value="" style="whiteSpace=wrap;html=1;aspect=fixed;fillColor=#FFE599;strokeColor=#FFD966;container=0;" vertex="1" parent="Dmx9H3TW1Ro3idiB31cK-564">
          <mxGeometry x="40" y="40" width="9.183673469387754" height="9.183673469387754" as="geometry" />
        </mxCell>
        <mxCell id="Dmx9H3TW1Ro3idiB31cK-553" value="" style="whiteSpace=wrap;html=1;aspect=fixed;fillColor=#FFE599;strokeColor=#FFD966;container=0;" vertex="1" parent="Dmx9H3TW1Ro3idiB31cK-564">
          <mxGeometry x="40" y="50.71428571428578" width="9.183673469387754" height="9.183673469387754" as="geometry" />
        </mxCell>
        <mxCell id="Dmx9H3TW1Ro3idiB31cK-554" value="" style="whiteSpace=wrap;html=1;aspect=fixed;fillColor=#FFE599;strokeColor=#FFD966;container=0;" vertex="1" parent="Dmx9H3TW1Ro3idiB31cK-564">
          <mxGeometry x="40" y="61.428571428571445" width="9.183673469387754" height="9.183673469387754" as="geometry" />
        </mxCell>
        <mxCell id="Dmx9H3TW1Ro3idiB31cK-555" value="" style="whiteSpace=wrap;html=1;aspect=fixed;fillColor=#FFE599;strokeColor=#FFD966;container=0;" vertex="1" parent="Dmx9H3TW1Ro3idiB31cK-564">
          <mxGeometry x="40" y="72.14285714285722" width="9.183673469387754" height="9.183673469387754" as="geometry" />
        </mxCell>
        <mxCell id="Dmx9H3TW1Ro3idiB31cK-556" value="" style="whiteSpace=wrap;html=1;aspect=fixed;fillColor=#FFE599;strokeColor=#FFD966;container=0;" vertex="1" parent="Dmx9H3TW1Ro3idiB31cK-564">
          <mxGeometry x="40" y="82.85714285714289" width="9.183673469387754" height="9.183673469387754" as="geometry" />
        </mxCell>
        <mxCell id="Dmx9H3TW1Ro3idiB31cK-557" value="" style="whiteSpace=wrap;html=1;aspect=fixed;fillColor=#FFE599;strokeColor=#FFD966;container=0;" vertex="1" parent="Dmx9H3TW1Ro3idiB31cK-564">
          <mxGeometry x="40" y="93.57142857142856" width="9.183673469387754" height="9.183673469387754" as="geometry" />
        </mxCell>
        <mxCell id="Dmx9H3TW1Ro3idiB31cK-558" value="" style="whiteSpace=wrap;html=1;aspect=fixed;fillColor=#dae8fc;strokeColor=#6c8ebf;container=0;" vertex="1" parent="Dmx9H3TW1Ro3idiB31cK-564">
          <mxGeometry x="40" y="104.28571428571433" width="9.183673469387754" height="9.183673469387754" as="geometry" />
        </mxCell>
        <mxCell id="Dmx9H3TW1Ro3idiB31cK-559" value="" style="whiteSpace=wrap;html=1;aspect=fixed;fillColor=#dae8fc;strokeColor=#6c8ebf;container=0;" vertex="1" parent="Dmx9H3TW1Ro3idiB31cK-564">
          <mxGeometry x="40" y="115.00000000000011" width="9.183673469387754" height="9.183673469387754" as="geometry" />
        </mxCell>
        <mxCell id="Dmx9H3TW1Ro3idiB31cK-560" value="" style="whiteSpace=wrap;html=1;aspect=fixed;fillColor=#dae8fc;strokeColor=#6c8ebf;container=0;" vertex="1" parent="Dmx9H3TW1Ro3idiB31cK-564">
          <mxGeometry x="40" y="125.71428571428578" width="9.183673469387754" height="9.183673469387754" as="geometry" />
        </mxCell>
        <mxCell id="Dmx9H3TW1Ro3idiB31cK-561" value="" style="whiteSpace=wrap;html=1;aspect=fixed;fillColor=#dae8fc;strokeColor=#6c8ebf;container=0;" vertex="1" parent="Dmx9H3TW1Ro3idiB31cK-564">
          <mxGeometry x="40" y="136.42857142857144" width="9.183673469387754" height="9.183673469387754" as="geometry" />
        </mxCell>
        <mxCell id="Dmx9H3TW1Ro3idiB31cK-562" value="" style="whiteSpace=wrap;html=1;aspect=fixed;fillColor=#dae8fc;strokeColor=#6c8ebf;container=0;" vertex="1" parent="Dmx9H3TW1Ro3idiB31cK-564">
          <mxGeometry x="40" y="147.14285714285722" width="9.183673469387754" height="9.183673469387754" as="geometry" />
        </mxCell>
        <mxCell id="Dmx9H3TW1Ro3idiB31cK-563" value="" style="whiteSpace=wrap;html=1;aspect=fixed;fillColor=#dae8fc;strokeColor=#6c8ebf;container=0;" vertex="1" parent="Dmx9H3TW1Ro3idiB31cK-564">
          <mxGeometry x="40" y="157.8571428571429" width="9.183673469387754" height="9.183673469387754" as="geometry" />
        </mxCell>
        <mxCell id="Dmx9H3TW1Ro3idiB31cK-115" value="" style="rounded=1;whiteSpace=wrap;html=1;strokeColor=#23445d;strokeWidth=1;fontFamily=Times New Roman;fillColor=none;container=0;movable=1;resizable=1;rotatable=1;deletable=1;editable=1;locked=0;connectable=1;direction=east;dashed=1;" vertex="1" parent="Dmx9H3TW1Ro3idiB31cK-564">
          <mxGeometry x="-45" y="-29.69" width="315" height="259.69" as="geometry" />
        </mxCell>
        <mxCell id="Dmx9H3TW1Ro3idiB31cK-653" value="" style="group" vertex="1" connectable="0" parent="1">
          <mxGeometry x="454.995" y="656.3871428571429" width="45.90367346938777" height="82.75510204081627" as="geometry" />
        </mxCell>
        <mxCell id="Dmx9H3TW1Ro3idiB31cK-596" value="" style="group" vertex="1" connectable="0" parent="Dmx9H3TW1Ro3idiB31cK-653">
          <mxGeometry width="36.72367346938776" height="78.83510204081625" as="geometry" />
        </mxCell>
        <mxCell id="Dmx9H3TW1Ro3idiB31cK-149" value="" style="whiteSpace=wrap;html=1;aspect=fixed;fillColor=#B9E0A5;strokeColor=#97D077;container=0;" vertex="1" parent="Dmx9H3TW1Ro3idiB31cK-596">
          <mxGeometry width="9.183673469387754" height="9.183673469387754" as="geometry" />
        </mxCell>
        <mxCell id="Dmx9H3TW1Ro3idiB31cK-150" value="" style="whiteSpace=wrap;html=1;aspect=fixed;fillColor=#B9E0A5;strokeColor=#97D077;container=0;" vertex="1" parent="Dmx9H3TW1Ro3idiB31cK-596">
          <mxGeometry y="10.714285714285666" width="9.183673469387754" height="9.183673469387754" as="geometry" />
        </mxCell>
        <mxCell id="Dmx9H3TW1Ro3idiB31cK-151" value="" style="whiteSpace=wrap;html=1;aspect=fixed;fillColor=#B9E0A5;strokeColor=#97D077;container=0;" vertex="1" parent="Dmx9H3TW1Ro3idiB31cK-596">
          <mxGeometry y="21.42857142857133" width="9.183673469387754" height="9.183673469387754" as="geometry" />
        </mxCell>
        <mxCell id="Dmx9H3TW1Ro3idiB31cK-152" value="" style="whiteSpace=wrap;html=1;aspect=fixed;fillColor=#B9E0A5;strokeColor=#97D077;container=0;" vertex="1" parent="Dmx9H3TW1Ro3idiB31cK-596">
          <mxGeometry y="32.14285714285711" width="9.183673469387754" height="9.183673469387754" as="geometry" />
        </mxCell>
        <mxCell id="Dmx9H3TW1Ro3idiB31cK-153" value="" style="whiteSpace=wrap;html=1;aspect=fixed;fillColor=#B9E0A5;strokeColor=#97D077;container=0;" vertex="1" parent="Dmx9H3TW1Ro3idiB31cK-596">
          <mxGeometry y="42.85714285714289" width="9.183673469387754" height="9.183673469387754" as="geometry" />
        </mxCell>
        <mxCell id="Dmx9H3TW1Ro3idiB31cK-154" value="" style="whiteSpace=wrap;html=1;aspect=fixed;fillColor=#B9E0A5;strokeColor=#97D077;container=0;" vertex="1" parent="Dmx9H3TW1Ro3idiB31cK-596">
          <mxGeometry y="53.571428571428555" width="9.183673469387754" height="9.183673469387754" as="geometry" />
        </mxCell>
        <mxCell id="Dmx9H3TW1Ro3idiB31cK-625" value="" style="group" vertex="1" connectable="0" parent="Dmx9H3TW1Ro3idiB31cK-596">
          <mxGeometry x="9.180000000000007" y="5.360000000000014" width="27.543673469387755" height="73.47510204081624" as="geometry" />
        </mxCell>
        <mxCell id="Dmx9H3TW1Ro3idiB31cK-626" value="" style="whiteSpace=wrap;html=1;aspect=fixed;fillColor=#B9E0A5;strokeColor=#97D077;container=0;" vertex="1" parent="Dmx9H3TW1Ro3idiB31cK-625">
          <mxGeometry width="9.183673469387754" height="9.183673469387754" as="geometry" />
        </mxCell>
        <mxCell id="Dmx9H3TW1Ro3idiB31cK-627" value="" style="whiteSpace=wrap;html=1;aspect=fixed;fillColor=#B9E0A5;strokeColor=#97D077;container=0;" vertex="1" parent="Dmx9H3TW1Ro3idiB31cK-625">
          <mxGeometry y="10.714285714285666" width="9.183673469387754" height="9.183673469387754" as="geometry" />
        </mxCell>
        <mxCell id="Dmx9H3TW1Ro3idiB31cK-628" value="" style="whiteSpace=wrap;html=1;aspect=fixed;fillColor=#B9E0A5;strokeColor=#97D077;container=0;" vertex="1" parent="Dmx9H3TW1Ro3idiB31cK-625">
          <mxGeometry y="21.42857142857133" width="9.183673469387754" height="9.183673469387754" as="geometry" />
        </mxCell>
        <mxCell id="Dmx9H3TW1Ro3idiB31cK-629" value="" style="whiteSpace=wrap;html=1;aspect=fixed;fillColor=#B9E0A5;strokeColor=#97D077;container=0;" vertex="1" parent="Dmx9H3TW1Ro3idiB31cK-625">
          <mxGeometry y="32.14285714285711" width="9.183673469387754" height="9.183673469387754" as="geometry" />
        </mxCell>
        <mxCell id="Dmx9H3TW1Ro3idiB31cK-630" value="" style="whiteSpace=wrap;html=1;aspect=fixed;fillColor=#B9E0A5;strokeColor=#97D077;container=0;" vertex="1" parent="Dmx9H3TW1Ro3idiB31cK-625">
          <mxGeometry y="42.85714285714289" width="9.183673469387754" height="9.183673469387754" as="geometry" />
        </mxCell>
        <mxCell id="Dmx9H3TW1Ro3idiB31cK-631" value="" style="whiteSpace=wrap;html=1;aspect=fixed;fillColor=#B9E0A5;strokeColor=#97D077;container=0;" vertex="1" parent="Dmx9H3TW1Ro3idiB31cK-625">
          <mxGeometry y="53.571428571428555" width="9.183673469387754" height="9.183673469387754" as="geometry" />
        </mxCell>
        <mxCell id="Dmx9H3TW1Ro3idiB31cK-632" value="" style="group" vertex="1" connectable="0" parent="Dmx9H3TW1Ro3idiB31cK-625">
          <mxGeometry x="9.180000000000007" y="5.360000000000014" width="18.36367346938775" height="68.11510204081623" as="geometry" />
        </mxCell>
        <mxCell id="Dmx9H3TW1Ro3idiB31cK-633" value="" style="whiteSpace=wrap;html=1;aspect=fixed;fillColor=#B9E0A5;strokeColor=#97D077;container=0;" vertex="1" parent="Dmx9H3TW1Ro3idiB31cK-632">
          <mxGeometry width="9.183673469387754" height="9.183673469387754" as="geometry" />
        </mxCell>
        <mxCell id="Dmx9H3TW1Ro3idiB31cK-634" value="" style="whiteSpace=wrap;html=1;aspect=fixed;fillColor=#B9E0A5;strokeColor=#97D077;container=0;" vertex="1" parent="Dmx9H3TW1Ro3idiB31cK-632">
          <mxGeometry y="10.714285714285666" width="9.183673469387754" height="9.183673469387754" as="geometry" />
        </mxCell>
        <mxCell id="Dmx9H3TW1Ro3idiB31cK-635" value="" style="whiteSpace=wrap;html=1;aspect=fixed;fillColor=#B9E0A5;strokeColor=#97D077;container=0;" vertex="1" parent="Dmx9H3TW1Ro3idiB31cK-632">
          <mxGeometry y="21.42857142857133" width="9.183673469387754" height="9.183673469387754" as="geometry" />
        </mxCell>
        <mxCell id="Dmx9H3TW1Ro3idiB31cK-636" value="" style="whiteSpace=wrap;html=1;aspect=fixed;fillColor=#B9E0A5;strokeColor=#97D077;container=0;" vertex="1" parent="Dmx9H3TW1Ro3idiB31cK-632">
          <mxGeometry y="32.14285714285711" width="9.183673469387754" height="9.183673469387754" as="geometry" />
        </mxCell>
        <mxCell id="Dmx9H3TW1Ro3idiB31cK-637" value="" style="whiteSpace=wrap;html=1;aspect=fixed;fillColor=#B9E0A5;strokeColor=#97D077;container=0;" vertex="1" parent="Dmx9H3TW1Ro3idiB31cK-632">
          <mxGeometry y="42.85714285714289" width="9.183673469387754" height="9.183673469387754" as="geometry" />
        </mxCell>
        <mxCell id="Dmx9H3TW1Ro3idiB31cK-638" value="" style="whiteSpace=wrap;html=1;aspect=fixed;fillColor=#B9E0A5;strokeColor=#97D077;container=0;" vertex="1" parent="Dmx9H3TW1Ro3idiB31cK-632">
          <mxGeometry y="53.571428571428555" width="9.183673469387754" height="9.183673469387754" as="geometry" />
        </mxCell>
        <mxCell id="Dmx9H3TW1Ro3idiB31cK-639" value="" style="group" vertex="1" connectable="0" parent="Dmx9H3TW1Ro3idiB31cK-632">
          <mxGeometry x="9.179999999999978" y="5.359999999999957" width="9.18367346938777" height="62.75510204081627" as="geometry" />
        </mxCell>
        <mxCell id="Dmx9H3TW1Ro3idiB31cK-640" value="" style="whiteSpace=wrap;html=1;aspect=fixed;fillColor=#B9E0A5;strokeColor=#97D077;container=0;" vertex="1" parent="Dmx9H3TW1Ro3idiB31cK-639">
          <mxGeometry width="9.183673469387754" height="9.183673469387754" as="geometry" />
        </mxCell>
        <mxCell id="Dmx9H3TW1Ro3idiB31cK-641" value="" style="whiteSpace=wrap;html=1;aspect=fixed;fillColor=#B9E0A5;strokeColor=#97D077;container=0;" vertex="1" parent="Dmx9H3TW1Ro3idiB31cK-639">
          <mxGeometry y="10.714285714285666" width="9.183673469387754" height="9.183673469387754" as="geometry" />
        </mxCell>
        <mxCell id="Dmx9H3TW1Ro3idiB31cK-642" value="" style="whiteSpace=wrap;html=1;aspect=fixed;fillColor=#B9E0A5;strokeColor=#97D077;container=0;" vertex="1" parent="Dmx9H3TW1Ro3idiB31cK-639">
          <mxGeometry y="21.42857142857133" width="9.183673469387754" height="9.183673469387754" as="geometry" />
        </mxCell>
        <mxCell id="Dmx9H3TW1Ro3idiB31cK-643" value="" style="whiteSpace=wrap;html=1;aspect=fixed;fillColor=#B9E0A5;strokeColor=#97D077;container=0;" vertex="1" parent="Dmx9H3TW1Ro3idiB31cK-639">
          <mxGeometry y="32.14285714285711" width="9.183673469387754" height="9.183673469387754" as="geometry" />
        </mxCell>
        <mxCell id="Dmx9H3TW1Ro3idiB31cK-644" value="" style="whiteSpace=wrap;html=1;aspect=fixed;fillColor=#B9E0A5;strokeColor=#97D077;container=0;" vertex="1" parent="Dmx9H3TW1Ro3idiB31cK-639">
          <mxGeometry y="42.85714285714289" width="9.183673469387754" height="9.183673469387754" as="geometry" />
        </mxCell>
        <mxCell id="Dmx9H3TW1Ro3idiB31cK-645" value="" style="whiteSpace=wrap;html=1;aspect=fixed;fillColor=#B9E0A5;strokeColor=#97D077;container=0;" vertex="1" parent="Dmx9H3TW1Ro3idiB31cK-639">
          <mxGeometry y="53.571428571428555" width="9.183673469387754" height="9.183673469387754" as="geometry" />
        </mxCell>
        <mxCell id="Dmx9H3TW1Ro3idiB31cK-646" value="" style="group" vertex="1" connectable="0" parent="Dmx9H3TW1Ro3idiB31cK-653">
          <mxGeometry x="36.72" y="20" width="9.18367346938777" height="62.75510204081627" as="geometry" />
        </mxCell>
        <mxCell id="Dmx9H3TW1Ro3idiB31cK-647" value="" style="whiteSpace=wrap;html=1;aspect=fixed;fillColor=#B9E0A5;strokeColor=#97D077;container=0;" vertex="1" parent="Dmx9H3TW1Ro3idiB31cK-646">
          <mxGeometry width="9.183673469387754" height="9.183673469387754" as="geometry" />
        </mxCell>
        <mxCell id="Dmx9H3TW1Ro3idiB31cK-648" value="" style="whiteSpace=wrap;html=1;aspect=fixed;fillColor=#B9E0A5;strokeColor=#97D077;container=0;" vertex="1" parent="Dmx9H3TW1Ro3idiB31cK-646">
          <mxGeometry y="10.714285714285666" width="9.183673469387754" height="9.183673469387754" as="geometry" />
        </mxCell>
        <mxCell id="Dmx9H3TW1Ro3idiB31cK-649" value="" style="whiteSpace=wrap;html=1;aspect=fixed;fillColor=#B9E0A5;strokeColor=#97D077;container=0;" vertex="1" parent="Dmx9H3TW1Ro3idiB31cK-646">
          <mxGeometry y="21.42857142857133" width="9.183673469387754" height="9.183673469387754" as="geometry" />
        </mxCell>
        <mxCell id="Dmx9H3TW1Ro3idiB31cK-650" value="" style="whiteSpace=wrap;html=1;aspect=fixed;fillColor=#B9E0A5;strokeColor=#97D077;container=0;" vertex="1" parent="Dmx9H3TW1Ro3idiB31cK-646">
          <mxGeometry y="32.14285714285711" width="9.183673469387754" height="9.183673469387754" as="geometry" />
        </mxCell>
        <mxCell id="Dmx9H3TW1Ro3idiB31cK-651" value="" style="whiteSpace=wrap;html=1;aspect=fixed;fillColor=#B9E0A5;strokeColor=#97D077;container=0;" vertex="1" parent="Dmx9H3TW1Ro3idiB31cK-646">
          <mxGeometry y="42.85714285714289" width="9.183673469387754" height="9.183673469387754" as="geometry" />
        </mxCell>
        <mxCell id="Dmx9H3TW1Ro3idiB31cK-652" value="" style="whiteSpace=wrap;html=1;aspect=fixed;fillColor=#B9E0A5;strokeColor=#97D077;container=0;" vertex="1" parent="Dmx9H3TW1Ro3idiB31cK-646">
          <mxGeometry y="53.571428571428555" width="9.183673469387754" height="9.183673469387754" as="geometry" />
        </mxCell>
        <mxCell id="Dmx9H3TW1Ro3idiB31cK-659" value="" style="shape=curlyBracket;whiteSpace=wrap;html=1;rounded=1;labelPosition=left;verticalLabelPosition=middle;align=right;verticalAlign=middle;direction=north;size=0.5;" vertex="1" parent="1">
          <mxGeometry x="275.5" y="778.13" width="50" height="20" as="geometry" />
        </mxCell>
        <mxCell id="Dmx9H3TW1Ro3idiB31cK-660" value="&lt;font style=&quot;font-size: 16px;&quot; face=&quot;Times New Roman&quot;&gt;$$N$$&lt;/font&gt;" style="text;strokeColor=none;align=center;fillColor=none;html=1;verticalAlign=middle;whiteSpace=wrap;rounded=0;container=0;" vertex="1" parent="1">
          <mxGeometry x="278" y="798.1257142857143" width="45" height="21.42857142857143" as="geometry" />
        </mxCell>
        <mxCell id="Dmx9H3TW1Ro3idiB31cK-661" value="&lt;font style=&quot;font-size: 16px;&quot; face=&quot;Times New Roman&quot;&gt;$$N$$&lt;/font&gt;" style="text;strokeColor=none;align=center;fillColor=none;html=1;verticalAlign=middle;whiteSpace=wrap;rounded=0;container=0;" vertex="1" parent="1">
          <mxGeometry x="452.95" y="767.1457142857143" width="45" height="21.42857142857143" as="geometry" />
        </mxCell>
        <mxCell id="Dmx9H3TW1Ro3idiB31cK-662" value="" style="shape=curlyBracket;whiteSpace=wrap;html=1;rounded=1;labelPosition=left;verticalLabelPosition=middle;align=right;verticalAlign=middle;direction=north;size=0.5;" vertex="1" parent="1">
          <mxGeometry x="452.95" y="747.15" width="50" height="20" as="geometry" />
        </mxCell>
      </root>
    </mxGraphModel>
  </diagram>
</mxfile>
